<svg xmlns="http://www.w3.org/2000/svg" width="1258" height="1298" style="display:block;font-family:-apple-system,BlinkMacSystemFont,'Segoe UI',Roboto,sans-serif"><defs>
    <marker id="arr" viewBox="0 0 12 12" refX="10" refY="6" markerWidth="8" markerHeight="8" orient="auto-start-reverse">
      <path d="M1 1L10 6L1 11" fill="none" stroke="#333333" stroke-width="1.8" stroke-linecap="round" stroke-linejoin="round"/>
    </marker>
  </defs><rect width="1258" height="1298" fill="#ffffff"/><rect x="26.125" y="16" width="140" height="38" rx="5" fill="#f0f0f0" stroke="#555555" stroke-width="1"/><text x="96.125" y="35" text-anchor="middle" dominant-baseline="central" font-size="11" font-weight="600" fill="#1a1a1a">Admin</text><rect x="178.375" y="16" width="140" height="38" rx="5" fill="#f0f0f0" stroke="#555555" stroke-width="1"/><text x="248.375" y="35" text-anchor="middle" dominant-baseline="central" font-size="11" font-weight="600" fill="#1a1a1a">MailingList.tsx</text><rect x="330.625" y="16" width="140" height="38" rx="5" fill="#f0f0f0" stroke="#555555" stroke-width="1"/><text x="400.625" y="35" text-anchor="middle" dominant-baseline="central" font-size="11" font-weight="600" fill="#1a1a1a">AddEmailModal.tsx</text><rect x="482.875" y="16" width="140" height="38" rx="5" fill="#f0f0f0" stroke="#555555" stroke-width="1"/><text text-anchor="middle" font-size="11" font-weight="600" fill="#1a1a1a">
        <tspan x="552.875" y="28" dominant-baseline="central">emailRecipient_servi</tspan>
        <tspan x="552.875" y="42" dominant-baseline="central">ce.ts</tspan>
      </text><rect x="635.125" y="16" width="140" height="38" rx="5" fill="#f0f0f0" stroke="#555555" stroke-width="1"/><text x="705.125" y="35" text-anchor="middle" dominant-baseline="central" font-size="11" font-weight="600" fill="#1a1a1a">server.ts</text><rect x="787.375" y="16" width="140" height="38" rx="5" fill="#f0f0f0" stroke="#555555" stroke-width="1"/><text x="857.375" y="35" text-anchor="middle" dominant-baseline="central" font-size="11" font-weight="600" fill="#1a1a1a">auth middleware</text><rect x="939.625" y="16" width="140" height="38" rx="5" fill="#f0f0f0" stroke="#555555" stroke-width="1"/><text x="1009.625" y="35" text-anchor="middle" dominant-baseline="central" font-size="11" font-weight="600" fill="#1a1a1a">emailRouter.ts</text><rect x="1091.875" y="16" width="140" height="38" rx="5" fill="#f0f0f0" stroke="#555555" stroke-width="1"/><text x="1161.875" y="35" text-anchor="middle" dominant-baseline="central" font-size="11" font-weight="600" fill="#1a1a1a">Supabase</text><line x1="96.125" y1="54" x2="96.125" y2="1240" stroke="#aaaaaa" stroke-width="1" stroke-dasharray="5 4"/><line x1="248.375" y1="54" x2="248.375" y2="1240" stroke="#aaaaaa" stroke-width="1" stroke-dasharray="5 4"/><line x1="400.625" y1="54" x2="400.625" y2="1240" stroke="#aaaaaa" stroke-width="1" stroke-dasharray="5 4"/><line x1="552.875" y1="54" x2="552.875" y2="1240" stroke="#aaaaaa" stroke-width="1" stroke-dasharray="5 4"/><line x1="705.125" y1="54" x2="705.125" y2="1240" stroke="#aaaaaa" stroke-width="1" stroke-dasharray="5 4"/><line x1="857.375" y1="54" x2="857.375" y2="1240" stroke="#aaaaaa" stroke-width="1" stroke-dasharray="5 4"/><line x1="1009.625" y1="54" x2="1009.625" y2="1240" stroke="#aaaaaa" stroke-width="1" stroke-dasharray="5 4"/><line x1="1161.875" y1="54" x2="1161.875" y2="1240" stroke="#aaaaaa" stroke-width="1" stroke-dasharray="5 4"/><rect x="92.125" y="83" width="8" height="30" rx="2" fill="#ffffff"/><line x1="102.125" y1="102.8" x2="242.375" y2="102.8" stroke="#333333" stroke-width="1.5" marker-end="url(#arr)"/><rect x="87.25" y="81.7" width="170" height="15" fill="#ffffff" rx="2"/><text x="172.25" y="89.2" text-anchor="middle" dominant-baseline="central" font-size="11" fill="#333333">Navigate to /mailing-list</text><rect x="92.125" y="83" width="8" height="30" rx="2" fill="none" stroke="#555555" stroke-width="1"/><rect x="244.375" y="123" width="8" height="30" rx="2" fill="#ffffff"/><line x1="254.375" y1="142.8" x2="546.875" y2="142.8" stroke="#333333" stroke-width="1.5" marker-end="url(#arr)"/><rect x="360.425" y="121.69999999999999" width="80.4" height="15" fill="#ffffff" rx="2"/><text x="400.625" y="129.2" text-anchor="middle" dominant-baseline="central" font-size="11" fill="#333333">getEmails()</text><rect x="244.375" y="123" width="8" height="30" rx="2" fill="none" stroke="#555555" stroke-width="1"/><rect x="548.875" y="163" width="8" height="30" rx="2" fill="#ffffff"/><line x1="558.875" y1="182.8" x2="699.125" y2="182.8" stroke="#333333" stroke-width="1.5" marker-end="url(#arr)"/><rect x="505.6" y="161.7" width="246.8" height="15" fill="#ffffff" rx="2"/><text x="629" y="169.2" text-anchor="middle" dominant-baseline="central" font-size="11" fill="#333333">GET /api/notifications + Bearer token</text><rect x="548.875" y="163" width="8" height="30" rx="2" fill="none" stroke="#555555" stroke-width="1"/><rect x="701.125" y="203" width="8" height="30" rx="2" fill="#ffffff"/><line x1="711.125" y1="222.8" x2="851.375" y2="222.8" stroke="#333333" stroke-width="1.5" marker-end="url(#arr)"/><rect x="734.65" y="201.7" width="93.2" height="15" fill="#ffffff" rx="2"/><text x="781.25" y="209.2" text-anchor="middle" dominant-baseline="central" font-size="11" fill="#333333">authorizeUser</text><rect x="701.125" y="203" width="8" height="30" rx="2" fill="none" stroke="#555555" stroke-width="1"/><rect x="853.375" y="243" width="8" height="44" rx="2" fill="#ffffff"/><path d="M857.375 248.8 L885.375 248.8 L885.375 281.2 L857.375 281.2" fill="none" stroke="#333333" stroke-width="1.5" marker-end="url(#arr)"/><text font-size="11" fill="#333333">
          <tspan x="891.375" y="256.9" dominant-baseline="central">jwt.verify(toke</tspan>
          <tspan x="891.375" y="273.1" dominant-baseline="central">n)</tspan>
        </text><rect x="853.375" y="243" width="8" height="44" rx="2" fill="none" stroke="#555555" stroke-width="1"/><rect x="853.375" y="297" width="8" height="30" rx="2" fill="#ffffff"/><line x1="863.375" y1="316.8" x2="1003.625" y2="316.8" stroke="#333333" stroke-width="1.5" marker-end="url(#arr)"/><rect x="909.3" y="295.7" width="48.400000000000006" height="15" fill="#ffffff" rx="2"/><text x="933.5" y="303.2" text-anchor="middle" dominant-baseline="central" font-size="11" fill="#333333">next()</text><rect x="853.375" y="297" width="8" height="30" rx="2" fill="none" stroke="#555555" stroke-width="1"/><rect x="1005.625" y="337" width="8" height="30" rx="2" fill="#ffffff"/><line x1="1015.625" y1="356.8" x2="1155.875" y2="356.8" stroke="#333333" stroke-width="1.5" marker-end="url(#arr)"/><rect x="1003.95" y="335.7" width="163.60000000000002" height="15" fill="#ffffff" rx="2"/><text x="1085.75" y="343.2" text-anchor="middle" dominant-baseline="central" font-size="11" fill="#333333">email_recipient.select()</text><rect x="1005.625" y="337" width="8" height="30" rx="2" fill="none" stroke="#555555" stroke-width="1"/><rect x="1157.875" y="377" width="8" height="30" rx="2" fill="#ffffff"/><line x1="1155.875" y1="396.8" x2="1015.625" y2="396.8" stroke="#333333" stroke-width="1.5" stroke-dasharray="7 4" marker-end="url(#arr)"/><rect x="1042.35" y="375.7" width="86.80000000000001" height="15" fill="#ffffff" rx="2"/><text x="1085.75" y="383.2" text-anchor="middle" dominant-baseline="central" font-size="11" fill="#333333">email docs[]</text><rect x="1157.875" y="377" width="8" height="30" rx="2" fill="none" stroke="#555555" stroke-width="1"/><rect x="1005.625" y="417" width="8" height="30" rx="2" fill="#ffffff"/><line x1="1003.625" y1="436.8" x2="711.125" y2="436.8" stroke="#333333" stroke-width="1.5" stroke-dasharray="7 4" marker-end="url(#arr)"/><rect x="813.975" y="415.7" width="86.80000000000001" height="15" fill="#ffffff" rx="2"/><text x="857.375" y="423.2" text-anchor="middle" dominant-baseline="central" font-size="11" fill="#333333">200 emails[]</text><rect x="1005.625" y="417" width="8" height="30" rx="2" fill="none" stroke="#555555" stroke-width="1"/><rect x="701.125" y="457" width="8" height="30" rx="2" fill="#ffffff"/><line x1="699.125" y1="476.8" x2="558.875" y2="476.8" stroke="#333333" stroke-width="1.5" stroke-dasharray="7 4" marker-end="url(#arr)"/><rect x="585.6" y="455.7" width="86.80000000000001" height="15" fill="#ffffff" rx="2"/><text x="629" y="463.2" text-anchor="middle" dominant-baseline="central" font-size="11" fill="#333333">200 emails[]</text><rect x="701.125" y="457" width="8" height="30" rx="2" fill="none" stroke="#555555" stroke-width="1"/><rect x="548.875" y="497" width="8" height="30" rx="2" fill="#ffffff"/><line x1="546.875" y1="516.8" x2="254.375" y2="516.8" stroke="#333333" stroke-width="1.5" stroke-dasharray="7 4" marker-end="url(#arr)"/><rect x="370.025" y="495.7" width="61.2" height="15" fill="#ffffff" rx="2"/><text x="400.625" y="503.2" text-anchor="middle" dominant-baseline="central" font-size="11" fill="#333333">emails[]</text><rect x="548.875" y="497" width="8" height="30" rx="2" fill="none" stroke="#555555" stroke-width="1"/><rect x="244.375" y="537" width="8" height="30" rx="2" fill="#ffffff"/><line x1="242.375" y1="556.8" x2="102.125" y2="556.8" stroke="#333333" stroke-width="1.5" marker-end="url(#arr)"/><rect x="100.05" y="535.7" width="144.4" height="15" fill="#ffffff" rx="2"/><text x="172.25" y="543.2" text-anchor="middle" dominant-baseline="central" font-size="11" fill="#333333">Render recipient list</text><rect x="244.375" y="537" width="8" height="30" rx="2" fill="none" stroke="#555555" stroke-width="1"/><rect x="92.125" y="577" width="8" height="30" rx="2" fill="#ffffff"/><line x1="102.125" y1="596.8" x2="242.375" y2="596.8" stroke="#333333" stroke-width="1.5" marker-end="url(#arr)"/><rect x="112.85" y="575.7" width="118.80000000000001" height="15" fill="#ffffff" rx="2"/><text x="172.25" y="583.2" text-anchor="middle" dominant-baseline="central" font-size="11" fill="#333333">Click "Add Email"</text><rect x="92.125" y="577" width="8" height="30" rx="2" fill="none" stroke="#555555" stroke-width="1"/><rect x="244.375" y="617" width="8" height="30" rx="2" fill="#ffffff"/><line x1="254.375" y1="636.8" x2="394.625" y2="636.8" stroke="#333333" stroke-width="1.5" marker-end="url(#arr)"/><rect x="287.5" y="615.7" width="74" height="15" fill="#ffffff" rx="2"/><text x="324.5" y="623.2" text-anchor="middle" dominant-baseline="central" font-size="11" fill="#333333">Show modal</text><rect x="244.375" y="617" width="8" height="30" rx="2" fill="none" stroke="#555555" stroke-width="1"/><rect x="92.125" y="657" width="8" height="30" rx="2" fill="#ffffff"/><line x1="102.125" y1="676.8" x2="394.625" y2="676.8" stroke="#333333" stroke-width="1.5" marker-end="url(#arr)"/><rect x="121.77499999999999" y="655.7" width="253.20000000000002" height="15" fill="#ffffff" rx="2"/><text x="248.375" y="663.2" text-anchor="middle" dominant-baseline="central" font-size="11" fill="#333333">Enter username + set alert preferences</text><rect x="92.125" y="657" width="8" height="30" rx="2" fill="none" stroke="#555555" stroke-width="1"/><rect x="24" y="694" width="1210" height="24" rx="3" fill="#fafafa" stroke="#aaaaaa" stroke-width="1" stroke-dasharray="4 3"/><text x="629" y="705" text-anchor="middle" dominant-baseline="central" font-size="11" fill="#666666" font-style="italic">Auto-suffix: username + "@quinnipiac.edu"</text><rect x="396.625" y="727" width="8" height="30" rx="2" fill="#ffffff"/><line x1="406.625" y1="746.8" x2="546.875" y2="746.8" stroke="#333333" stroke-width="1.5" marker-end="url(#arr)"/><rect x="334.15" y="725.7" width="285.2" height="15" fill="#ffffff" rx="2"/><text x="476.75" y="733.2" text-anchor="middle" dominant-baseline="central" font-size="11" fill="#333333">postEmail({ email, alerts, daily, weekly })</text><rect x="396.625" y="727" width="8" height="30" rx="2" fill="none" stroke="#555555" stroke-width="1"/><rect x="548.875" y="767" width="8" height="30" rx="2" fill="#ffffff"/><line x1="558.875" y1="786.8" x2="699.125" y2="786.8" stroke="#333333" stroke-width="1.5" marker-end="url(#arr)"/><rect x="502.4" y="765.7" width="253.20000000000002" height="15" fill="#ffffff" rx="2"/><text x="629" y="773.2" text-anchor="middle" dominant-baseline="central" font-size="11" fill="#333333">POST /api/notifications + Bearer token</text><rect x="548.875" y="767" width="8" height="30" rx="2" fill="none" stroke="#555555" stroke-width="1"/><rect x="701.125" y="807" width="8" height="30" rx="2" fill="#ffffff"/><line x1="711.125" y1="826.8" x2="851.375" y2="826.8" stroke="#333333" stroke-width="1.5" marker-end="url(#arr)"/><rect x="731.45" y="805.7" width="99.60000000000001" height="15" fill="#ffffff" rx="2"/><text x="781.25" y="813.2" text-anchor="middle" dominant-baseline="central" font-size="11" fill="#333333">authorizeAdmin</text><rect x="701.125" y="807" width="8" height="30" rx="2" fill="none" stroke="#555555" stroke-width="1"/><rect x="853.375" y="847" width="8" height="44" rx="2" fill="#ffffff"/><path d="M857.375 852.8 L885.375 852.8 L885.375 885.2 L857.375 885.2" fill="none" stroke="#333333" stroke-width="1.5" marker-end="url(#arr)"/><text font-size="11" fill="#333333">
          <tspan x="891.375" y="860.9" dominant-baseline="central">verify token</tspan>
          <tspan x="891.375" y="877.1" dominant-baseline="central">+ isAdmin flag</tspan>
        </text><rect x="853.375" y="847" width="8" height="44" rx="2" fill="none" stroke="#555555" stroke-width="1"/><rect x="853.375" y="901" width="8" height="30" rx="2" fill="#ffffff"/><line x1="863.375" y1="920.8" x2="1003.625" y2="920.8" stroke="#333333" stroke-width="1.5" marker-end="url(#arr)"/><rect x="909.3" y="899.7" width="48.400000000000006" height="15" fill="#ffffff" rx="2"/><text x="933.5" y="907.2" text-anchor="middle" dominant-baseline="central" font-size="11" fill="#333333">next()</text><rect x="853.375" y="901" width="8" height="30" rx="2" fill="none" stroke="#555555" stroke-width="1"/><rect x="1005.625" y="941" width="8" height="30" rx="2" fill="#ffffff"/><line x1="1015.625" y1="960.8" x2="1155.875" y2="960.8" stroke="#333333" stroke-width="1.5" marker-end="url(#arr)"/><rect x="1003.95" y="939.7" width="163.60000000000002" height="15" fill="#ffffff" rx="2"/><text x="1085.75" y="947.2" text-anchor="middle" dominant-baseline="central" font-size="11" fill="#333333">email_recipient.insert()</text><rect x="1005.625" y="941" width="8" height="30" rx="2" fill="none" stroke="#555555" stroke-width="1"/><rect x="1157.875" y="981" width="8" height="30" rx="2" fill="#ffffff"/><line x1="1155.875" y1="1000.8" x2="1015.625" y2="1000.8" stroke="#333333" stroke-width="1.5" stroke-dasharray="7 4" marker-end="url(#arr)"/><rect x="1051.95" y="979.7" width="67.6" height="15" fill="#ffffff" rx="2"/><text x="1085.75" y="987.2" text-anchor="middle" dominant-baseline="central" font-size="11" fill="#333333">saved doc</text><rect x="1157.875" y="981" width="8" height="30" rx="2" fill="none" stroke="#555555" stroke-width="1"/><rect x="1005.625" y="1021" width="8" height="30" rx="2" fill="#ffffff"/><line x1="1003.625" y1="1040.8" x2="711.125" y2="1040.8" stroke="#333333" stroke-width="1.5" stroke-dasharray="7 4" marker-end="url(#arr)"/><rect x="810.775" y="1019.7" width="93.2" height="15" fill="#ffffff" rx="2"/><text x="857.375" y="1027.2" text-anchor="middle" dominant-baseline="central" font-size="11" fill="#333333">201 email doc</text><rect x="1005.625" y="1021" width="8" height="30" rx="2" fill="none" stroke="#555555" stroke-width="1"/><rect x="701.125" y="1061" width="8" height="30" rx="2" fill="#ffffff"/><line x1="699.125" y1="1080.8" x2="558.875" y2="1080.8" stroke="#333333" stroke-width="1.5" stroke-dasharray="7 4" marker-end="url(#arr)"/><rect x="582.4" y="1059.7" width="93.2" height="15" fill="#ffffff" rx="2"/><text x="629" y="1067.2" text-anchor="middle" dominant-baseline="central" font-size="11" fill="#333333">201 email doc</text><rect x="701.125" y="1061" width="8" height="30" rx="2" fill="none" stroke="#555555" stroke-width="1"/><rect x="548.875" y="1101" width="8" height="30" rx="2" fill="#ffffff"/><line x1="546.875" y1="1120.8" x2="406.625" y2="1120.8" stroke="#333333" stroke-width="1.5" stroke-dasharray="7 4" marker-end="url(#arr)"/><rect x="442.95" y="1099.7" width="67.6" height="15" fill="#ffffff" rx="2"/><text x="476.75" y="1107.2" text-anchor="middle" dominant-baseline="central" font-size="11" fill="#333333">email doc</text><rect x="548.875" y="1101" width="8" height="30" rx="2" fill="none" stroke="#555555" stroke-width="1"/><rect x="396.625" y="1141" width="8" height="30" rx="2" fill="#ffffff"/><line x1="394.625" y1="1160.8" x2="254.375" y2="1160.8" stroke="#333333" stroke-width="1.5" marker-end="url(#arr)"/><rect x="220.3" y="1139.7" width="208.4" height="15" fill="#ffffff" rx="2"/><text x="324.5" y="1147.2" text-anchor="middle" dominant-baseline="central" font-size="11" fill="#333333">onSave() — close + refresh list</text><rect x="396.625" y="1141" width="8" height="30" rx="2" fill="none" stroke="#555555" stroke-width="1"/><rect x="244.375" y="1181" width="8" height="30" rx="2" fill="#ffffff"/><line x1="242.375" y1="1200.8" x2="102.125" y2="1200.8" stroke="#333333" stroke-width="1.5" marker-end="url(#arr)"/><rect x="80.85" y="1179.7" width="182.8" height="15" fill="#ffffff" rx="2"/><text x="172.25" y="1187.2" text-anchor="middle" dominant-baseline="central" font-size="11" fill="#333333">Show updated recipient list</text><rect x="244.375" y="1181" width="8" height="30" rx="2" fill="none" stroke="#555555" stroke-width="1"/><rect x="26.125" y="1244" width="140" height="38" rx="5" fill="#f0f0f0" stroke="#555555" stroke-width="1"/><text x="96.125" y="1263" text-anchor="middle" dominant-baseline="central" font-size="11" font-weight="600" fill="#1a1a1a">Admin</text><rect x="178.375" y="1244" width="140" height="38" rx="5" fill="#f0f0f0" stroke="#555555" stroke-width="1"/><text x="248.375" y="1263" text-anchor="middle" dominant-baseline="central" font-size="11" font-weight="600" fill="#1a1a1a">MailingList.tsx</text><rect x="330.625" y="1244" width="140" height="38" rx="5" fill="#f0f0f0" stroke="#555555" stroke-width="1"/><text x="400.625" y="1263" text-anchor="middle" dominant-baseline="central" font-size="11" font-weight="600" fill="#1a1a1a">AddEmailModal.tsx</text><rect x="482.875" y="1244" width="140" height="38" rx="5" fill="#f0f0f0" stroke="#555555" stroke-width="1"/><text text-anchor="middle" font-size="11" font-weight="600" fill="#1a1a1a">
        <tspan x="552.875" y="1256" dominant-baseline="central">emailRecipient_servi</tspan>
        <tspan x="552.875" y="1270" dominant-baseline="central">ce.ts</tspan>
      </text><rect x="635.125" y="1244" width="140" height="38" rx="5" fill="#f0f0f0" stroke="#555555" stroke-width="1"/><text x="705.125" y="1263" text-anchor="middle" dominant-baseline="central" font-size="11" font-weight="600" fill="#1a1a1a">server.ts</text><rect x="787.375" y="1244" width="140" height="38" rx="5" fill="#f0f0f0" stroke="#555555" stroke-width="1"/><text x="857.375" y="1263" text-anchor="middle" dominant-baseline="central" font-size="11" font-weight="600" fill="#1a1a1a">auth middleware</text><rect x="939.625" y="1244" width="140" height="38" rx="5" fill="#f0f0f0" stroke="#555555" stroke-width="1"/><text x="1009.625" y="1263" text-anchor="middle" dominant-baseline="central" font-size="11" font-weight="600" fill="#1a1a1a">emailRouter.ts</text><rect x="1091.875" y="1244" width="140" height="38" rx="5" fill="#f0f0f0" stroke="#555555" stroke-width="1"/><text x="1161.875" y="1263" text-anchor="middle" dominant-baseline="central" font-size="11" font-weight="600" fill="#1a1a1a">Supabase</text></svg>