<svg xmlns="http://www.w3.org/2000/svg" width="1258" height="922" style="display:block;font-family:-apple-system,BlinkMacSystemFont,'Segoe UI',Roboto,sans-serif"><defs>
    <marker id="arr" viewBox="0 0 12 12" refX="10" refY="6" markerWidth="8" markerHeight="8" orient="auto-start-reverse">
      <path d="M1 1L10 6L1 11" fill="none" stroke="#333333" stroke-width="1.8" stroke-linecap="round" stroke-linejoin="round"/>
    </marker>
  </defs><rect width="1258" height="922" fill="#ffffff"/><rect x="26.125" y="16" width="140" height="38" rx="5" fill="#f0f0f0" stroke="#555555" stroke-width="1"/><text x="96.125" y="35" text-anchor="middle" dominant-baseline="central" font-size="11" font-weight="600" fill="#1a1a1a">Admin</text><rect x="178.375" y="16" width="140" height="38" rx="5" fill="#f0f0f0" stroke="#555555" stroke-width="1"/><text x="248.375" y="35" text-anchor="middle" dominant-baseline="central" font-size="11" font-weight="600" fill="#1a1a1a">ManageInventory.tsx</text><rect x="330.625" y="16" width="140" height="38" rx="5" fill="#f0f0f0" stroke="#555555" stroke-width="1"/><text x="400.625" y="35" text-anchor="middle" dominant-baseline="central" font-size="11" font-weight="600" fill="#1a1a1a">AddItemModal.tsx</text><rect x="482.875" y="16" width="140" height="38" rx="5" fill="#f0f0f0" stroke="#555555" stroke-width="1"/><text x="552.875" y="35" text-anchor="middle" dominant-baseline="central" font-size="11" font-weight="600" fill="#1a1a1a">category.ts</text><rect x="635.125" y="16" width="140" height="38" rx="5" fill="#f0f0f0" stroke="#555555" stroke-width="1"/><text x="705.125" y="35" text-anchor="middle" dominant-baseline="central" font-size="11" font-weight="600" fill="#1a1a1a">server.ts</text><rect x="787.375" y="16" width="140" height="38" rx="5" fill="#f0f0f0" stroke="#555555" stroke-width="1"/><text x="857.375" y="35" text-anchor="middle" dominant-baseline="central" font-size="11" font-weight="600" fill="#1a1a1a">auth middleware</text><rect x="939.625" y="16" width="140" height="38" rx="5" fill="#f0f0f0" stroke="#555555" stroke-width="1"/><text x="1009.625" y="35" text-anchor="middle" dominant-baseline="central" font-size="11" font-weight="600" fill="#1a1a1a">categoryRouter.ts</text><rect x="1091.875" y="16" width="140" height="38" rx="5" fill="#f0f0f0" stroke="#555555" stroke-width="1"/><text x="1161.875" y="35" text-anchor="middle" dominant-baseline="central" font-size="11" font-weight="600" fill="#1a1a1a">Supabase</text><line x1="96.125" y1="54" x2="96.125" y2="864" stroke="#aaaaaa" stroke-width="1" stroke-dasharray="5 4"/><line x1="248.375" y1="54" x2="248.375" y2="864" stroke="#aaaaaa" stroke-width="1" stroke-dasharray="5 4"/><line x1="400.625" y1="54" x2="400.625" y2="864" stroke="#aaaaaa" stroke-width="1" stroke-dasharray="5 4"/><line x1="552.875" y1="54" x2="552.875" y2="864" stroke="#aaaaaa" stroke-width="1" stroke-dasharray="5 4"/><line x1="705.125" y1="54" x2="705.125" y2="864" stroke="#aaaaaa" stroke-width="1" stroke-dasharray="5 4"/><line x1="857.375" y1="54" x2="857.375" y2="864" stroke="#aaaaaa" stroke-width="1" stroke-dasharray="5 4"/><line x1="1009.625" y1="54" x2="1009.625" y2="864" stroke="#aaaaaa" stroke-width="1" stroke-dasharray="5 4"/><line x1="1161.875" y1="54" x2="1161.875" y2="864" stroke="#aaaaaa" stroke-width="1" stroke-dasharray="5 4"/><rect x="92.125" y="83" width="8" height="30" rx="2" fill="#ffffff"/><line x1="102.125" y1="102.8" x2="242.375" y2="102.8" stroke="#333333" stroke-width="1.5" marker-end="url(#arr)"/><rect x="74.44999999999999" y="81.7" width="195.60000000000002" height="15" fill="#ffffff" rx="2"/><text x="172.25" y="89.2" text-anchor="middle" dominant-baseline="central" font-size="11" fill="#333333">Navigate to /manage-inventory</text><rect x="92.125" y="83" width="8" height="30" rx="2" fill="none" stroke="#555555" stroke-width="1"/><rect x="92.125" y="123" width="8" height="30" rx="2" fill="#ffffff"/><line x1="102.125" y1="142.8" x2="242.375" y2="142.8" stroke="#333333" stroke-width="1.5" marker-end="url(#arr)"/><rect x="87.25" y="121.69999999999999" width="170" height="15" fill="#ffffff" rx="2"/><text x="172.25" y="129.2" text-anchor="middle" dominant-baseline="central" font-size="11" fill="#333333">Click "+" Add Item button</text><rect x="92.125" y="123" width="8" height="30" rx="2" fill="none" stroke="#555555" stroke-width="1"/><rect x="244.375" y="163" width="8" height="30" rx="2" fill="#ffffff"/><line x1="254.375" y1="182.8" x2="394.625" y2="182.8" stroke="#333333" stroke-width="1.5" marker-end="url(#arr)"/><rect x="287.5" y="161.7" width="74" height="15" fill="#ffffff" rx="2"/><text x="324.5" y="169.2" text-anchor="middle" dominant-baseline="central" font-size="11" fill="#333333">Show modal</text><rect x="244.375" y="163" width="8" height="30" rx="2" fill="none" stroke="#555555" stroke-width="1"/><rect x="92.125" y="203" width="8" height="30" rx="2" fill="#ffffff"/><line x1="102.125" y1="222.8" x2="394.625" y2="222.8" stroke="#333333" stroke-width="1.5" marker-end="url(#arr)"/><rect x="156.975" y="201.7" width="182.8" height="15" fill="#ffffff" rx="2"/><text x="248.375" y="209.2" text-anchor="middle" dominant-baseline="central" font-size="11" fill="#333333">Click "Create New Category"</text><rect x="92.125" y="203" width="8" height="30" rx="2" fill="none" stroke="#555555" stroke-width="1"/><rect x="396.625" y="243" width="8" height="44" rx="2" fill="#ffffff"/><path d="M400.625 248.8 L428.625 248.8 L428.625 281.2 L400.625 281.2" fill="none" stroke="#333333" stroke-width="1.5" marker-end="url(#arr)"/><text font-size="11" fill="#333333">
          <tspan x="434.625" y="256.9" dominant-baseline="central">Expand category</tspan>
          <tspan x="434.625" y="273.1" dominant-baseline="central">creation form</tspan>
        </text><rect x="396.625" y="243" width="8" height="44" rx="2" fill="none" stroke="#555555" stroke-width="1"/><rect x="92.125" y="297" width="8" height="30" rx="2" fill="#ffffff"/><line x1="102.125" y1="316.8" x2="394.625" y2="316.8" stroke="#333333" stroke-width="1.5" marker-end="url(#arr)"/><rect x="140.975" y="295.7" width="214.8" height="15" fill="#ffffff" rx="2"/><text x="248.375" y="303.2" text-anchor="middle" dominant-baseline="central" font-size="11" fill="#333333">Enter categoryName + units, save</text><rect x="92.125" y="297" width="8" height="30" rx="2" fill="none" stroke="#555555" stroke-width="1"/><rect x="396.625" y="337" width="8" height="30" rx="2" fill="#ffffff"/><line x1="406.625" y1="356.8" x2="546.875" y2="356.8" stroke="#333333" stroke-width="1.5" marker-end="url(#arr)"/><rect x="353.35" y="335.7" width="246.8" height="15" fill="#ffffff" rx="2"/><text x="476.75" y="343.2" text-anchor="middle" dominant-baseline="central" font-size="11" fill="#333333">postCategory({ categoryName, units })</text><rect x="396.625" y="337" width="8" height="30" rx="2" fill="none" stroke="#555555" stroke-width="1"/><rect x="548.875" y="377" width="8" height="30" rx="2" fill="#ffffff"/><line x1="558.875" y1="396.8" x2="699.125" y2="396.8" stroke="#333333" stroke-width="1.5" marker-end="url(#arr)"/><rect x="518.4" y="375.7" width="221.20000000000002" height="15" fill="#ffffff" rx="2"/><text x="629" y="383.2" text-anchor="middle" dominant-baseline="central" font-size="11" fill="#333333">POST /api/category + Bearer token</text><rect x="548.875" y="377" width="8" height="30" rx="2" fill="none" stroke="#555555" stroke-width="1"/><rect x="701.125" y="417" width="8" height="30" rx="2" fill="#ffffff"/><line x1="711.125" y1="436.8" x2="851.375" y2="436.8" stroke="#333333" stroke-width="1.5" marker-end="url(#arr)"/><rect x="731.45" y="415.7" width="99.60000000000001" height="15" fill="#ffffff" rx="2"/><text x="781.25" y="423.2" text-anchor="middle" dominant-baseline="central" font-size="11" fill="#333333">authorizeAdmin</text><rect x="701.125" y="417" width="8" height="30" rx="2" fill="none" stroke="#555555" stroke-width="1"/><rect x="853.375" y="457" width="8" height="44" rx="2" fill="#ffffff"/><path d="M857.375 462.8 L885.375 462.8 L885.375 495.2 L857.375 495.2" fill="none" stroke="#333333" stroke-width="1.5" marker-end="url(#arr)"/><text font-size="11" fill="#333333">
          <tspan x="891.375" y="470.9" dominant-baseline="central">verify token</tspan>
          <tspan x="891.375" y="487.1" dominant-baseline="central">+ isAdmin flag</tspan>
        </text><rect x="853.375" y="457" width="8" height="44" rx="2" fill="none" stroke="#555555" stroke-width="1"/><rect x="853.375" y="511" width="8" height="30" rx="2" fill="#ffffff"/><line x1="863.375" y1="530.8" x2="1003.625" y2="530.8" stroke="#333333" stroke-width="1.5" marker-end="url(#arr)"/><rect x="909.3" y="509.70000000000005" width="48.400000000000006" height="15" fill="#ffffff" rx="2"/><text x="933.5" y="517.2" text-anchor="middle" dominant-baseline="central" font-size="11" fill="#333333">next()</text><rect x="853.375" y="511" width="8" height="30" rx="2" fill="none" stroke="#555555" stroke-width="1"/><rect x="1005.625" y="551" width="8" height="30" rx="2" fill="#ffffff"/><line x1="1015.625" y1="570.8" x2="1155.875" y2="570.8" stroke="#333333" stroke-width="1.5" marker-end="url(#arr)"/><rect x="1026.35" y="549.7" width="118.80000000000001" height="15" fill="#ffffff" rx="2"/><text x="1085.75" y="557.2" text-anchor="middle" dominant-baseline="central" font-size="11" fill="#333333">category.insert()</text><rect x="1005.625" y="551" width="8" height="30" rx="2" fill="none" stroke="#555555" stroke-width="1"/><rect x="1157.875" y="591" width="8" height="30" rx="2" fill="#ffffff"/><line x1="1155.875" y1="610.8" x2="1015.625" y2="610.8" stroke="#333333" stroke-width="1.5" stroke-dasharray="7 4" marker-end="url(#arr)"/><rect x="1051.95" y="589.7" width="67.6" height="15" fill="#ffffff" rx="2"/><text x="1085.75" y="597.2" text-anchor="middle" dominant-baseline="central" font-size="11" fill="#333333">saved doc</text><rect x="1157.875" y="591" width="8" height="30" rx="2" fill="none" stroke="#555555" stroke-width="1"/><rect x="1005.625" y="631" width="8" height="30" rx="2" fill="#ffffff"/><line x1="1003.625" y1="650.8" x2="711.125" y2="650.8" stroke="#333333" stroke-width="1.5" stroke-dasharray="7 4" marker-end="url(#arr)"/><rect x="801.175" y="629.7" width="112.4" height="15" fill="#ffffff" rx="2"/><text x="857.375" y="637.2" text-anchor="middle" dominant-baseline="central" font-size="11" fill="#333333">201 category doc</text><rect x="1005.625" y="631" width="8" height="30" rx="2" fill="none" stroke="#555555" stroke-width="1"/><rect x="701.125" y="671" width="8" height="30" rx="2" fill="#ffffff"/><line x1="699.125" y1="690.8" x2="558.875" y2="690.8" stroke="#333333" stroke-width="1.5" stroke-dasharray="7 4" marker-end="url(#arr)"/><rect x="572.8" y="669.7" width="112.4" height="15" fill="#ffffff" rx="2"/><text x="629" y="677.2" text-anchor="middle" dominant-baseline="central" font-size="11" fill="#333333">201 category doc</text><rect x="701.125" y="671" width="8" height="30" rx="2" fill="none" stroke="#555555" stroke-width="1"/><rect x="548.875" y="711" width="8" height="30" rx="2" fill="#ffffff"/><line x1="546.875" y1="730.8" x2="406.625" y2="730.8" stroke="#333333" stroke-width="1.5" stroke-dasharray="7 4" marker-end="url(#arr)"/><rect x="433.35" y="709.7" width="86.80000000000001" height="15" fill="#ffffff" rx="2"/><text x="476.75" y="717.2" text-anchor="middle" dominant-baseline="central" font-size="11" fill="#333333">category doc</text><rect x="548.875" y="711" width="8" height="30" rx="2" fill="none" stroke="#555555" stroke-width="1"/><rect x="396.625" y="751" width="8" height="44" rx="2" fill="#ffffff"/><path d="M400.625 756.8 L428.625 756.8 L428.625 789.2 L400.625 789.2" fill="none" stroke="#333333" stroke-width="1.5" marker-end="url(#arr)"/><text font-size="11" fill="#333333">
          <tspan x="434.625" y="764.9" dominant-baseline="central">Add to category</tspan>
          <tspan x="434.625" y="781.1" dominant-baseline="central">dropdown</tspan>
        </text><rect x="396.625" y="751" width="8" height="44" rx="2" fill="none" stroke="#555555" stroke-width="1"/><rect x="396.625" y="805" width="8" height="30" rx="2" fill="#ffffff"/><line x1="394.625" y1="824.8" x2="102.125" y2="824.8" stroke="#333333" stroke-width="1.5" marker-end="url(#arr)"/><rect x="150.575" y="803.7" width="195.60000000000002" height="15" fill="#ffffff" rx="2"/><text x="248.375" y="811.2" text-anchor="middle" dominant-baseline="central" font-size="11" fill="#333333">Show new category in selector</text><rect x="396.625" y="805" width="8" height="30" rx="2" fill="none" stroke="#555555" stroke-width="1"/><rect x="26.125" y="868" width="140" height="38" rx="5" fill="#f0f0f0" stroke="#555555" stroke-width="1"/><text x="96.125" y="887" text-anchor="middle" dominant-baseline="central" font-size="11" font-weight="600" fill="#1a1a1a">Admin</text><rect x="178.375" y="868" width="140" height="38" rx="5" fill="#f0f0f0" stroke="#555555" stroke-width="1"/><text x="248.375" y="887" text-anchor="middle" dominant-baseline="central" font-size="11" font-weight="600" fill="#1a1a1a">ManageInventory.tsx</text><rect x="330.625" y="868" width="140" height="38" rx="5" fill="#f0f0f0" stroke="#555555" stroke-width="1"/><text x="400.625" y="887" text-anchor="middle" dominant-baseline="central" font-size="11" font-weight="600" fill="#1a1a1a">AddItemModal.tsx</text><rect x="482.875" y="868" width="140" height="38" rx="5" fill="#f0f0f0" stroke="#555555" stroke-width="1"/><text x="552.875" y="887" text-anchor="middle" dominant-baseline="central" font-size="11" font-weight="600" fill="#1a1a1a">category.ts</text><rect x="635.125" y="868" width="140" height="38" rx="5" fill="#f0f0f0" stroke="#555555" stroke-width="1"/><text x="705.125" y="887" text-anchor="middle" dominant-baseline="central" font-size="11" font-weight="600" fill="#1a1a1a">server.ts</text><rect x="787.375" y="868" width="140" height="38" rx="5" fill="#f0f0f0" stroke="#555555" stroke-width="1"/><text x="857.375" y="887" text-anchor="middle" dominant-baseline="central" font-size="11" font-weight="600" fill="#1a1a1a">auth middleware</text><rect x="939.625" y="868" width="140" height="38" rx="5" fill="#f0f0f0" stroke="#555555" stroke-width="1"/><text x="1009.625" y="887" text-anchor="middle" dominant-baseline="central" font-size="11" font-weight="600" fill="#1a1a1a">categoryRouter.ts</text><rect x="1091.875" y="868" width="140" height="38" rx="5" fill="#f0f0f0" stroke="#555555" stroke-width="1"/><text x="1161.875" y="887" text-anchor="middle" dominant-baseline="central" font-size="11" font-weight="600" fill="#1a1a1a">Supabase</text></svg>