<svg xmlns="http://www.w3.org/2000/svg" width="1258" height="928" style="display:block;font-family:-apple-system,BlinkMacSystemFont,'Segoe UI',Roboto,sans-serif"><defs>
    <marker id="arr" viewBox="0 0 12 12" refX="10" refY="6" markerWidth="8" markerHeight="8" orient="auto-start-reverse">
      <path d="M1 1L10 6L1 11" fill="none" stroke="#333333" stroke-width="1.8" stroke-linecap="round" stroke-linejoin="round"/>
    </marker>
  </defs><rect width="1258" height="928" fill="#ffffff"/><rect x="26.125" y="16" width="140" height="38" rx="5" fill="#f0f0f0" stroke="#555555" stroke-width="1"/><text x="96.125" y="35" text-anchor="middle" dominant-baseline="central" font-size="11" font-weight="600" fill="#1a1a1a">Admin</text><rect x="178.375" y="16" width="140" height="38" rx="5" fill="#f0f0f0" stroke="#555555" stroke-width="1"/><text x="248.375" y="35" text-anchor="middle" dominant-baseline="central" font-size="11" font-weight="600" fill="#1a1a1a">ManageInventory.tsx</text><rect x="330.625" y="16" width="140" height="38" rx="5" fill="#f0f0f0" stroke="#555555" stroke-width="1"/><text x="400.625" y="35" text-anchor="middle" dominant-baseline="central" font-size="11" font-weight="600" fill="#1a1a1a">AddItemModal.tsx</text><rect x="482.875" y="16" width="140" height="38" rx="5" fill="#f0f0f0" stroke="#555555" stroke-width="1"/><text x="552.875" y="35" text-anchor="middle" dominant-baseline="central" font-size="11" font-weight="600" fill="#1a1a1a">item_service.ts</text><rect x="635.125" y="16" width="140" height="38" rx="5" fill="#f0f0f0" stroke="#555555" stroke-width="1"/><text x="705.125" y="35" text-anchor="middle" dominant-baseline="central" font-size="11" font-weight="600" fill="#1a1a1a">server.ts</text><rect x="787.375" y="16" width="140" height="38" rx="5" fill="#f0f0f0" stroke="#555555" stroke-width="1"/><text x="857.375" y="35" text-anchor="middle" dominant-baseline="central" font-size="11" font-weight="600" fill="#1a1a1a">auth middleware</text><rect x="939.625" y="16" width="140" height="38" rx="5" fill="#f0f0f0" stroke="#555555" stroke-width="1"/><text x="1009.625" y="35" text-anchor="middle" dominant-baseline="central" font-size="11" font-weight="600" fill="#1a1a1a">itemRouter.ts</text><rect x="1091.875" y="16" width="140" height="38" rx="5" fill="#f0f0f0" stroke="#555555" stroke-width="1"/><text x="1161.875" y="35" text-anchor="middle" dominant-baseline="central" font-size="11" font-weight="600" fill="#1a1a1a">Supabase</text><line x1="96.125" y1="54" x2="96.125" y2="870" stroke="#aaaaaa" stroke-width="1" stroke-dasharray="5 4"/><line x1="248.375" y1="54" x2="248.375" y2="870" stroke="#aaaaaa" stroke-width="1" stroke-dasharray="5 4"/><line x1="400.625" y1="54" x2="400.625" y2="870" stroke="#aaaaaa" stroke-width="1" stroke-dasharray="5 4"/><line x1="552.875" y1="54" x2="552.875" y2="870" stroke="#aaaaaa" stroke-width="1" stroke-dasharray="5 4"/><line x1="705.125" y1="54" x2="705.125" y2="870" stroke="#aaaaaa" stroke-width="1" stroke-dasharray="5 4"/><line x1="857.375" y1="54" x2="857.375" y2="870" stroke="#aaaaaa" stroke-width="1" stroke-dasharray="5 4"/><line x1="1009.625" y1="54" x2="1009.625" y2="870" stroke="#aaaaaa" stroke-width="1" stroke-dasharray="5 4"/><line x1="1161.875" y1="54" x2="1161.875" y2="870" stroke="#aaaaaa" stroke-width="1" stroke-dasharray="5 4"/><rect x="92.125" y="83" width="8" height="30" rx="2" fill="#ffffff"/><line x1="102.125" y1="102.8" x2="242.375" y2="102.8" stroke="#333333" stroke-width="1.5" marker-end="url(#arr)"/><rect x="87.25" y="81.7" width="170" height="15" fill="#ffffff" rx="2"/><text x="172.25" y="89.2" text-anchor="middle" dominant-baseline="central" font-size="11" fill="#333333">Click "+" Add Item button</text><rect x="92.125" y="83" width="8" height="30" rx="2" fill="none" stroke="#555555" stroke-width="1"/><rect x="244.375" y="123" width="8" height="30" rx="2" fill="#ffffff"/><line x1="254.375" y1="142.8" x2="394.625" y2="142.8" stroke="#333333" stroke-width="1.5" marker-end="url(#arr)"/><rect x="287.5" y="121.69999999999999" width="74" height="15" fill="#ffffff" rx="2"/><text x="324.5" y="129.2" text-anchor="middle" dominant-baseline="central" font-size="11" fill="#333333">Show modal</text><rect x="244.375" y="123" width="8" height="30" rx="2" fill="none" stroke="#555555" stroke-width="1"/><rect x="92.125" y="163" width="8" height="30" rx="2" fill="#ffffff"/><line x1="102.125" y1="182.8" x2="394.625" y2="182.8" stroke="#333333" stroke-width="1.5" marker-end="url(#arr)"/><rect x="108.975" y="161.7" width="278.8" height="15" fill="#ffffff" rx="2"/><text x="248.375" y="169.2" text-anchor="middle" dominant-baseline="central" font-size="11" fill="#333333">Fill form (name, category, qty, threshold)</text><rect x="92.125" y="163" width="8" height="30" rx="2" fill="none" stroke="#555555" stroke-width="1"/><rect x="396.625" y="203" width="8" height="30" rx="2" fill="#ffffff"/><line x1="406.625" y1="222.8" x2="546.875" y2="222.8" stroke="#333333" stroke-width="1.5" marker-end="url(#arr)"/><rect x="417.35" y="201.7" width="118.80000000000001" height="15" fill="#ffffff" rx="2"/><text x="476.75" y="209.2" text-anchor="middle" dominant-baseline="central" font-size="11" fill="#333333">postItem(newItem)</text><rect x="396.625" y="203" width="8" height="30" rx="2" fill="none" stroke="#555555" stroke-width="1"/><rect x="548.875" y="243" width="8" height="30" rx="2" fill="#ffffff"/><line x1="558.875" y1="262.8" x2="699.125" y2="262.8" stroke="#333333" stroke-width="1.5" marker-end="url(#arr)"/><rect x="528" y="241.7" width="202" height="15" fill="#ffffff" rx="2"/><text x="629" y="249.2" text-anchor="middle" dominant-baseline="central" font-size="11" fill="#333333">POST /api/items + Bearer token</text><rect x="548.875" y="243" width="8" height="30" rx="2" fill="none" stroke="#555555" stroke-width="1"/><rect x="701.125" y="283" width="8" height="30" rx="2" fill="#ffffff"/><line x1="711.125" y1="302.8" x2="851.375" y2="302.8" stroke="#333333" stroke-width="1.5" marker-end="url(#arr)"/><rect x="731.45" y="281.7" width="99.60000000000001" height="15" fill="#ffffff" rx="2"/><text x="781.25" y="289.2" text-anchor="middle" dominant-baseline="central" font-size="11" fill="#333333">authorizeAdmin</text><rect x="701.125" y="283" width="8" height="30" rx="2" fill="none" stroke="#555555" stroke-width="1"/><rect x="853.375" y="323" width="8" height="44" rx="2" fill="#ffffff"/><path d="M857.375 328.8 L885.375 328.8 L885.375 361.2 L857.375 361.2" fill="none" stroke="#333333" stroke-width="1.5" marker-end="url(#arr)"/><text font-size="11" fill="#333333">
          <tspan x="891.375" y="336.9" dominant-baseline="central">verify token</tspan>
          <tspan x="891.375" y="353.1" dominant-baseline="central">+ isAdmin flag</tspan>
        </text><rect x="853.375" y="323" width="8" height="44" rx="2" fill="none" stroke="#555555" stroke-width="1"/><rect x="853.375" y="377" width="8" height="30" rx="2" fill="#ffffff"/><line x1="863.375" y1="396.8" x2="1003.625" y2="396.8" stroke="#333333" stroke-width="1.5" marker-end="url(#arr)"/><rect x="909.3" y="375.7" width="48.400000000000006" height="15" fill="#ffffff" rx="2"/><text x="933.5" y="383.2" text-anchor="middle" dominant-baseline="central" font-size="11" fill="#333333">next()</text><rect x="853.375" y="377" width="8" height="30" rx="2" fill="none" stroke="#555555" stroke-width="1"/><rect x="1005.625" y="417" width="8" height="30" rx="2" fill="#ffffff"/><line x1="1015.625" y1="436.8" x2="1155.875" y2="436.8" stroke="#333333" stroke-width="1.5" marker-end="url(#arr)"/><rect x="1007.15" y="415.7" width="157.20000000000002" height="15" fill="#ffffff" rx="2"/><text x="1085.75" y="423.2" text-anchor="middle" dominant-baseline="central" font-size="11" fill="#333333">inventory_item.insert()</text><rect x="1005.625" y="417" width="8" height="30" rx="2" fill="none" stroke="#555555" stroke-width="1"/><rect x="1157.875" y="457" width="8" height="30" rx="2" fill="#ffffff"/><line x1="1155.875" y1="476.8" x2="1015.625" y2="476.8" stroke="#333333" stroke-width="1.5" stroke-dasharray="7 4" marker-end="url(#arr)"/><rect x="1035.95" y="455.7" width="99.60000000000001" height="15" fill="#ffffff" rx="2"/><text x="1085.75" y="463.2" text-anchor="middle" dominant-baseline="central" font-size="11" fill="#333333">saved item doc</text><rect x="1157.875" y="457" width="8" height="30" rx="2" fill="none" stroke="#555555" stroke-width="1"/><rect x="24" y="494" width="1210" height="24" rx="3" fill="#fafafa" stroke="#aaaaaa" stroke-width="1" stroke-dasharray="4 3"/><text x="629" y="505" text-anchor="middle" dominant-baseline="central" font-size="11" fill="#666666" font-style="italic">Auto-create initial transaction record for quantity history</text><rect x="1005.625" y="527" width="8" height="30" rx="2" fill="#ffffff"/><line x1="1015.625" y1="546.8" x2="1155.875" y2="546.8" stroke="#333333" stroke-width="1.5" marker-end="url(#arr)"/><rect x="952.75" y="525.7" width="266" height="15" fill="#ffffff" rx="2"/><text x="1085.75" y="533.2" text-anchor="middle" dominant-baseline="central" font-size="11" fill="#333333">transaction.insert({ itemId, quantity })</text><rect x="1005.625" y="527" width="8" height="30" rx="2" fill="none" stroke="#555555" stroke-width="1"/><rect x="1157.875" y="567" width="8" height="30" rx="2" fill="#ffffff"/><line x1="1155.875" y1="586.8" x2="1015.625" y2="586.8" stroke="#333333" stroke-width="1.5" stroke-dasharray="7 4" marker-end="url(#arr)"/><rect x="1026.35" y="565.7" width="118.80000000000001" height="15" fill="#ffffff" rx="2"/><text x="1085.75" y="573.2" text-anchor="middle" dominant-baseline="central" font-size="11" fill="#333333">saved transaction</text><rect x="1157.875" y="567" width="8" height="30" rx="2" fill="none" stroke="#555555" stroke-width="1"/><rect x="1005.625" y="607" width="8" height="30" rx="2" fill="#ffffff"/><line x1="1003.625" y1="626.8" x2="711.125" y2="626.8" stroke="#333333" stroke-width="1.5" stroke-dasharray="7 4" marker-end="url(#arr)"/><rect x="813.975" y="605.7" width="86.80000000000001" height="15" fill="#ffffff" rx="2"/><text x="857.375" y="613.2" text-anchor="middle" dominant-baseline="central" font-size="11" fill="#333333">201 item doc</text><rect x="1005.625" y="607" width="8" height="30" rx="2" fill="none" stroke="#555555" stroke-width="1"/><rect x="701.125" y="647" width="8" height="30" rx="2" fill="#ffffff"/><line x1="699.125" y1="666.8" x2="558.875" y2="666.8" stroke="#333333" stroke-width="1.5" stroke-dasharray="7 4" marker-end="url(#arr)"/><rect x="585.6" y="645.7" width="86.80000000000001" height="15" fill="#ffffff" rx="2"/><text x="629" y="653.2" text-anchor="middle" dominant-baseline="central" font-size="11" fill="#333333">201 item doc</text><rect x="701.125" y="647" width="8" height="30" rx="2" fill="none" stroke="#555555" stroke-width="1"/><rect x="548.875" y="687" width="8" height="30" rx="2" fill="#ffffff"/><line x1="546.875" y1="706.8" x2="406.625" y2="706.8" stroke="#333333" stroke-width="1.5" stroke-dasharray="7 4" marker-end="url(#arr)"/><rect x="446.15" y="685.7" width="61.2" height="15" fill="#ffffff" rx="2"/><text x="476.75" y="693.2" text-anchor="middle" dominant-baseline="central" font-size="11" fill="#333333">item doc</text><rect x="548.875" y="687" width="8" height="30" rx="2" fill="none" stroke="#555555" stroke-width="1"/><rect x="396.625" y="727" width="8" height="30" rx="2" fill="#ffffff"/><line x1="394.625" y1="746.8" x2="254.375" y2="746.8" stroke="#333333" stroke-width="1.5" marker-end="url(#arr)"/><rect x="249.1" y="725.7" width="150.8" height="15" fill="#ffffff" rx="2"/><text x="324.5" y="733.2" text-anchor="middle" dominant-baseline="central" font-size="11" fill="#333333">onSave() — close modal</text><rect x="396.625" y="727" width="8" height="30" rx="2" fill="none" stroke="#555555" stroke-width="1"/><rect x="244.375" y="767" width="8" height="44" rx="2" fill="#ffffff"/><path d="M248.375 772.8 L276.375 772.8 L276.375 805.2 L248.375 805.2" fill="none" stroke="#333333" stroke-width="1.5" marker-end="url(#arr)"/><text font-size="11" fill="#333333">
          <tspan x="282.375" y="780.9" dominant-baseline="central">getItems() —</tspan>
          <tspan x="282.375" y="797.1" dominant-baseline="central">refresh list</tspan>
        </text><rect x="244.375" y="767" width="8" height="44" rx="2" fill="none" stroke="#555555" stroke-width="1"/><rect x="24" y="818" width="1210" height="24" rx="3" fill="#fafafa" stroke="#aaaaaa" stroke-width="1" stroke-dasharray="4 3"/><text x="629" y="829" text-anchor="middle" dominant-baseline="central" font-size="11" fill="#666666" font-style="italic">Supabase Realtime → SSE inventory_change event to Dashboard listeners</text><rect x="26.125" y="874" width="140" height="38" rx="5" fill="#f0f0f0" stroke="#555555" stroke-width="1"/><text x="96.125" y="893" text-anchor="middle" dominant-baseline="central" font-size="11" font-weight="600" fill="#1a1a1a">Admin</text><rect x="178.375" y="874" width="140" height="38" rx="5" fill="#f0f0f0" stroke="#555555" stroke-width="1"/><text x="248.375" y="893" text-anchor="middle" dominant-baseline="central" font-size="11" font-weight="600" fill="#1a1a1a">ManageInventory.tsx</text><rect x="330.625" y="874" width="140" height="38" rx="5" fill="#f0f0f0" stroke="#555555" stroke-width="1"/><text x="400.625" y="893" text-anchor="middle" dominant-baseline="central" font-size="11" font-weight="600" fill="#1a1a1a">AddItemModal.tsx</text><rect x="482.875" y="874" width="140" height="38" rx="5" fill="#f0f0f0" stroke="#555555" stroke-width="1"/><text x="552.875" y="893" text-anchor="middle" dominant-baseline="central" font-size="11" font-weight="600" fill="#1a1a1a">item_service.ts</text><rect x="635.125" y="874" width="140" height="38" rx="5" fill="#f0f0f0" stroke="#555555" stroke-width="1"/><text x="705.125" y="893" text-anchor="middle" dominant-baseline="central" font-size="11" font-weight="600" fill="#1a1a1a">server.ts</text><rect x="787.375" y="874" width="140" height="38" rx="5" fill="#f0f0f0" stroke="#555555" stroke-width="1"/><text x="857.375" y="893" text-anchor="middle" dominant-baseline="central" font-size="11" font-weight="600" fill="#1a1a1a">auth middleware</text><rect x="939.625" y="874" width="140" height="38" rx="5" fill="#f0f0f0" stroke="#555555" stroke-width="1"/><text x="1009.625" y="893" text-anchor="middle" dominant-baseline="central" font-size="11" font-weight="600" fill="#1a1a1a">itemRouter.ts</text><rect x="1091.875" y="874" width="140" height="38" rx="5" fill="#f0f0f0" stroke="#555555" stroke-width="1"/><text x="1161.875" y="893" text-anchor="middle" dominant-baseline="central" font-size="11" font-weight="600" fill="#1a1a1a">Supabase</text></svg>