<svg xmlns="http://www.w3.org/2000/svg" width="1258" height="882" style="display:block;font-family:-apple-system,BlinkMacSystemFont,'Segoe UI',Roboto,sans-serif"><defs>
    <marker id="arr" viewBox="0 0 12 12" refX="10" refY="6" markerWidth="8" markerHeight="8" orient="auto-start-reverse">
      <path d="M1 1L10 6L1 11" fill="none" stroke="#333333" stroke-width="1.8" stroke-linecap="round" stroke-linejoin="round"/>
    </marker>
  </defs><rect width="1258" height="882" fill="#ffffff"/><rect x="26.125" y="16" width="140" height="38" rx="5" fill="#f0f0f0" stroke="#555555" stroke-width="1"/><text x="96.125" y="35" text-anchor="middle" dominant-baseline="central" font-size="11" font-weight="600" fill="#1a1a1a">Admin</text><rect x="178.375" y="16" width="140" height="38" rx="5" fill="#f0f0f0" stroke="#555555" stroke-width="1"/><text x="248.375" y="35" text-anchor="middle" dominant-baseline="central" font-size="11" font-weight="600" fill="#1a1a1a">MailingList.tsx</text><rect x="330.625" y="16" width="140" height="38" rx="5" fill="#f0f0f0" stroke="#555555" stroke-width="1"/><text text-anchor="middle" font-size="11" font-weight="600" fill="#1a1a1a">
        <tspan x="400.625" y="28" dominant-baseline="central">DeleteConfirmationMo</tspan>
        <tspan x="400.625" y="42" dominant-baseline="central">dal.tsx</tspan>
      </text><rect x="482.875" y="16" width="140" height="38" rx="5" fill="#f0f0f0" stroke="#555555" stroke-width="1"/><text text-anchor="middle" font-size="11" font-weight="600" fill="#1a1a1a">
        <tspan x="552.875" y="28" dominant-baseline="central">emailRecipient_servi</tspan>
        <tspan x="552.875" y="42" dominant-baseline="central">ce.ts</tspan>
      </text><rect x="635.125" y="16" width="140" height="38" rx="5" fill="#f0f0f0" stroke="#555555" stroke-width="1"/><text x="705.125" y="35" text-anchor="middle" dominant-baseline="central" font-size="11" font-weight="600" fill="#1a1a1a">server.ts</text><rect x="787.375" y="16" width="140" height="38" rx="5" fill="#f0f0f0" stroke="#555555" stroke-width="1"/><text x="857.375" y="35" text-anchor="middle" dominant-baseline="central" font-size="11" font-weight="600" fill="#1a1a1a">auth middleware</text><rect x="939.625" y="16" width="140" height="38" rx="5" fill="#f0f0f0" stroke="#555555" stroke-width="1"/><text x="1009.625" y="35" text-anchor="middle" dominant-baseline="central" font-size="11" font-weight="600" fill="#1a1a1a">emailRouter.ts</text><rect x="1091.875" y="16" width="140" height="38" rx="5" fill="#f0f0f0" stroke="#555555" stroke-width="1"/><text x="1161.875" y="35" text-anchor="middle" dominant-baseline="central" font-size="11" font-weight="600" fill="#1a1a1a">Supabase</text><line x1="96.125" y1="54" x2="96.125" y2="824" stroke="#aaaaaa" stroke-width="1" stroke-dasharray="5 4"/><line x1="248.375" y1="54" x2="248.375" y2="824" stroke="#aaaaaa" stroke-width="1" stroke-dasharray="5 4"/><line x1="400.625" y1="54" x2="400.625" y2="824" stroke="#aaaaaa" stroke-width="1" stroke-dasharray="5 4"/><line x1="552.875" y1="54" x2="552.875" y2="824" stroke="#aaaaaa" stroke-width="1" stroke-dasharray="5 4"/><line x1="705.125" y1="54" x2="705.125" y2="824" stroke="#aaaaaa" stroke-width="1" stroke-dasharray="5 4"/><line x1="857.375" y1="54" x2="857.375" y2="824" stroke="#aaaaaa" stroke-width="1" stroke-dasharray="5 4"/><line x1="1009.625" y1="54" x2="1009.625" y2="824" stroke="#aaaaaa" stroke-width="1" stroke-dasharray="5 4"/><line x1="1161.875" y1="54" x2="1161.875" y2="824" stroke="#aaaaaa" stroke-width="1" stroke-dasharray="5 4"/><rect x="92.125" y="83" width="8" height="30" rx="2" fill="#ffffff"/><line x1="102.125" y1="102.8" x2="242.375" y2="102.8" stroke="#333333" stroke-width="1.5" marker-end="url(#arr)"/><rect x="74.44999999999999" y="81.7" width="195.60000000000002" height="15" fill="#ffffff" rx="2"/><text x="172.25" y="89.2" text-anchor="middle" dominant-baseline="central" font-size="11" fill="#333333">Click trash icon on email row</text><rect x="92.125" y="83" width="8" height="30" rx="2" fill="none" stroke="#555555" stroke-width="1"/><rect x="244.375" y="123" width="8" height="44" rx="2" fill="#ffffff"/><path d="M248.375 128.8 L276.375 128.8 L276.375 161.2 L248.375 161.2" fill="none" stroke="#333333" stroke-width="1.5" marker-end="url(#arr)"/><text font-size="11" fill="#333333">
          <tspan x="282.375" y="136.9" dominant-baseline="central">setEmailToDelet</tspan>
          <tspan x="282.375" y="153.1" dominant-baseline="central">e(email)</tspan>
        </text><rect x="244.375" y="123" width="8" height="44" rx="2" fill="none" stroke="#555555" stroke-width="1"/><rect x="244.375" y="177" width="8" height="30" rx="2" fill="#ffffff"/><line x1="254.375" y1="196.8" x2="394.625" y2="196.8" stroke="#333333" stroke-width="1.5" marker-end="url(#arr)"/><rect x="245.89999999999998" y="175.7" width="157.20000000000002" height="15" fill="#ffffff" rx="2"/><text x="324.5" y="183.2" text-anchor="middle" dominant-baseline="central" font-size="11" fill="#333333">Show confirmation modal</text><rect x="244.375" y="177" width="8" height="30" rx="2" fill="none" stroke="#555555" stroke-width="1"/><rect x="92.125" y="217" width="8" height="30" rx="2" fill="#ffffff"/><line x1="102.125" y1="236.8" x2="394.625" y2="236.8" stroke="#333333" stroke-width="1.5" marker-end="url(#arr)"/><rect x="198.575" y="215.7" width="99.60000000000001" height="15" fill="#ffffff" rx="2"/><text x="248.375" y="223.2" text-anchor="middle" dominant-baseline="central" font-size="11" fill="#333333">Confirm delete</text><rect x="92.125" y="217" width="8" height="30" rx="2" fill="none" stroke="#555555" stroke-width="1"/><rect x="396.625" y="257" width="8" height="30" rx="2" fill="#ffffff"/><line x1="394.625" y1="276.8" x2="254.375" y2="276.8" stroke="#333333" stroke-width="1.5" stroke-dasharray="7 4" marker-end="url(#arr)"/><rect x="284.3" y="255.7" width="80.4" height="15" fill="#ffffff" rx="2"/><text x="324.5" y="263.2" text-anchor="middle" dominant-baseline="central" font-size="11" fill="#333333">onConfirm()</text><rect x="396.625" y="257" width="8" height="30" rx="2" fill="none" stroke="#555555" stroke-width="1"/><rect x="244.375" y="297" width="8" height="30" rx="2" fill="#ffffff"/><line x1="254.375" y1="316.8" x2="546.875" y2="316.8" stroke="#333333" stroke-width="1.5" marker-end="url(#arr)"/><rect x="338.025" y="295.7" width="125.2" height="15" fill="#ffffff" rx="2"/><text x="400.625" y="303.2" text-anchor="middle" dominant-baseline="central" font-size="11" fill="#333333">deleteEmail(email)</text><rect x="244.375" y="297" width="8" height="30" rx="2" fill="none" stroke="#555555" stroke-width="1"/><rect x="548.875" y="337" width="8" height="30" rx="2" fill="#ffffff"/><line x1="558.875" y1="356.8" x2="699.125" y2="356.8" stroke="#333333" stroke-width="1.5" marker-end="url(#arr)"/><rect x="521.6" y="335.7" width="214.8" height="15" fill="#ffffff" rx="2"/><text x="629" y="343.2" text-anchor="middle" dominant-baseline="central" font-size="11" fill="#333333">DELETE /api/notifications/:email</text><rect x="548.875" y="337" width="8" height="30" rx="2" fill="none" stroke="#555555" stroke-width="1"/><rect x="701.125" y="377" width="8" height="30" rx="2" fill="#ffffff"/><line x1="711.125" y1="396.8" x2="851.375" y2="396.8" stroke="#333333" stroke-width="1.5" marker-end="url(#arr)"/><rect x="731.45" y="375.7" width="99.60000000000001" height="15" fill="#ffffff" rx="2"/><text x="781.25" y="383.2" text-anchor="middle" dominant-baseline="central" font-size="11" fill="#333333">authorizeAdmin</text><rect x="701.125" y="377" width="8" height="30" rx="2" fill="none" stroke="#555555" stroke-width="1"/><rect x="853.375" y="417" width="8" height="44" rx="2" fill="#ffffff"/><path d="M857.375 422.8 L885.375 422.8 L885.375 455.2 L857.375 455.2" fill="none" stroke="#333333" stroke-width="1.5" marker-end="url(#arr)"/><text font-size="11" fill="#333333">
          <tspan x="891.375" y="430.9" dominant-baseline="central">verify token</tspan>
          <tspan x="891.375" y="447.1" dominant-baseline="central">+ isAdmin flag</tspan>
        </text><rect x="853.375" y="417" width="8" height="44" rx="2" fill="none" stroke="#555555" stroke-width="1"/><rect x="853.375" y="471" width="8" height="30" rx="2" fill="#ffffff"/><line x1="863.375" y1="490.8" x2="1003.625" y2="490.8" stroke="#333333" stroke-width="1.5" marker-end="url(#arr)"/><rect x="909.3" y="469.7" width="48.400000000000006" height="15" fill="#ffffff" rx="2"/><text x="933.5" y="477.2" text-anchor="middle" dominant-baseline="central" font-size="11" fill="#333333">next()</text><rect x="853.375" y="471" width="8" height="30" rx="2" fill="none" stroke="#555555" stroke-width="1"/><rect x="1005.625" y="511" width="8" height="30" rx="2" fill="#ffffff"/><line x1="1015.625" y1="530.8" x2="1155.875" y2="530.8" stroke="#333333" stroke-width="1.5" marker-end="url(#arr)"/><rect x="975.15" y="509.70000000000005" width="221.20000000000002" height="15" fill="#ffffff" rx="2"/><text x="1085.75" y="517.2" text-anchor="middle" dominant-baseline="central" font-size="11" fill="#333333">email_recipient.delete({ email })</text><rect x="1005.625" y="511" width="8" height="30" rx="2" fill="none" stroke="#555555" stroke-width="1"/><rect x="1157.875" y="551" width="8" height="30" rx="2" fill="#ffffff"/><line x1="1155.875" y1="570.8" x2="1015.625" y2="570.8" stroke="#333333" stroke-width="1.5" stroke-dasharray="7 4" marker-end="url(#arr)"/><rect x="1058.35" y="549.7" width="54.800000000000004" height="15" fill="#ffffff" rx="2"/><text x="1085.75" y="557.2" text-anchor="middle" dominant-baseline="central" font-size="11" fill="#333333">success</text><rect x="1157.875" y="551" width="8" height="30" rx="2" fill="none" stroke="#555555" stroke-width="1"/><rect x="1005.625" y="591" width="8" height="30" rx="2" fill="#ffffff"/><line x1="1003.625" y1="610.8" x2="711.125" y2="610.8" stroke="#333333" stroke-width="1.5" stroke-dasharray="7 4" marker-end="url(#arr)"/><rect x="817.175" y="589.7" width="80.4" height="15" fill="#ffffff" rx="2"/><text x="857.375" y="597.2" text-anchor="middle" dominant-baseline="central" font-size="11" fill="#333333">200 success</text><rect x="1005.625" y="591" width="8" height="30" rx="2" fill="none" stroke="#555555" stroke-width="1"/><rect x="701.125" y="631" width="8" height="30" rx="2" fill="#ffffff"/><line x1="699.125" y1="650.8" x2="558.875" y2="650.8" stroke="#333333" stroke-width="1.5" stroke-dasharray="7 4" marker-end="url(#arr)"/><rect x="588.8" y="629.7" width="80.4" height="15" fill="#ffffff" rx="2"/><text x="629" y="637.2" text-anchor="middle" dominant-baseline="central" font-size="11" fill="#333333">200 success</text><rect x="701.125" y="631" width="8" height="30" rx="2" fill="none" stroke="#555555" stroke-width="1"/><rect x="548.875" y="671" width="8" height="30" rx="2" fill="#ffffff"/><line x1="546.875" y1="690.8" x2="254.375" y2="690.8" stroke="#333333" stroke-width="1.5" stroke-dasharray="7 4" marker-end="url(#arr)"/><rect x="373.225" y="669.7" width="54.800000000000004" height="15" fill="#ffffff" rx="2"/><text x="400.625" y="677.2" text-anchor="middle" dominant-baseline="central" font-size="11" fill="#333333">success</text><rect x="548.875" y="671" width="8" height="30" rx="2" fill="none" stroke="#555555" stroke-width="1"/><rect x="244.375" y="711" width="8" height="44" rx="2" fill="#ffffff"/><path d="M248.375 716.8 L276.375 716.8 L276.375 749.2 L248.375 749.2" fill="none" stroke="#333333" stroke-width="1.5" marker-end="url(#arr)"/><text font-size="11" fill="#333333">
          <tspan x="282.375" y="724.9" dominant-baseline="central">Remove from</tspan>
          <tspan x="282.375" y="741.1" dominant-baseline="central">emails state</tspan>
        </text><rect x="244.375" y="711" width="8" height="44" rx="2" fill="none" stroke="#555555" stroke-width="1"/><rect x="244.375" y="765" width="8" height="30" rx="2" fill="#ffffff"/><line x1="242.375" y1="784.8" x2="102.125" y2="784.8" stroke="#333333" stroke-width="1.5" marker-end="url(#arr)"/><rect x="80.85" y="763.7" width="182.8" height="15" fill="#ffffff" rx="2"/><text x="172.25" y="771.2" text-anchor="middle" dominant-baseline="central" font-size="11" fill="#333333">Show updated recipient list</text><rect x="244.375" y="765" width="8" height="30" rx="2" fill="none" stroke="#555555" stroke-width="1"/><rect x="26.125" y="828" width="140" height="38" rx="5" fill="#f0f0f0" stroke="#555555" stroke-width="1"/><text x="96.125" y="847" text-anchor="middle" dominant-baseline="central" font-size="11" font-weight="600" fill="#1a1a1a">Admin</text><rect x="178.375" y="828" width="140" height="38" rx="5" fill="#f0f0f0" stroke="#555555" stroke-width="1"/><text x="248.375" y="847" text-anchor="middle" dominant-baseline="central" font-size="11" font-weight="600" fill="#1a1a1a">MailingList.tsx</text><rect x="330.625" y="828" width="140" height="38" rx="5" fill="#f0f0f0" stroke="#555555" stroke-width="1"/><text text-anchor="middle" font-size="11" font-weight="600" fill="#1a1a1a">
        <tspan x="400.625" y="840" dominant-baseline="central">DeleteConfirmationMo</tspan>
        <tspan x="400.625" y="854" dominant-baseline="central">dal.tsx</tspan>
      </text><rect x="482.875" y="828" width="140" height="38" rx="5" fill="#f0f0f0" stroke="#555555" stroke-width="1"/><text text-anchor="middle" font-size="11" font-weight="600" fill="#1a1a1a">
        <tspan x="552.875" y="840" dominant-baseline="central">emailRecipient_servi</tspan>
        <tspan x="552.875" y="854" dominant-baseline="central">ce.ts</tspan>
      </text><rect x="635.125" y="828" width="140" height="38" rx="5" fill="#f0f0f0" stroke="#555555" stroke-width="1"/><text x="705.125" y="847" text-anchor="middle" dominant-baseline="central" font-size="11" font-weight="600" fill="#1a1a1a">server.ts</text><rect x="787.375" y="828" width="140" height="38" rx="5" fill="#f0f0f0" stroke="#555555" stroke-width="1"/><text x="857.375" y="847" text-anchor="middle" dominant-baseline="central" font-size="11" font-weight="600" fill="#1a1a1a">auth middleware</text><rect x="939.625" y="828" width="140" height="38" rx="5" fill="#f0f0f0" stroke="#555555" stroke-width="1"/><text x="1009.625" y="847" text-anchor="middle" dominant-baseline="central" font-size="11" font-weight="600" fill="#1a1a1a">emailRouter.ts</text><rect x="1091.875" y="828" width="140" height="38" rx="5" fill="#f0f0f0" stroke="#555555" stroke-width="1"/><text x="1161.875" y="847" text-anchor="middle" dominant-baseline="central" font-size="11" font-weight="600" fill="#1a1a1a">Supabase</text></svg>