<svg xmlns="http://www.w3.org/2000/svg" width="1258" height="988" style="display:block;font-family:-apple-system,BlinkMacSystemFont,'Segoe UI',Roboto,sans-serif"><defs>
    <marker id="arr" viewBox="0 0 12 12" refX="10" refY="6" markerWidth="8" markerHeight="8" orient="auto-start-reverse">
      <path d="M1 1L10 6L1 11" fill="none" stroke="#333333" stroke-width="1.8" stroke-linecap="round" stroke-linejoin="round"/>
    </marker>
  </defs><rect width="1258" height="988" fill="#ffffff"/><rect x="26.125" y="16" width="140" height="38" rx="5" fill="#f0f0f0" stroke="#555555" stroke-width="1"/><text x="96.125" y="35" text-anchor="middle" dominant-baseline="central" font-size="11" font-weight="600" fill="#1a1a1a">User</text><rect x="178.375" y="16" width="140" height="38" rx="5" fill="#f0f0f0" stroke="#555555" stroke-width="1"/><text x="248.375" y="35" text-anchor="middle" dominant-baseline="central" font-size="11" font-weight="600" fill="#1a1a1a">ManageInventory.tsx</text><rect x="330.625" y="16" width="140" height="38" rx="5" fill="#f0f0f0" stroke="#555555" stroke-width="1"/><text x="400.625" y="35" text-anchor="middle" dominant-baseline="central" font-size="11" font-weight="600" fill="#1a1a1a">EditItemModal.tsx</text><rect x="482.875" y="16" width="140" height="38" rx="5" fill="#f0f0f0" stroke="#555555" stroke-width="1"/><text x="552.875" y="35" text-anchor="middle" dominant-baseline="central" font-size="11" font-weight="600" fill="#1a1a1a">item_service.ts</text><rect x="635.125" y="16" width="140" height="38" rx="5" fill="#f0f0f0" stroke="#555555" stroke-width="1"/><text x="705.125" y="35" text-anchor="middle" dominant-baseline="central" font-size="11" font-weight="600" fill="#1a1a1a">server.ts</text><rect x="787.375" y="16" width="140" height="38" rx="5" fill="#f0f0f0" stroke="#555555" stroke-width="1"/><text x="857.375" y="35" text-anchor="middle" dominant-baseline="central" font-size="11" font-weight="600" fill="#1a1a1a">auth middleware</text><rect x="939.625" y="16" width="140" height="38" rx="5" fill="#f0f0f0" stroke="#555555" stroke-width="1"/><text x="1009.625" y="35" text-anchor="middle" dominant-baseline="central" font-size="11" font-weight="600" fill="#1a1a1a">itemRouter.ts</text><rect x="1091.875" y="16" width="140" height="38" rx="5" fill="#f0f0f0" stroke="#555555" stroke-width="1"/><text x="1161.875" y="35" text-anchor="middle" dominant-baseline="central" font-size="11" font-weight="600" fill="#1a1a1a">Supabase</text><line x1="96.125" y1="54" x2="96.125" y2="930" stroke="#aaaaaa" stroke-width="1" stroke-dasharray="5 4"/><line x1="248.375" y1="54" x2="248.375" y2="930" stroke="#aaaaaa" stroke-width="1" stroke-dasharray="5 4"/><line x1="400.625" y1="54" x2="400.625" y2="930" stroke="#aaaaaa" stroke-width="1" stroke-dasharray="5 4"/><line x1="552.875" y1="54" x2="552.875" y2="930" stroke="#aaaaaa" stroke-width="1" stroke-dasharray="5 4"/><line x1="705.125" y1="54" x2="705.125" y2="930" stroke="#aaaaaa" stroke-width="1" stroke-dasharray="5 4"/><line x1="857.375" y1="54" x2="857.375" y2="930" stroke="#aaaaaa" stroke-width="1" stroke-dasharray="5 4"/><line x1="1009.625" y1="54" x2="1009.625" y2="930" stroke="#aaaaaa" stroke-width="1" stroke-dasharray="5 4"/><line x1="1161.875" y1="54" x2="1161.875" y2="930" stroke="#aaaaaa" stroke-width="1" stroke-dasharray="5 4"/><rect x="92.125" y="83" width="8" height="30" rx="2" fill="#ffffff"/><line x1="102.125" y1="102.8" x2="242.375" y2="102.8" stroke="#333333" stroke-width="1.5" marker-end="url(#arr)"/><rect x="48.849999999999994" y="81.7" width="246.8" height="15" fill="#ffffff" rx="2"/><text x="172.25" y="89.2" text-anchor="middle" dominant-baseline="central" font-size="11" fill="#333333">Click pencil icon (admin) or item row</text><rect x="92.125" y="83" width="8" height="30" rx="2" fill="none" stroke="#555555" stroke-width="1"/><rect x="24" y="120" width="1210" height="24" rx="3" fill="#fafafa" stroke="#aaaaaa" stroke-width="1" stroke-dasharray="4 3"/><text x="629" y="131" text-anchor="middle" dominant-baseline="central" font-size="11" fill="#666666" font-style="italic">[admin] EditItemModal — full edit | [non-admin] ItemDetailModal — qty only</text><rect x="244.375" y="153" width="8" height="30" rx="2" fill="#ffffff"/><line x1="254.375" y1="172.8" x2="394.625" y2="172.8" stroke="#333333" stroke-width="1.5" marker-end="url(#arr)"/><rect x="213.89999999999998" y="151.7" width="221.20000000000002" height="15" fill="#ffffff" rx="2"/><text x="324.5" y="159.2" text-anchor="middle" dominant-baseline="central" font-size="11" fill="#333333">Show modal with current item data</text><rect x="244.375" y="153" width="8" height="30" rx="2" fill="none" stroke="#555555" stroke-width="1"/><rect x="92.125" y="193" width="8" height="30" rx="2" fill="#ffffff"/><line x1="102.125" y1="212.8" x2="394.625" y2="212.8" stroke="#333333" stroke-width="1.5" marker-end="url(#arr)"/><rect x="179.375" y="191.7" width="138" height="15" fill="#ffffff" rx="2"/><text x="248.375" y="199.2" text-anchor="middle" dominant-baseline="central" font-size="11" fill="#333333">Edit fields + submit</text><rect x="92.125" y="193" width="8" height="30" rx="2" fill="none" stroke="#555555" stroke-width="1"/><rect x="396.625" y="233" width="8" height="30" rx="2" fill="#ffffff"/><line x1="406.625" y1="252.8" x2="546.875" y2="252.8" stroke="#333333" stroke-width="1.5" marker-end="url(#arr)"/><rect x="394.95" y="231.7" width="163.60000000000002" height="15" fill="#ffffff" rx="2"/><text x="476.75" y="239.2" text-anchor="middle" dominant-baseline="central" font-size="11" fill="#333333">putItem(id, updatedItem)</text><rect x="396.625" y="233" width="8" height="30" rx="2" fill="none" stroke="#555555" stroke-width="1"/><rect x="548.875" y="273" width="8" height="30" rx="2" fill="#ffffff"/><line x1="558.875" y1="292.8" x2="699.125" y2="292.8" stroke="#333333" stroke-width="1.5" marker-end="url(#arr)"/><rect x="518.4" y="271.7" width="221.20000000000002" height="15" fill="#ffffff" rx="2"/><text x="629" y="279.2" text-anchor="middle" dominant-baseline="central" font-size="11" fill="#333333">PUT /api/items/:id + Bearer token</text><rect x="548.875" y="273" width="8" height="30" rx="2" fill="none" stroke="#555555" stroke-width="1"/><rect x="701.125" y="313" width="8" height="30" rx="2" fill="#ffffff"/><line x1="711.125" y1="332.8" x2="851.375" y2="332.8" stroke="#333333" stroke-width="1.5" marker-end="url(#arr)"/><rect x="734.65" y="311.7" width="93.2" height="15" fill="#ffffff" rx="2"/><text x="781.25" y="319.2" text-anchor="middle" dominant-baseline="central" font-size="11" fill="#333333">authorizeUser</text><rect x="701.125" y="313" width="8" height="30" rx="2" fill="none" stroke="#555555" stroke-width="1"/><rect x="853.375" y="353" width="8" height="44" rx="2" fill="#ffffff"/><path d="M857.375 358.8 L885.375 358.8 L885.375 391.2 L857.375 391.2" fill="none" stroke="#333333" stroke-width="1.5" marker-end="url(#arr)"/><text font-size="11" fill="#333333">
          <tspan x="891.375" y="366.9" dominant-baseline="central">jwt.verify(toke</tspan>
          <tspan x="891.375" y="383.1" dominant-baseline="central">n)</tspan>
        </text><rect x="853.375" y="353" width="8" height="44" rx="2" fill="none" stroke="#555555" stroke-width="1"/><rect x="853.375" y="407" width="8" height="30" rx="2" fill="#ffffff"/><line x1="863.375" y1="426.8" x2="1003.625" y2="426.8" stroke="#333333" stroke-width="1.5" marker-end="url(#arr)"/><rect x="861.3" y="405.7" width="144.4" height="15" fill="#ffffff" rx="2"/><text x="933.5" y="413.2" text-anchor="middle" dominant-baseline="central" font-size="11" fill="#333333">next() — req.user set</text><rect x="853.375" y="407" width="8" height="30" rx="2" fill="none" stroke="#555555" stroke-width="1"/><rect x="1005.625" y="447" width="8" height="30" rx="2" fill="#ffffff"/><line x1="1015.625" y1="466.8" x2="1155.875" y2="466.8" stroke="#333333" stroke-width="1.5" marker-end="url(#arr)"/><rect x="987.95" y="445.7" width="195.60000000000002" height="15" fill="#ffffff" rx="2"/><text x="1085.75" y="453.2" text-anchor="middle" dominant-baseline="central" font-size="11" fill="#333333">inventory_item.update({ id })</text><rect x="1005.625" y="447" width="8" height="30" rx="2" fill="none" stroke="#555555" stroke-width="1"/><rect x="1157.875" y="487" width="8" height="30" rx="2" fill="#ffffff"/><line x1="1155.875" y1="506.8" x2="1015.625" y2="506.8" stroke="#333333" stroke-width="1.5" stroke-dasharray="7 4" marker-end="url(#arr)"/><rect x="1029.55" y="485.7" width="112.4" height="15" fill="#ffffff" rx="2"/><text x="1085.75" y="493.2" text-anchor="middle" dominant-baseline="central" font-size="11" fill="#333333">updated item doc</text><rect x="1157.875" y="487" width="8" height="30" rx="2" fill="none" stroke="#555555" stroke-width="1"/><rect x="24" y="524" width="1210" height="24" rx="3" fill="#fafafa" stroke="#aaaaaa" stroke-width="1" stroke-dasharray="4 3"/><text x="629" y="535" text-anchor="middle" dominant-baseline="central" font-size="11" fill="#666666" font-style="italic">Auto-create transaction record for new quantity</text><rect x="1005.625" y="557" width="8" height="30" rx="2" fill="#ffffff"/><line x1="1015.625" y1="576.8" x2="1155.875" y2="576.8" stroke="#333333" stroke-width="1.5" marker-end="url(#arr)"/><rect x="959.15" y="555.7" width="253.20000000000002" height="15" fill="#ffffff" rx="2"/><text x="1085.75" y="563.2" text-anchor="middle" dominant-baseline="central" font-size="11" fill="#333333">transaction.insert({ itemId, newQty })</text><rect x="1005.625" y="557" width="8" height="30" rx="2" fill="none" stroke="#555555" stroke-width="1"/><rect x="1157.875" y="597" width="8" height="30" rx="2" fill="#ffffff"/><line x1="1155.875" y1="616.8" x2="1015.625" y2="616.8" stroke="#333333" stroke-width="1.5" stroke-dasharray="7 4" marker-end="url(#arr)"/><rect x="1026.35" y="595.7" width="118.80000000000001" height="15" fill="#ffffff" rx="2"/><text x="1085.75" y="603.2" text-anchor="middle" dominant-baseline="central" font-size="11" fill="#333333">saved transaction</text><rect x="1157.875" y="597" width="8" height="30" rx="2" fill="none" stroke="#555555" stroke-width="1"/><rect x="24" y="634" width="1210" height="24" rx="3" fill="#fafafa" stroke="#aaaaaa" stroke-width="1" stroke-dasharray="4 3"/><text x="629" y="645" text-anchor="middle" dominant-baseline="central" font-size="11" fill="#666666" font-style="italic">If quantity &lt;= lowThreshold → send alert emails to subscribers</text><rect x="1005.625" y="667" width="8" height="30" rx="2" fill="#ffffff"/><line x1="1003.625" y1="686.8" x2="711.125" y2="686.8" stroke="#333333" stroke-width="1.5" stroke-dasharray="7 4" marker-end="url(#arr)"/><rect x="801.175" y="665.7" width="112.4" height="15" fill="#ffffff" rx="2"/><text x="857.375" y="673.2" text-anchor="middle" dominant-baseline="central" font-size="11" fill="#333333">200 updated item</text><rect x="1005.625" y="667" width="8" height="30" rx="2" fill="none" stroke="#555555" stroke-width="1"/><rect x="701.125" y="707" width="8" height="30" rx="2" fill="#ffffff"/><line x1="699.125" y1="726.8" x2="558.875" y2="726.8" stroke="#333333" stroke-width="1.5" stroke-dasharray="7 4" marker-end="url(#arr)"/><rect x="572.8" y="705.7" width="112.4" height="15" fill="#ffffff" rx="2"/><text x="629" y="713.2" text-anchor="middle" dominant-baseline="central" font-size="11" fill="#333333">200 updated item</text><rect x="701.125" y="707" width="8" height="30" rx="2" fill="none" stroke="#555555" stroke-width="1"/><rect x="548.875" y="747" width="8" height="30" rx="2" fill="#ffffff"/><line x1="546.875" y1="766.8" x2="406.625" y2="766.8" stroke="#333333" stroke-width="1.5" stroke-dasharray="7 4" marker-end="url(#arr)"/><rect x="433.35" y="745.7" width="86.80000000000001" height="15" fill="#ffffff" rx="2"/><text x="476.75" y="753.2" text-anchor="middle" dominant-baseline="central" font-size="11" fill="#333333">updated item</text><rect x="548.875" y="747" width="8" height="30" rx="2" fill="none" stroke="#555555" stroke-width="1"/><rect x="396.625" y="787" width="8" height="30" rx="2" fill="#ffffff"/><line x1="394.625" y1="806.8" x2="254.375" y2="806.8" stroke="#333333" stroke-width="1.5" marker-end="url(#arr)"/><rect x="249.1" y="785.7" width="150.8" height="15" fill="#ffffff" rx="2"/><text x="324.5" y="793.2" text-anchor="middle" dominant-baseline="central" font-size="11" fill="#333333">onSave() — close modal</text><rect x="396.625" y="787" width="8" height="30" rx="2" fill="none" stroke="#555555" stroke-width="1"/><rect x="244.375" y="827" width="8" height="44" rx="2" fill="#ffffff"/><path d="M248.375 832.8 L276.375 832.8 L276.375 865.2 L248.375 865.2" fill="none" stroke="#333333" stroke-width="1.5" marker-end="url(#arr)"/><text font-size="11" fill="#333333">
          <tspan x="282.375" y="840.9" dominant-baseline="central">getItems() —</tspan>
          <tspan x="282.375" y="857.1" dominant-baseline="central">refresh list</tspan>
        </text><rect x="244.375" y="827" width="8" height="44" rx="2" fill="none" stroke="#555555" stroke-width="1"/><rect x="24" y="878" width="1210" height="24" rx="3" fill="#fafafa" stroke="#aaaaaa" stroke-width="1" stroke-dasharray="4 3"/><text x="629" y="889" text-anchor="middle" dominant-baseline="central" font-size="11" fill="#666666" font-style="italic">Supabase Realtime → SSE inventory_change event to Dashboard listeners</text><rect x="26.125" y="934" width="140" height="38" rx="5" fill="#f0f0f0" stroke="#555555" stroke-width="1"/><text x="96.125" y="953" text-anchor="middle" dominant-baseline="central" font-size="11" font-weight="600" fill="#1a1a1a">User</text><rect x="178.375" y="934" width="140" height="38" rx="5" fill="#f0f0f0" stroke="#555555" stroke-width="1"/><text x="248.375" y="953" text-anchor="middle" dominant-baseline="central" font-size="11" font-weight="600" fill="#1a1a1a">ManageInventory.tsx</text><rect x="330.625" y="934" width="140" height="38" rx="5" fill="#f0f0f0" stroke="#555555" stroke-width="1"/><text x="400.625" y="953" text-anchor="middle" dominant-baseline="central" font-size="11" font-weight="600" fill="#1a1a1a">EditItemModal.tsx</text><rect x="482.875" y="934" width="140" height="38" rx="5" fill="#f0f0f0" stroke="#555555" stroke-width="1"/><text x="552.875" y="953" text-anchor="middle" dominant-baseline="central" font-size="11" font-weight="600" fill="#1a1a1a">item_service.ts</text><rect x="635.125" y="934" width="140" height="38" rx="5" fill="#f0f0f0" stroke="#555555" stroke-width="1"/><text x="705.125" y="953" text-anchor="middle" dominant-baseline="central" font-size="11" font-weight="600" fill="#1a1a1a">server.ts</text><rect x="787.375" y="934" width="140" height="38" rx="5" fill="#f0f0f0" stroke="#555555" stroke-width="1"/><text x="857.375" y="953" text-anchor="middle" dominant-baseline="central" font-size="11" font-weight="600" fill="#1a1a1a">auth middleware</text><rect x="939.625" y="934" width="140" height="38" rx="5" fill="#f0f0f0" stroke="#555555" stroke-width="1"/><text x="1009.625" y="953" text-anchor="middle" dominant-baseline="central" font-size="11" font-weight="600" fill="#1a1a1a">itemRouter.ts</text><rect x="1091.875" y="934" width="140" height="38" rx="5" fill="#f0f0f0" stroke="#555555" stroke-width="1"/><text x="1161.875" y="953" text-anchor="middle" dominant-baseline="central" font-size="11" font-weight="600" fill="#1a1a1a">Supabase</text></svg>