<svg xmlns="http://www.w3.org/2000/svg" width="1258" height="882" style="display:block;font-family:-apple-system,BlinkMacSystemFont,'Segoe UI',Roboto,sans-serif"><defs>
    <marker id="arr" viewBox="0 0 12 12" refX="10" refY="6" markerWidth="8" markerHeight="8" orient="auto-start-reverse">
      <path d="M1 1L10 6L1 11" fill="none" stroke="#333333" stroke-width="1.8" stroke-linecap="round" stroke-linejoin="round"/>
    </marker>
  </defs><rect width="1258" height="882" fill="#ffffff"/><rect x="26.125" y="16" width="140" height="38" rx="5" fill="#f0f0f0" stroke="#555555" stroke-width="1"/><text x="96.125" y="35" text-anchor="middle" dominant-baseline="central" font-size="11" font-weight="600" fill="#1a1a1a">User</text><rect x="178.375" y="16" width="140" height="38" rx="5" fill="#f0f0f0" stroke="#555555" stroke-width="1"/><text x="248.375" y="35" text-anchor="middle" dominant-baseline="central" font-size="11" font-weight="600" fill="#1a1a1a">StockLevelsCard.tsx</text><rect x="330.625" y="16" width="140" height="38" rx="5" fill="#f0f0f0" stroke="#555555" stroke-width="1"/><text x="400.625" y="35" text-anchor="middle" dominant-baseline="central" font-size="11" font-weight="600" fill="#1a1a1a">ExportDataModal.tsx</text><rect x="482.875" y="16" width="140" height="38" rx="5" fill="#f0f0f0" stroke="#555555" stroke-width="1"/><text text-anchor="middle" font-size="11" font-weight="600" fill="#1a1a1a">
        <tspan x="552.875" y="28" dominant-baseline="central">transaction_service.</tspan>
        <tspan x="552.875" y="42" dominant-baseline="central">ts</tspan>
      </text><rect x="635.125" y="16" width="140" height="38" rx="5" fill="#f0f0f0" stroke="#555555" stroke-width="1"/><text x="705.125" y="35" text-anchor="middle" dominant-baseline="central" font-size="11" font-weight="600" fill="#1a1a1a">server.ts</text><rect x="787.375" y="16" width="140" height="38" rx="5" fill="#f0f0f0" stroke="#555555" stroke-width="1"/><text x="857.375" y="35" text-anchor="middle" dominant-baseline="central" font-size="11" font-weight="600" fill="#1a1a1a">auth middleware</text><rect x="939.625" y="16" width="140" height="38" rx="5" fill="#f0f0f0" stroke="#555555" stroke-width="1"/><text x="1009.625" y="35" text-anchor="middle" dominant-baseline="central" font-size="11" font-weight="600" fill="#1a1a1a">transactionRouter.ts</text><rect x="1091.875" y="16" width="140" height="38" rx="5" fill="#f0f0f0" stroke="#555555" stroke-width="1"/><text x="1161.875" y="35" text-anchor="middle" dominant-baseline="central" font-size="11" font-weight="600" fill="#1a1a1a">Supabase</text><line x1="96.125" y1="54" x2="96.125" y2="824" stroke="#aaaaaa" stroke-width="1" stroke-dasharray="5 4"/><line x1="248.375" y1="54" x2="248.375" y2="824" stroke="#aaaaaa" stroke-width="1" stroke-dasharray="5 4"/><line x1="400.625" y1="54" x2="400.625" y2="824" stroke="#aaaaaa" stroke-width="1" stroke-dasharray="5 4"/><line x1="552.875" y1="54" x2="552.875" y2="824" stroke="#aaaaaa" stroke-width="1" stroke-dasharray="5 4"/><line x1="705.125" y1="54" x2="705.125" y2="824" stroke="#aaaaaa" stroke-width="1" stroke-dasharray="5 4"/><line x1="857.375" y1="54" x2="857.375" y2="824" stroke="#aaaaaa" stroke-width="1" stroke-dasharray="5 4"/><line x1="1009.625" y1="54" x2="1009.625" y2="824" stroke="#aaaaaa" stroke-width="1" stroke-dasharray="5 4"/><line x1="1161.875" y1="54" x2="1161.875" y2="824" stroke="#aaaaaa" stroke-width="1" stroke-dasharray="5 4"/><rect x="92.125" y="83" width="8" height="30" rx="2" fill="#ffffff"/><line x1="102.125" y1="102.8" x2="242.375" y2="102.8" stroke="#333333" stroke-width="1.5" marker-end="url(#arr)"/><rect x="64.85" y="81.7" width="214.8" height="15" fill="#ffffff" rx="2"/><text x="172.25" y="89.2" text-anchor="middle" dominant-baseline="central" font-size="11" fill="#333333">Click download icon on Dashboard</text><rect x="92.125" y="83" width="8" height="30" rx="2" fill="none" stroke="#555555" stroke-width="1"/><rect x="244.375" y="123" width="8" height="30" rx="2" fill="#ffffff"/><line x1="254.375" y1="142.8" x2="394.625" y2="142.8" stroke="#333333" stroke-width="1.5" marker-end="url(#arr)"/><rect x="265.1" y="121.69999999999999" width="118.80000000000001" height="15" fill="#ffffff" rx="2"/><text x="324.5" y="129.2" text-anchor="middle" dominant-baseline="central" font-size="11" fill="#333333">Show export modal</text><rect x="244.375" y="123" width="8" height="30" rx="2" fill="none" stroke="#555555" stroke-width="1"/><rect x="396.625" y="163" width="8" height="30" rx="2" fill="#ffffff"/><line x1="406.625" y1="182.8" x2="546.875" y2="182.8" stroke="#333333" stroke-width="1.5" marker-end="url(#arr)"/><rect x="417.35" y="161.7" width="118.80000000000001" height="15" fill="#ffffff" rx="2"/><text x="476.75" y="169.2" text-anchor="middle" dominant-baseline="central" font-size="11" fill="#333333">getTransactions()</text><rect x="396.625" y="163" width="8" height="30" rx="2" fill="none" stroke="#555555" stroke-width="1"/><rect x="548.875" y="203" width="8" height="30" rx="2" fill="#ffffff"/><line x1="558.875" y1="222.8" x2="699.125" y2="222.8" stroke="#333333" stroke-width="1.5" marker-end="url(#arr)"/><rect x="508.8" y="201.7" width="240.4" height="15" fill="#ffffff" rx="2"/><text x="629" y="209.2" text-anchor="middle" dominant-baseline="central" font-size="11" fill="#333333">GET /api/transactions + Bearer token</text><rect x="548.875" y="203" width="8" height="30" rx="2" fill="none" stroke="#555555" stroke-width="1"/><rect x="701.125" y="243" width="8" height="30" rx="2" fill="#ffffff"/><line x1="711.125" y1="262.8" x2="851.375" y2="262.8" stroke="#333333" stroke-width="1.5" marker-end="url(#arr)"/><rect x="734.65" y="241.7" width="93.2" height="15" fill="#ffffff" rx="2"/><text x="781.25" y="249.2" text-anchor="middle" dominant-baseline="central" font-size="11" fill="#333333">authorizeUser</text><rect x="701.125" y="243" width="8" height="30" rx="2" fill="none" stroke="#555555" stroke-width="1"/><rect x="853.375" y="283" width="8" height="44" rx="2" fill="#ffffff"/><path d="M857.375 288.8 L885.375 288.8 L885.375 321.2 L857.375 321.2" fill="none" stroke="#333333" stroke-width="1.5" marker-end="url(#arr)"/><text font-size="11" fill="#333333">
          <tspan x="891.375" y="296.9" dominant-baseline="central">jwt.verify(toke</tspan>
          <tspan x="891.375" y="313.1" dominant-baseline="central">n)</tspan>
        </text><rect x="853.375" y="283" width="8" height="44" rx="2" fill="none" stroke="#555555" stroke-width="1"/><rect x="853.375" y="337" width="8" height="30" rx="2" fill="#ffffff"/><line x1="863.375" y1="356.8" x2="1003.625" y2="356.8" stroke="#333333" stroke-width="1.5" marker-end="url(#arr)"/><rect x="909.3" y="335.7" width="48.400000000000006" height="15" fill="#ffffff" rx="2"/><text x="933.5" y="343.2" text-anchor="middle" dominant-baseline="central" font-size="11" fill="#333333">next()</text><rect x="853.375" y="337" width="8" height="30" rx="2" fill="none" stroke="#555555" stroke-width="1"/><rect x="1005.625" y="377" width="8" height="30" rx="2" fill="#ffffff"/><line x1="1015.625" y1="396.8" x2="1155.875" y2="396.8" stroke="#333333" stroke-width="1.5" marker-end="url(#arr)"/><rect x="1016.75" y="375.7" width="138" height="15" fill="#ffffff" rx="2"/><text x="1085.75" y="383.2" text-anchor="middle" dominant-baseline="central" font-size="11" fill="#333333">transaction.select()</text><rect x="1005.625" y="377" width="8" height="30" rx="2" fill="none" stroke="#555555" stroke-width="1"/><rect x="1157.875" y="417" width="8" height="30" rx="2" fill="#ffffff"/><line x1="1155.875" y1="436.8" x2="1015.625" y2="436.8" stroke="#333333" stroke-width="1.5" stroke-dasharray="7 4" marker-end="url(#arr)"/><rect x="1023.15" y="415.7" width="125.2" height="15" fill="#ffffff" rx="2"/><text x="1085.75" y="423.2" text-anchor="middle" dominant-baseline="central" font-size="11" fill="#333333">transaction docs[]</text><rect x="1157.875" y="417" width="8" height="30" rx="2" fill="none" stroke="#555555" stroke-width="1"/><rect x="1005.625" y="457" width="8" height="30" rx="2" fill="#ffffff"/><line x1="1003.625" y1="476.8" x2="711.125" y2="476.8" stroke="#333333" stroke-width="1.5" stroke-dasharray="7 4" marker-end="url(#arr)"/><rect x="794.775" y="455.7" width="125.2" height="15" fill="#ffffff" rx="2"/><text x="857.375" y="463.2" text-anchor="middle" dominant-baseline="central" font-size="11" fill="#333333">200 transactions[]</text><rect x="1005.625" y="457" width="8" height="30" rx="2" fill="none" stroke="#555555" stroke-width="1"/><rect x="701.125" y="497" width="8" height="30" rx="2" fill="#ffffff"/><line x1="699.125" y1="516.8" x2="558.875" y2="516.8" stroke="#333333" stroke-width="1.5" stroke-dasharray="7 4" marker-end="url(#arr)"/><rect x="566.4" y="495.7" width="125.2" height="15" fill="#ffffff" rx="2"/><text x="629" y="503.2" text-anchor="middle" dominant-baseline="central" font-size="11" fill="#333333">200 transactions[]</text><rect x="701.125" y="497" width="8" height="30" rx="2" fill="none" stroke="#555555" stroke-width="1"/><rect x="548.875" y="537" width="8" height="30" rx="2" fill="#ffffff"/><line x1="546.875" y1="556.8" x2="406.625" y2="556.8" stroke="#333333" stroke-width="1.5" stroke-dasharray="7 4" marker-end="url(#arr)"/><rect x="407.75" y="535.7" width="138" height="15" fill="#ffffff" rx="2"/><text x="476.75" y="543.2" text-anchor="middle" dominant-baseline="central" font-size="11" fill="#333333">BackendTransaction[]</text><rect x="548.875" y="537" width="8" height="30" rx="2" fill="none" stroke="#555555" stroke-width="1"/><rect x="92.125" y="577" width="8" height="30" rx="2" fill="#ffffff"/><line x1="102.125" y1="596.8" x2="394.625" y2="596.8" stroke="#333333" stroke-width="1.5" marker-end="url(#arr)"/><rect x="147.375" y="575.7" width="202" height="15" fill="#ffffff" rx="2"/><text x="248.375" y="583.2" text-anchor="middle" dominant-baseline="central" font-size="11" fill="#333333">Select start date + time range</text><rect x="92.125" y="577" width="8" height="30" rx="2" fill="none" stroke="#555555" stroke-width="1"/><rect x="396.625" y="617" width="8" height="44" rx="2" fill="#ffffff"/><path d="M400.625 622.8 L428.625 622.8 L428.625 655.2 L400.625 655.2" fill="none" stroke="#333333" stroke-width="1.5" marker-end="url(#arr)"/><text font-size="11" fill="#333333">
          <tspan x="434.625" y="630.9" dominant-baseline="central">filterData() —</tspan>
          <tspan x="434.625" y="647.1" dominant-baseline="central">by date range</tspan>
        </text><rect x="396.625" y="617" width="8" height="44" rx="2" fill="none" stroke="#555555" stroke-width="1"/><rect x="92.125" y="671" width="8" height="30" rx="2" fill="#ffffff"/><line x1="102.125" y1="690.8" x2="394.625" y2="690.8" stroke="#333333" stroke-width="1.5" marker-end="url(#arr)"/><rect x="204.975" y="669.7" width="86.80000000000001" height="15" fill="#ffffff" rx="2"/><text x="248.375" y="677.2" text-anchor="middle" dominant-baseline="central" font-size="11" fill="#333333">Click Export</text><rect x="92.125" y="671" width="8" height="30" rx="2" fill="none" stroke="#555555" stroke-width="1"/><rect x="396.625" y="711" width="8" height="44" rx="2" fill="#ffffff"/><path d="M400.625 716.8 L428.625 716.8 L428.625 749.2 L400.625 749.2" fill="none" stroke="#333333" stroke-width="1.5" marker-end="url(#arr)"/><text font-size="11" fill="#333333">
          <tspan x="434.625" y="724.9" dominant-baseline="central">CSVLink.click()</tspan>
          <tspan x="434.625" y="741.1" dominant-baseline="central">— build CSV</tspan>
        </text><rect x="396.625" y="711" width="8" height="44" rx="2" fill="none" stroke="#555555" stroke-width="1"/><rect x="396.625" y="765" width="8" height="30" rx="2" fill="#ffffff"/><line x1="394.625" y1="784.8" x2="102.125" y2="784.8" stroke="#333333" stroke-width="1.5" marker-end="url(#arr)"/><rect x="128.175" y="763.7" width="240.4" height="15" fill="#ffffff" rx="2"/><text x="248.375" y="771.2" text-anchor="middle" dominant-baseline="central" font-size="11" fill="#333333">Browser downloads inventory-data.csv</text><rect x="396.625" y="765" width="8" height="30" rx="2" fill="none" stroke="#555555" stroke-width="1"/><rect x="26.125" y="828" width="140" height="38" rx="5" fill="#f0f0f0" stroke="#555555" stroke-width="1"/><text x="96.125" y="847" text-anchor="middle" dominant-baseline="central" font-size="11" font-weight="600" fill="#1a1a1a">User</text><rect x="178.375" y="828" width="140" height="38" rx="5" fill="#f0f0f0" stroke="#555555" stroke-width="1"/><text x="248.375" y="847" text-anchor="middle" dominant-baseline="central" font-size="11" font-weight="600" fill="#1a1a1a">StockLevelsCard.tsx</text><rect x="330.625" y="828" width="140" height="38" rx="5" fill="#f0f0f0" stroke="#555555" stroke-width="1"/><text x="400.625" y="847" text-anchor="middle" dominant-baseline="central" font-size="11" font-weight="600" fill="#1a1a1a">ExportDataModal.tsx</text><rect x="482.875" y="828" width="140" height="38" rx="5" fill="#f0f0f0" stroke="#555555" stroke-width="1"/><text text-anchor="middle" font-size="11" font-weight="600" fill="#1a1a1a">
        <tspan x="552.875" y="840" dominant-baseline="central">transaction_service.</tspan>
        <tspan x="552.875" y="854" dominant-baseline="central">ts</tspan>
      </text><rect x="635.125" y="828" width="140" height="38" rx="5" fill="#f0f0f0" stroke="#555555" stroke-width="1"/><text x="705.125" y="847" text-anchor="middle" dominant-baseline="central" font-size="11" font-weight="600" fill="#1a1a1a">server.ts</text><rect x="787.375" y="828" width="140" height="38" rx="5" fill="#f0f0f0" stroke="#555555" stroke-width="1"/><text x="857.375" y="847" text-anchor="middle" dominant-baseline="central" font-size="11" font-weight="600" fill="#1a1a1a">auth middleware</text><rect x="939.625" y="828" width="140" height="38" rx="5" fill="#f0f0f0" stroke="#555555" stroke-width="1"/><text x="1009.625" y="847" text-anchor="middle" dominant-baseline="central" font-size="11" font-weight="600" fill="#1a1a1a">transactionRouter.ts</text><rect x="1091.875" y="828" width="140" height="38" rx="5" fill="#f0f0f0" stroke="#555555" stroke-width="1"/><text x="1161.875" y="847" text-anchor="middle" dominant-baseline="central" font-size="11" font-weight="600" fill="#1a1a1a">Supabase</text></svg>