<svg xmlns="http://www.w3.org/2000/svg" width="950" height="698" style="display:block;font-family:-apple-system,BlinkMacSystemFont,'Segoe UI',Roboto,sans-serif"><defs>
    <marker id="arr" viewBox="0 0 12 12" refX="10" refY="6" markerWidth="8" markerHeight="8" orient="auto-start-reverse">
      <path d="M1 1L10 6L1 11" fill="none" stroke="#333333" stroke-width="1.8" stroke-linecap="round" stroke-linejoin="round"/>
    </marker>
  </defs><rect width="950" height="698" fill="#ffffff"/><rect x="25.83333333333333" y="16" width="140" height="38" rx="5" fill="#f0f0f0" stroke="#555555" stroke-width="1"/><text x="95.83333333333333" y="35" text-anchor="middle" dominant-baseline="central" font-size="11" font-weight="600" fill="#1a1a1a">User</text><rect x="177.5" y="16" width="140" height="38" rx="5" fill="#f0f0f0" stroke="#555555" stroke-width="1"/><text x="247.5" y="35" text-anchor="middle" dominant-baseline="central" font-size="11" font-weight="600" fill="#1a1a1a">Login.tsx</text><rect x="329.16666666666663" y="16" width="140" height="38" rx="5" fill="#f0f0f0" stroke="#555555" stroke-width="1"/><text x="399.16666666666663" y="35" text-anchor="middle" dominant-baseline="central" font-size="11" font-weight="600" fill="#1a1a1a">user_service.ts</text><rect x="480.83333333333337" y="16" width="140" height="38" rx="5" fill="#f0f0f0" stroke="#555555" stroke-width="1"/><text x="550.8333333333334" y="35" text-anchor="middle" dominant-baseline="central" font-size="11" font-weight="600" fill="#1a1a1a">server.ts</text><rect x="632.5" y="16" width="140" height="38" rx="5" fill="#f0f0f0" stroke="#555555" stroke-width="1"/><text x="702.5" y="35" text-anchor="middle" dominant-baseline="central" font-size="11" font-weight="600" fill="#1a1a1a">userRouter.ts</text><rect x="784.1666666666666" y="16" width="140" height="38" rx="5" fill="#f0f0f0" stroke="#555555" stroke-width="1"/><text x="854.1666666666666" y="35" text-anchor="middle" dominant-baseline="central" font-size="11" font-weight="600" fill="#1a1a1a">Supabase</text><line x1="95.83333333333333" y1="54" x2="95.83333333333333" y2="640" stroke="#aaaaaa" stroke-width="1" stroke-dasharray="5 4"/><line x1="247.5" y1="54" x2="247.5" y2="640" stroke="#aaaaaa" stroke-width="1" stroke-dasharray="5 4"/><line x1="399.16666666666663" y1="54" x2="399.16666666666663" y2="640" stroke="#aaaaaa" stroke-width="1" stroke-dasharray="5 4"/><line x1="550.8333333333334" y1="54" x2="550.8333333333334" y2="640" stroke="#aaaaaa" stroke-width="1" stroke-dasharray="5 4"/><line x1="702.5" y1="54" x2="702.5" y2="640" stroke="#aaaaaa" stroke-width="1" stroke-dasharray="5 4"/><line x1="854.1666666666666" y1="54" x2="854.1666666666666" y2="640" stroke="#aaaaaa" stroke-width="1" stroke-dasharray="5 4"/><rect x="91.83333333333333" y="83" width="8" height="30" rx="2" fill="#ffffff"/><line x1="101.83333333333333" y1="102.8" x2="241.5" y2="102.8" stroke="#333333" stroke-width="1.5" marker-end="url(#arr)"/><rect x="61.06666666666665" y="81.7" width="221.20000000000002" height="15" fill="#ffffff" rx="2"/><text x="171.66666666666666" y="89.2" text-anchor="middle" dominant-baseline="central" font-size="11" fill="#333333">Enter username + password, submit</text><rect x="91.83333333333333" y="83" width="8" height="30" rx="2" fill="none" stroke="#555555" stroke-width="1"/><rect x="243.5" y="123" width="8" height="30" rx="2" fill="#ffffff"/><line x1="253.5" y1="142.8" x2="393.16666666666663" y2="142.8" stroke="#333333" stroke-width="1.5" marker-end="url(#arr)"/><rect x="203.13333333333333" y="121.69999999999999" width="240.4" height="15" fill="#ffffff" rx="2"/><text x="323.3333333333333" y="129.2" text-anchor="middle" dominant-baseline="central" font-size="11" fill="#333333">authenticateUser(username, password)</text><rect x="243.5" y="123" width="8" height="30" rx="2" fill="none" stroke="#555555" stroke-width="1"/><rect x="395.16666666666663" y="163" width="8" height="30" rx="2" fill="#ffffff"/><line x1="405.16666666666663" y1="182.8" x2="544.8333333333334" y2="182.8" stroke="#333333" stroke-width="1.5" marker-end="url(#arr)"/><rect x="399.6" y="161.7" width="150.8" height="15" fill="#ffffff" rx="2"/><text x="475" y="169.2" text-anchor="middle" dominant-baseline="central" font-size="11" fill="#333333">POST /api/authenticate</text><rect x="395.16666666666663" y="163" width="8" height="30" rx="2" fill="none" stroke="#555555" stroke-width="1"/><rect x="546.8333333333334" y="203" width="8" height="30" rx="2" fill="#ffffff"/><line x1="556.8333333333334" y1="222.8" x2="696.5" y2="222.8" stroke="#333333" stroke-width="1.5" marker-end="url(#arr)"/><rect x="551.2666666666668" y="201.7" width="150.8" height="15" fill="#ffffff" rx="2"/><text x="626.6666666666667" y="209.2" text-anchor="middle" dominant-baseline="central" font-size="11" fill="#333333">Route to /authenticate</text><rect x="546.8333333333334" y="203" width="8" height="30" rx="2" fill="none" stroke="#555555" stroke-width="1"/><rect x="698.5" y="243" width="8" height="30" rx="2" fill="#ffffff"/><line x1="708.5" y1="262.8" x2="848.1666666666666" y2="262.8" stroke="#333333" stroke-width="1.5" marker-end="url(#arr)"/><rect x="674.1333333333332" y="241.7" width="208.4" height="15" fill="#ffffff" rx="2"/><text x="778.3333333333333" y="249.2" text-anchor="middle" dominant-baseline="central" font-size="11" fill="#333333">user_table.select({ username })</text><rect x="698.5" y="243" width="8" height="30" rx="2" fill="none" stroke="#555555" stroke-width="1"/><rect x="850.1666666666666" y="283" width="8" height="30" rx="2" fill="#ffffff"/><line x1="848.1666666666666" y1="302.8" x2="708.5" y2="302.8" stroke="#333333" stroke-width="1.5" stroke-dasharray="7 4" marker-end="url(#arr)"/><rect x="725.3333333333333" y="281.7" width="106" height="15" fill="#ffffff" rx="2"/><text x="778.3333333333333" y="289.2" text-anchor="middle" dominant-baseline="central" font-size="11" fill="#333333">user doc | null</text><rect x="850.1666666666666" y="283" width="8" height="30" rx="2" fill="none" stroke="#555555" stroke-width="1"/><rect x="24" y="320" width="902" height="24" rx="3" fill="#fafafa" stroke="#aaaaaa" stroke-width="1" stroke-dasharray="4 3"/><text x="475" y="331" text-anchor="middle" dominant-baseline="central" font-size="11" fill="#666666" font-style="italic">bcrypt.compare(password, hash) → jwt.sign({ id, isAdmin })</text><rect x="698.5" y="353" width="8" height="30" rx="2" fill="#ffffff"/><line x1="696.5" y1="372.8" x2="556.8333333333334" y2="372.8" stroke="#333333" stroke-width="1.5" stroke-dasharray="7 4" marker-end="url(#arr)"/><rect x="551.2666666666668" y="351.7" width="150.8" height="15" fill="#ffffff" rx="2"/><text x="626.6666666666667" y="359.2" text-anchor="middle" dominant-baseline="central" font-size="11" fill="#333333">200 { token, isAdmin }</text><rect x="698.5" y="353" width="8" height="30" rx="2" fill="none" stroke="#555555" stroke-width="1"/><rect x="546.8333333333334" y="393" width="8" height="30" rx="2" fill="#ffffff"/><line x1="544.8333333333334" y1="412.8" x2="405.16666666666663" y2="412.8" stroke="#333333" stroke-width="1.5" stroke-dasharray="7 4" marker-end="url(#arr)"/><rect x="399.6" y="391.7" width="150.8" height="15" fill="#ffffff" rx="2"/><text x="475" y="399.2" text-anchor="middle" dominant-baseline="central" font-size="11" fill="#333333">200 { token, isAdmin }</text><rect x="546.8333333333334" y="393" width="8" height="30" rx="2" fill="none" stroke="#555555" stroke-width="1"/><rect x="395.16666666666663" y="433" width="8" height="30" rx="2" fill="#ffffff"/><line x1="393.16666666666663" y1="452.8" x2="253.5" y2="452.8" stroke="#333333" stroke-width="1.5" stroke-dasharray="7 4" marker-end="url(#arr)"/><rect x="260.7333333333333" y="431.7" width="125.2" height="15" fill="#ffffff" rx="2"/><text x="323.3333333333333" y="439.2" text-anchor="middle" dominant-baseline="central" font-size="11" fill="#333333">{ token, isAdmin }</text><rect x="395.16666666666663" y="433" width="8" height="30" rx="2" fill="none" stroke="#555555" stroke-width="1"/><rect x="243.5" y="473" width="8" height="44" rx="2" fill="#ffffff"/><path d="M247.5 478.8 L275.5 478.8 L275.5 511.2 L247.5 511.2" fill="none" stroke="#333333" stroke-width="1.5" marker-end="url(#arr)"/><text font-size="11" fill="#333333">
          <tspan x="281.5" y="486.9" dominant-baseline="central">setCookie(token),</tspan>
          <tspan x="281.5" y="503.1" dominant-baseline="central">setCookie(isAdmin)</tspan>
        </text><rect x="243.5" y="473" width="8" height="44" rx="2" fill="none" stroke="#555555" stroke-width="1"/><rect x="243.5" y="527" width="8" height="44" rx="2" fill="#ffffff"/><path d="M247.5 532.8 L275.5 532.8 L275.5 565.2 L247.5 565.2" fill="none" stroke="#333333" stroke-width="1.5" marker-end="url(#arr)"/><text font-size="11" fill="#333333">
          <tspan x="281.5" y="540.9" dominant-baseline="central">Set axios</tspan>
          <tspan x="281.5" y="557.1" dominant-baseline="central">Authorization header</tspan>
        </text><rect x="243.5" y="527" width="8" height="44" rx="2" fill="none" stroke="#555555" stroke-width="1"/><rect x="243.5" y="581" width="8" height="30" rx="2" fill="#ffffff"/><line x1="241.5" y1="600.8" x2="101.83333333333333" y2="600.8" stroke="#333333" stroke-width="1.5" marker-end="url(#arr)"/><rect x="112.26666666666665" y="579.7" width="118.80000000000001" height="15" fill="#ffffff" rx="2"/><text x="171.66666666666666" y="587.2" text-anchor="middle" dominant-baseline="central" font-size="11" fill="#333333">Navigate to /home</text><rect x="243.5" y="581" width="8" height="30" rx="2" fill="none" stroke="#555555" stroke-width="1"/><rect x="25.83333333333333" y="644" width="140" height="38" rx="5" fill="#f0f0f0" stroke="#555555" stroke-width="1"/><text x="95.83333333333333" y="663" text-anchor="middle" dominant-baseline="central" font-size="11" font-weight="600" fill="#1a1a1a">User</text><rect x="177.5" y="644" width="140" height="38" rx="5" fill="#f0f0f0" stroke="#555555" stroke-width="1"/><text x="247.5" y="663" text-anchor="middle" dominant-baseline="central" font-size="11" font-weight="600" fill="#1a1a1a">Login.tsx</text><rect x="329.16666666666663" y="644" width="140" height="38" rx="5" fill="#f0f0f0" stroke="#555555" stroke-width="1"/><text x="399.16666666666663" y="663" text-anchor="middle" dominant-baseline="central" font-size="11" font-weight="600" fill="#1a1a1a">user_service.ts</text><rect x="480.83333333333337" y="644" width="140" height="38" rx="5" fill="#f0f0f0" stroke="#555555" stroke-width="1"/><text x="550.8333333333334" y="663" text-anchor="middle" dominant-baseline="central" font-size="11" font-weight="600" fill="#1a1a1a">server.ts</text><rect x="632.5" y="644" width="140" height="38" rx="5" fill="#f0f0f0" stroke="#555555" stroke-width="1"/><text x="702.5" y="663" text-anchor="middle" dominant-baseline="central" font-size="11" font-weight="600" fill="#1a1a1a">userRouter.ts</text><rect x="784.1666666666666" y="644" width="140" height="38" rx="5" fill="#f0f0f0" stroke="#555555" stroke-width="1"/><text x="854.1666666666666" y="663" text-anchor="middle" dominant-baseline="central" font-size="11" font-weight="600" fill="#1a1a1a">Supabase</text></svg>