<svg xmlns="http://www.w3.org/2000/svg" width="900" height="508" style="display:block;font-family:-apple-system,BlinkMacSystemFont,'Segoe UI',Roboto,sans-serif"><defs>
    <marker id="arr" viewBox="0 0 12 12" refX="10" refY="6" markerWidth="8" markerHeight="8" orient="auto-start-reverse">
      <path d="M1 1L10 6L1 11" fill="none" stroke="#333333" stroke-width="1.8" stroke-linecap="round" stroke-linejoin="round"/>
    </marker>
  </defs><rect width="900" height="508" fill="#ffffff"/><rect x="57.5" y="16" width="140" height="38" rx="5" fill="#f0f0f0" stroke="#555555" stroke-width="1"/><text x="127.5" y="35" text-anchor="middle" dominant-baseline="central" font-size="11" font-weight="600" fill="#1a1a1a">User</text><rect x="272.5" y="16" width="140" height="38" rx="5" fill="#f0f0f0" stroke="#555555" stroke-width="1"/><text x="342.5" y="35" text-anchor="middle" dominant-baseline="central" font-size="11" font-weight="600" fill="#1a1a1a">TopNavbar.tsx</text><rect x="487.5" y="16" width="140" height="38" rx="5" fill="#f0f0f0" stroke="#555555" stroke-width="1"/><text x="557.5" y="35" text-anchor="middle" dominant-baseline="central" font-size="11" font-weight="600" fill="#1a1a1a">App.tsx</text><rect x="702.5" y="16" width="140" height="38" rx="5" fill="#f0f0f0" stroke="#555555" stroke-width="1"/><text x="772.5" y="35" text-anchor="middle" dominant-baseline="central" font-size="11" font-weight="600" fill="#1a1a1a">LogOut.tsx</text><line x1="127.5" y1="54" x2="127.5" y2="450" stroke="#aaaaaa" stroke-width="1" stroke-dasharray="5 4"/><line x1="342.5" y1="54" x2="342.5" y2="450" stroke="#aaaaaa" stroke-width="1" stroke-dasharray="5 4"/><line x1="557.5" y1="54" x2="557.5" y2="450" stroke="#aaaaaa" stroke-width="1" stroke-dasharray="5 4"/><line x1="772.5" y1="54" x2="772.5" y2="450" stroke="#aaaaaa" stroke-width="1" stroke-dasharray="5 4"/><rect x="123.5" y="83" width="8" height="30" rx="2" fill="#ffffff"/><line x1="133.5" y1="102.8" x2="336.5" y2="102.8" stroke="#333333" stroke-width="1.5" marker-end="url(#arr)"/><rect x="169.2" y="81.7" width="131.60000000000002" height="15" fill="#ffffff" rx="2"/><text x="235" y="89.2" text-anchor="middle" dominant-baseline="central" font-size="11" fill="#333333">Click Logout button</text><rect x="123.5" y="83" width="8" height="30" rx="2" fill="none" stroke="#555555" stroke-width="1"/><rect x="338.5" y="123" width="8" height="30" rx="2" fill="#ffffff"/><line x1="348.5" y1="142.8" x2="551.5" y2="142.8" stroke="#333333" stroke-width="1.5" marker-end="url(#arr)"/><rect x="384.2" y="121.69999999999999" width="131.60000000000002" height="15" fill="#ffffff" rx="2"/><text x="450" y="129.2" text-anchor="middle" dominant-baseline="central" font-size="11" fill="#333333">navigate("/logout")</text><rect x="338.5" y="123" width="8" height="30" rx="2" fill="none" stroke="#555555" stroke-width="1"/><rect x="553.5" y="163" width="8" height="30" rx="2" fill="#ffffff"/><line x1="563.5" y1="182.8" x2="766.5" y2="182.8" stroke="#333333" stroke-width="1.5" marker-end="url(#arr)"/><rect x="605.6" y="161.7" width="118.80000000000001" height="15" fill="#ffffff" rx="2"/><text x="665" y="169.2" text-anchor="middle" dominant-baseline="central" font-size="11" fill="#333333">Render <logout/></text><rect x="553.5" y="163" width="8" height="30" rx="2" fill="none" stroke="#555555" stroke-width="1"/><rect x="768.5" y="203" width="8" height="30" rx="2" fill="#ffffff"/><line x1="766.5" y1="222.8" x2="563.5" y2="222.8" stroke="#333333" stroke-width="1.5" marker-end="url(#arr)"/><rect x="634.4" y="201.7" width="61.2" height="15" fill="#ffffff" rx="2"/><text x="665" y="209.2" text-anchor="middle" dominant-baseline="central" font-size="11" fill="#333333">logOut()</text><rect x="768.5" y="203" width="8" height="30" rx="2" fill="none" stroke="#555555" stroke-width="1"/><rect x="553.5" y="243" width="8" height="44" rx="2" fill="#ffffff"/><path d="M557.5 248.8 L585.5 248.8 L585.5 281.2 L557.5 281.2" fill="none" stroke="#333333" stroke-width="1.5" marker-end="url(#arr)"/><text font-size="11" fill="#333333">
          <tspan x="591.5" y="256.9" dominant-baseline="central">removeCookie(token,</tspan>
          <tspan x="591.5" y="273.1" dominant-baseline="central">isAdmin)</tspan>
        </text><rect x="553.5" y="243" width="8" height="44" rx="2" fill="none" stroke="#555555" stroke-width="1"/><rect x="553.5" y="297" width="8" height="44" rx="2" fill="#ffffff"/><path d="M557.5 302.8 L585.5 302.8 L585.5 335.2 L557.5 335.2" fill="none" stroke="#333333" stroke-width="1.5" marker-end="url(#arr)"/><text font-size="11" fill="#333333">
          <tspan x="591.5" y="310.9" dominant-baseline="central">Clear axios</tspan>
          <tspan x="591.5" y="327.1" dominant-baseline="central">Authorization header</tspan>
        </text><rect x="553.5" y="297" width="8" height="44" rx="2" fill="none" stroke="#555555" stroke-width="1"/><rect x="768.5" y="351" width="8" height="30" rx="2" fill="#ffffff"/><line x1="766.5" y1="370.8" x2="563.5" y2="370.8" stroke="#333333" stroke-width="1.5" marker-end="url(#arr)"/><rect x="618.4" y="349.7" width="93.2" height="15" fill="#ffffff" rx="2"/><text x="665" y="357.2" text-anchor="middle" dominant-baseline="central" font-size="11" fill="#333333">navigate("/")</text><rect x="768.5" y="351" width="8" height="30" rx="2" fill="none" stroke="#555555" stroke-width="1"/><rect x="553.5" y="391" width="8" height="30" rx="2" fill="#ffffff"/><line x1="551.5" y1="410.8" x2="133.5" y2="410.8" stroke="#333333" stroke-width="1.5" marker-end="url(#arr)"/><rect x="283.1" y="389.7" width="118.80000000000001" height="15" fill="#ffffff" rx="2"/><text x="342.5" y="397.2" text-anchor="middle" dominant-baseline="central" font-size="11" fill="#333333">Render Login page</text><rect x="553.5" y="391" width="8" height="30" rx="2" fill="none" stroke="#555555" stroke-width="1"/><rect x="57.5" y="454" width="140" height="38" rx="5" fill="#f0f0f0" stroke="#555555" stroke-width="1"/><text x="127.5" y="473" text-anchor="middle" dominant-baseline="central" font-size="11" font-weight="600" fill="#1a1a1a">User</text><rect x="272.5" y="454" width="140" height="38" rx="5" fill="#f0f0f0" stroke="#555555" stroke-width="1"/><text x="342.5" y="473" text-anchor="middle" dominant-baseline="central" font-size="11" font-weight="600" fill="#1a1a1a">TopNavbar.tsx</text><rect x="487.5" y="454" width="140" height="38" rx="5" fill="#f0f0f0" stroke="#555555" stroke-width="1"/><text x="557.5" y="473" text-anchor="middle" dominant-baseline="central" font-size="11" font-weight="600" fill="#1a1a1a">App.tsx</text><rect x="702.5" y="454" width="140" height="38" rx="5" fill="#f0f0f0" stroke="#555555" stroke-width="1"/><text x="772.5" y="473" text-anchor="middle" dominant-baseline="central" font-size="11" font-weight="600" fill="#1a1a1a">LogOut.tsx</text></svg>