<svg xmlns="http://www.w3.org/2000/svg" width="1258" height="952" style="display:block;font-family:-apple-system,BlinkMacSystemFont,'Segoe UI',Roboto,sans-serif"><defs>
    <marker id="arr" viewBox="0 0 12 12" refX="10" refY="6" markerWidth="8" markerHeight="8" orient="auto-start-reverse">
      <path d="M1 1L10 6L1 11" fill="none" stroke="#333333" stroke-width="1.8" stroke-linecap="round" stroke-linejoin="round"/>
    </marker>
  </defs><rect width="1258" height="952" fill="#ffffff"/><rect x="26.125" y="16" width="140" height="38" rx="5" fill="#f0f0f0" stroke="#555555" stroke-width="1"/><text x="96.125" y="35" text-anchor="middle" dominant-baseline="central" font-size="11" font-weight="600" fill="#1a1a1a">User</text><rect x="178.375" y="16" width="140" height="38" rx="5" fill="#f0f0f0" stroke="#555555" stroke-width="1"/><text x="248.375" y="35" text-anchor="middle" dominant-baseline="central" font-size="11" font-weight="600" fill="#1a1a1a">SelectItemCard.tsx</text><rect x="330.625" y="16" width="140" height="38" rx="5" fill="#f0f0f0" stroke="#555555" stroke-width="1"/><text text-anchor="middle" font-size="11" font-weight="600" fill="#1a1a1a">
        <tspan x="400.625" y="28" dominant-baseline="central">StorageActivityChart</tspan>
        <tspan x="400.625" y="42" dominant-baseline="central">.tsx</tspan>
      </text><rect x="482.875" y="16" width="140" height="38" rx="5" fill="#f0f0f0" stroke="#555555" stroke-width="1"/><text x="552.875" y="35" text-anchor="middle" dominant-baseline="central" font-size="11" font-weight="600" fill="#1a1a1a">item_service.ts</text><rect x="635.125" y="16" width="140" height="38" rx="5" fill="#f0f0f0" stroke="#555555" stroke-width="1"/><text x="705.125" y="35" text-anchor="middle" dominant-baseline="central" font-size="11" font-weight="600" fill="#1a1a1a">server.ts</text><rect x="787.375" y="16" width="140" height="38" rx="5" fill="#f0f0f0" stroke="#555555" stroke-width="1"/><text x="857.375" y="35" text-anchor="middle" dominant-baseline="central" font-size="11" font-weight="600" fill="#1a1a1a">auth middleware</text><rect x="939.625" y="16" width="140" height="38" rx="5" fill="#f0f0f0" stroke="#555555" stroke-width="1"/><text x="1009.625" y="35" text-anchor="middle" dominant-baseline="central" font-size="11" font-weight="600" fill="#1a1a1a">itemRouter.ts</text><rect x="1091.875" y="16" width="140" height="38" rx="5" fill="#f0f0f0" stroke="#555555" stroke-width="1"/><text x="1161.875" y="35" text-anchor="middle" dominant-baseline="central" font-size="11" font-weight="600" fill="#1a1a1a">Supabase</text><line x1="96.125" y1="54" x2="96.125" y2="894" stroke="#aaaaaa" stroke-width="1" stroke-dasharray="5 4"/><line x1="248.375" y1="54" x2="248.375" y2="894" stroke="#aaaaaa" stroke-width="1" stroke-dasharray="5 4"/><line x1="400.625" y1="54" x2="400.625" y2="894" stroke="#aaaaaa" stroke-width="1" stroke-dasharray="5 4"/><line x1="552.875" y1="54" x2="552.875" y2="894" stroke="#aaaaaa" stroke-width="1" stroke-dasharray="5 4"/><line x1="705.125" y1="54" x2="705.125" y2="894" stroke="#aaaaaa" stroke-width="1" stroke-dasharray="5 4"/><line x1="857.375" y1="54" x2="857.375" y2="894" stroke="#aaaaaa" stroke-width="1" stroke-dasharray="5 4"/><line x1="1009.625" y1="54" x2="1009.625" y2="894" stroke="#aaaaaa" stroke-width="1" stroke-dasharray="5 4"/><line x1="1161.875" y1="54" x2="1161.875" y2="894" stroke="#aaaaaa" stroke-width="1" stroke-dasharray="5 4"/><rect x="92.125" y="83" width="8" height="30" rx="2" fill="#ffffff"/><line x1="102.125" y1="102.8" x2="242.375" y2="102.8" stroke="#333333" stroke-width="1.5" marker-end="url(#arr)"/><rect x="90.44999999999999" y="81.7" width="163.60000000000002" height="15" fill="#ffffff" rx="2"/><text x="172.25" y="89.2" text-anchor="middle" dominant-baseline="central" font-size="11" fill="#333333">Select item on Dashboard</text><rect x="92.125" y="83" width="8" height="30" rx="2" fill="none" stroke="#555555" stroke-width="1"/><rect x="244.375" y="123" width="8" height="30" rx="2" fill="#ffffff"/><line x1="254.375" y1="142.8" x2="394.625" y2="142.8" stroke="#333333" stroke-width="1.5" marker-end="url(#arr)"/><rect x="249.1" y="121.69999999999999" width="150.8" height="15" fill="#ffffff" rx="2"/><text x="324.5" y="129.2" text-anchor="middle" dominant-baseline="central" font-size="11" fill="#333333">Pass selectedItem prop</text><rect x="244.375" y="123" width="8" height="30" rx="2" fill="none" stroke="#555555" stroke-width="1"/><rect x="396.625" y="163" width="8" height="30" rx="2" fill="#ffffff"/><line x1="406.625" y1="182.8" x2="546.875" y2="182.8" stroke="#333333" stroke-width="1.5" marker-end="url(#arr)"/><rect x="401.35" y="161.7" width="150.8" height="15" fill="#ffffff" rx="2"/><text x="476.75" y="169.2" text-anchor="middle" dominant-baseline="central" font-size="11" fill="#333333">getItemHistory(itemId)</text><rect x="396.625" y="163" width="8" height="30" rx="2" fill="none" stroke="#555555" stroke-width="1"/><rect x="548.875" y="203" width="8" height="30" rx="2" fill="#ffffff"/><line x1="558.875" y1="222.8" x2="699.125" y2="222.8" stroke="#333333" stroke-width="1.5" marker-end="url(#arr)"/><rect x="540.8" y="201.7" width="176.4" height="15" fill="#ffffff" rx="2"/><text x="629" y="209.2" text-anchor="middle" dominant-baseline="central" font-size="11" fill="#333333">GET /api/items/:id/history</text><rect x="548.875" y="203" width="8" height="30" rx="2" fill="none" stroke="#555555" stroke-width="1"/><rect x="701.125" y="243" width="8" height="30" rx="2" fill="#ffffff"/><line x1="711.125" y1="262.8" x2="851.375" y2="262.8" stroke="#333333" stroke-width="1.5" marker-end="url(#arr)"/><rect x="734.65" y="241.7" width="93.2" height="15" fill="#ffffff" rx="2"/><text x="781.25" y="249.2" text-anchor="middle" dominant-baseline="central" font-size="11" fill="#333333">authorizeUser</text><rect x="701.125" y="243" width="8" height="30" rx="2" fill="none" stroke="#555555" stroke-width="1"/><rect x="853.375" y="283" width="8" height="44" rx="2" fill="#ffffff"/><path d="M857.375 288.8 L885.375 288.8 L885.375 321.2 L857.375 321.2" fill="none" stroke="#333333" stroke-width="1.5" marker-end="url(#arr)"/><text font-size="11" fill="#333333">
          <tspan x="891.375" y="296.9" dominant-baseline="central">jwt.verify(toke</tspan>
          <tspan x="891.375" y="313.1" dominant-baseline="central">n)</tspan>
        </text><rect x="853.375" y="283" width="8" height="44" rx="2" fill="none" stroke="#555555" stroke-width="1"/><rect x="853.375" y="337" width="8" height="30" rx="2" fill="#ffffff"/><line x1="863.375" y1="356.8" x2="1003.625" y2="356.8" stroke="#333333" stroke-width="1.5" marker-end="url(#arr)"/><rect x="909.3" y="335.7" width="48.400000000000006" height="15" fill="#ffffff" rx="2"/><text x="933.5" y="343.2" text-anchor="middle" dominant-baseline="central" font-size="11" fill="#333333">next()</text><rect x="853.375" y="337" width="8" height="30" rx="2" fill="none" stroke="#555555" stroke-width="1"/><rect x="1005.625" y="377" width="8" height="30" rx="2" fill="#ffffff"/><line x1="1015.625" y1="396.8" x2="1155.875" y2="396.8" stroke="#333333" stroke-width="1.5" marker-end="url(#arr)"/><rect x="978.35" y="375.7" width="214.8" height="15" fill="#ffffff" rx="2"/><text x="1085.75" y="383.2" text-anchor="middle" dominant-baseline="central" font-size="11" fill="#333333">transaction.select where item_id</text><rect x="1005.625" y="377" width="8" height="30" rx="2" fill="none" stroke="#555555" stroke-width="1"/><rect x="1157.875" y="417" width="8" height="30" rx="2" fill="#ffffff"/><line x1="1155.875" y1="436.8" x2="1015.625" y2="436.8" stroke="#333333" stroke-width="1.5" stroke-dasharray="7 4" marker-end="url(#arr)"/><rect x="1035.95" y="415.7" width="99.60000000000001" height="15" fill="#ffffff" rx="2"/><text x="1085.75" y="423.2" text-anchor="middle" dominant-baseline="central" font-size="11" fill="#333333">history docs[]</text><rect x="1157.875" y="417" width="8" height="30" rx="2" fill="none" stroke="#555555" stroke-width="1"/><rect x="1005.625" y="457" width="8" height="30" rx="2" fill="#ffffff"/><line x1="1003.625" y1="476.8" x2="711.125" y2="476.8" stroke="#333333" stroke-width="1.5" stroke-dasharray="7 4" marker-end="url(#arr)"/><rect x="810.775" y="455.7" width="93.2" height="15" fill="#ffffff" rx="2"/><text x="857.375" y="463.2" text-anchor="middle" dominant-baseline="central" font-size="11" fill="#333333">200 history[]</text><rect x="1005.625" y="457" width="8" height="30" rx="2" fill="none" stroke="#555555" stroke-width="1"/><rect x="701.125" y="497" width="8" height="30" rx="2" fill="#ffffff"/><line x1="699.125" y1="516.8" x2="558.875" y2="516.8" stroke="#333333" stroke-width="1.5" stroke-dasharray="7 4" marker-end="url(#arr)"/><rect x="582.4" y="495.7" width="93.2" height="15" fill="#ffffff" rx="2"/><text x="629" y="503.2" text-anchor="middle" dominant-baseline="central" font-size="11" fill="#333333">200 history[]</text><rect x="701.125" y="497" width="8" height="30" rx="2" fill="none" stroke="#555555" stroke-width="1"/><rect x="548.875" y="537" width="8" height="30" rx="2" fill="#ffffff"/><line x1="546.875" y1="556.8" x2="406.625" y2="556.8" stroke="#333333" stroke-width="1.5" stroke-dasharray="7 4" marker-end="url(#arr)"/><rect x="414.15" y="535.7" width="125.2" height="15" fill="#ffffff" rx="2"/><text x="476.75" y="543.2" text-anchor="middle" dominant-baseline="central" font-size="11" fill="#333333">QuantitySnapshot[]</text><rect x="548.875" y="537" width="8" height="30" rx="2" fill="none" stroke="#555555" stroke-width="1"/><rect x="396.625" y="577" width="8" height="44" rx="2" fill="#ffffff"/><path d="M400.625 582.8 L428.625 582.8 L428.625 615.2 L400.625 615.2" fill="none" stroke="#333333" stroke-width="1.5" marker-end="url(#arr)"/><text font-size="11" fill="#333333">
          <tspan x="434.625" y="590.9" dominant-baseline="central">buildSeries() —</tspan>
          <tspan x="434.625" y="607.1" dominant-baseline="central">filter by timeframe</tspan>
        </text><rect x="396.625" y="577" width="8" height="44" rx="2" fill="none" stroke="#555555" stroke-width="1"/><rect x="92.125" y="631" width="8" height="30" rx="2" fill="#ffffff"/><line x1="102.125" y1="650.8" x2="394.625" y2="650.8" stroke="#333333" stroke-width="1.5" marker-end="url(#arr)"/><rect x="140.975" y="629.7" width="214.8" height="15" fill="#ffffff" rx="2"/><text x="248.375" y="637.2" text-anchor="middle" dominant-baseline="central" font-size="11" fill="#333333">Change timeframe (7D/30D/90D/1Y)</text><rect x="92.125" y="631" width="8" height="30" rx="2" fill="none" stroke="#555555" stroke-width="1"/><rect x="396.625" y="671" width="8" height="44" rx="2" fill="#ffffff"/><path d="M400.625 676.8 L428.625 676.8 L428.625 709.2 L400.625 709.2" fill="none" stroke="#333333" stroke-width="1.5" marker-end="url(#arr)"/><text font-size="11" fill="#333333">
          <tspan x="434.625" y="684.9" dominant-baseline="central">Re-filter series</tspan>
          <tspan x="434.625" y="701.1" dominant-baseline="central">by new range</tspan>
        </text><rect x="396.625" y="671" width="8" height="44" rx="2" fill="none" stroke="#555555" stroke-width="1"/><rect x="24" y="722" width="1210" height="24" rx="3" fill="#fafafa" stroke="#aaaaaa" stroke-width="1" stroke-dasharray="4 3"/><text x="629" y="733" text-anchor="middle" dominant-baseline="central" font-size="11" fill="#666666" font-style="italic">SSE: re-fetch history on transaction_insert event</text><rect x="396.625" y="755" width="8" height="30" rx="2" fill="#ffffff"/><line x1="406.625" y1="774.8" x2="699.125" y2="774.8" stroke="#333333" stroke-width="1.5" marker-end="url(#arr)"/><rect x="467.875" y="753.7" width="170" height="15" fill="#ffffff" rx="2"/><text x="552.875" y="761.2" text-anchor="middle" dominant-baseline="central" font-size="11" fill="#333333">GET /api/events?token=...</text><rect x="396.625" y="755" width="8" height="30" rx="2" fill="none" stroke="#555555" stroke-width="1"/><rect x="701.125" y="795" width="8" height="30" rx="2" fill="#ffffff"/><line x1="699.125" y1="814.8" x2="406.625" y2="814.8" stroke="#333333" stroke-width="1.5" stroke-dasharray="7 4" marker-end="url(#arr)"/><rect x="451.875" y="793.7" width="202" height="15" fill="#ffffff" rx="2"/><text x="552.875" y="801.2" text-anchor="middle" dominant-baseline="central" font-size="11" fill="#333333">SSE stream: transaction_insert</text><rect x="701.125" y="795" width="8" height="30" rx="2" fill="none" stroke="#555555" stroke-width="1"/><rect x="396.625" y="835" width="8" height="30" rx="2" fill="#ffffff"/><line x1="394.625" y1="854.8" x2="102.125" y2="854.8" stroke="#333333" stroke-width="1.5" marker-end="url(#arr)"/><rect x="140.975" y="833.7" width="214.8" height="15" fill="#ffffff" rx="2"/><text x="248.375" y="841.2" text-anchor="middle" dominant-baseline="central" font-size="11" fill="#333333">Render LineChart (qty over time)</text><rect x="396.625" y="835" width="8" height="30" rx="2" fill="none" stroke="#555555" stroke-width="1"/><rect x="26.125" y="898" width="140" height="38" rx="5" fill="#f0f0f0" stroke="#555555" stroke-width="1"/><text x="96.125" y="917" text-anchor="middle" dominant-baseline="central" font-size="11" font-weight="600" fill="#1a1a1a">User</text><rect x="178.375" y="898" width="140" height="38" rx="5" fill="#f0f0f0" stroke="#555555" stroke-width="1"/><text x="248.375" y="917" text-anchor="middle" dominant-baseline="central" font-size="11" font-weight="600" fill="#1a1a1a">SelectItemCard.tsx</text><rect x="330.625" y="898" width="140" height="38" rx="5" fill="#f0f0f0" stroke="#555555" stroke-width="1"/><text text-anchor="middle" font-size="11" font-weight="600" fill="#1a1a1a">
        <tspan x="400.625" y="910" dominant-baseline="central">StorageActivityChart</tspan>
        <tspan x="400.625" y="924" dominant-baseline="central">.tsx</tspan>
      </text><rect x="482.875" y="898" width="140" height="38" rx="5" fill="#f0f0f0" stroke="#555555" stroke-width="1"/><text x="552.875" y="917" text-anchor="middle" dominant-baseline="central" font-size="11" font-weight="600" fill="#1a1a1a">item_service.ts</text><rect x="635.125" y="898" width="140" height="38" rx="5" fill="#f0f0f0" stroke="#555555" stroke-width="1"/><text x="705.125" y="917" text-anchor="middle" dominant-baseline="central" font-size="11" font-weight="600" fill="#1a1a1a">server.ts</text><rect x="787.375" y="898" width="140" height="38" rx="5" fill="#f0f0f0" stroke="#555555" stroke-width="1"/><text x="857.375" y="917" text-anchor="middle" dominant-baseline="central" font-size="11" font-weight="600" fill="#1a1a1a">auth middleware</text><rect x="939.625" y="898" width="140" height="38" rx="5" fill="#f0f0f0" stroke="#555555" stroke-width="1"/><text x="1009.625" y="917" text-anchor="middle" dominant-baseline="central" font-size="11" font-weight="600" fill="#1a1a1a">itemRouter.ts</text><rect x="1091.875" y="898" width="140" height="38" rx="5" fill="#f0f0f0" stroke="#555555" stroke-width="1"/><text x="1161.875" y="917" text-anchor="middle" dominant-baseline="central" font-size="11" font-weight="600" fill="#1a1a1a">Supabase</text></svg>