<svg xmlns="http://www.w3.org/2000/svg" width="1566" height="1218" style="display:block;font-family:-apple-system,BlinkMacSystemFont,'Segoe UI',Roboto,sans-serif"><defs>
    <marker id="arr" viewBox="0 0 12 12" refX="10" refY="6" markerWidth="8" markerHeight="8" orient="auto-start-reverse">
      <path d="M1 1L10 6L1 11" fill="none" stroke="#333333" stroke-width="1.8" stroke-linecap="round" stroke-linejoin="round"/>
    </marker>
  </defs><rect width="1566" height="1218" fill="#ffffff"/><rect x="26.299999999999997" y="16" width="140" height="38" rx="5" fill="#f0f0f0" stroke="#555555" stroke-width="1"/><text x="96.3" y="35" text-anchor="middle" dominant-baseline="central" font-size="11" font-weight="600" fill="#1a1a1a">User</text><rect x="178.89999999999998" y="16" width="140" height="38" rx="5" fill="#f0f0f0" stroke="#555555" stroke-width="1"/><text x="248.89999999999998" y="35" text-anchor="middle" dominant-baseline="central" font-size="11" font-weight="600" fill="#1a1a1a">Dashboard.tsx</text><rect x="331.5" y="16" width="140" height="38" rx="5" fill="#f0f0f0" stroke="#555555" stroke-width="1"/><text x="401.5" y="35" text-anchor="middle" dominant-baseline="central" font-size="11" font-weight="600" fill="#1a1a1a">StockLevelsCard.tsx</text><rect x="484.0999999999999" y="16" width="140" height="38" rx="5" fill="#f0f0f0" stroke="#555555" stroke-width="1"/><text x="554.0999999999999" y="35" text-anchor="middle" dominant-baseline="central" font-size="11" font-weight="600" fill="#1a1a1a">item_service.ts</text><rect x="636.6999999999999" y="16" width="140" height="38" rx="5" fill="#f0f0f0" stroke="#555555" stroke-width="1"/><text x="706.6999999999999" y="35" text-anchor="middle" dominant-baseline="central" font-size="11" font-weight="600" fill="#1a1a1a">category.ts</text><rect x="789.3" y="16" width="140" height="38" rx="5" fill="#f0f0f0" stroke="#555555" stroke-width="1"/><text x="859.3" y="35" text-anchor="middle" dominant-baseline="central" font-size="11" font-weight="600" fill="#1a1a1a">server.ts</text><rect x="941.8999999999999" y="16" width="140" height="38" rx="5" fill="#f0f0f0" stroke="#555555" stroke-width="1"/><text x="1011.8999999999999" y="35" text-anchor="middle" dominant-baseline="central" font-size="11" font-weight="600" fill="#1a1a1a">auth middleware</text><rect x="1094.5" y="16" width="140" height="38" rx="5" fill="#f0f0f0" stroke="#555555" stroke-width="1"/><text x="1164.5" y="35" text-anchor="middle" dominant-baseline="central" font-size="11" font-weight="600" fill="#1a1a1a">itemRouter.ts</text><rect x="1247.1" y="16" width="140" height="38" rx="5" fill="#f0f0f0" stroke="#555555" stroke-width="1"/><text x="1317.1" y="35" text-anchor="middle" dominant-baseline="central" font-size="11" font-weight="600" fill="#1a1a1a">categoryRouter.ts</text><rect x="1399.6999999999998" y="16" width="140" height="38" rx="5" fill="#f0f0f0" stroke="#555555" stroke-width="1"/><text x="1469.6999999999998" y="35" text-anchor="middle" dominant-baseline="central" font-size="11" font-weight="600" fill="#1a1a1a">Supabase</text><line x1="96.3" y1="54" x2="96.3" y2="1160" stroke="#aaaaaa" stroke-width="1" stroke-dasharray="5 4"/><line x1="248.89999999999998" y1="54" x2="248.89999999999998" y2="1160" stroke="#aaaaaa" stroke-width="1" stroke-dasharray="5 4"/><line x1="401.5" y1="54" x2="401.5" y2="1160" stroke="#aaaaaa" stroke-width="1" stroke-dasharray="5 4"/><line x1="554.0999999999999" y1="54" x2="554.0999999999999" y2="1160" stroke="#aaaaaa" stroke-width="1" stroke-dasharray="5 4"/><line x1="706.6999999999999" y1="54" x2="706.6999999999999" y2="1160" stroke="#aaaaaa" stroke-width="1" stroke-dasharray="5 4"/><line x1="859.3" y1="54" x2="859.3" y2="1160" stroke="#aaaaaa" stroke-width="1" stroke-dasharray="5 4"/><line x1="1011.8999999999999" y1="54" x2="1011.8999999999999" y2="1160" stroke="#aaaaaa" stroke-width="1" stroke-dasharray="5 4"/><line x1="1164.5" y1="54" x2="1164.5" y2="1160" stroke="#aaaaaa" stroke-width="1" stroke-dasharray="5 4"/><line x1="1317.1" y1="54" x2="1317.1" y2="1160" stroke="#aaaaaa" stroke-width="1" stroke-dasharray="5 4"/><line x1="1469.6999999999998" y1="54" x2="1469.6999999999998" y2="1160" stroke="#aaaaaa" stroke-width="1" stroke-dasharray="5 4"/><rect x="92.3" y="83" width="8" height="30" rx="2" fill="#ffffff"/><line x1="102.3" y1="102.8" x2="242.89999999999998" y2="102.8" stroke="#333333" stroke-width="1.5" marker-end="url(#arr)"/><rect x="113.19999999999999" y="81.7" width="118.80000000000001" height="15" fill="#ffffff" rx="2"/><text x="172.6" y="89.2" text-anchor="middle" dominant-baseline="central" font-size="11" fill="#333333">Navigate to /home</text><rect x="92.3" y="83" width="8" height="30" rx="2" fill="none" stroke="#555555" stroke-width="1"/><rect x="244.89999999999998" y="123" width="8" height="30" rx="2" fill="#ffffff"/><line x1="254.89999999999998" y1="142.8" x2="395.5" y2="142.8" stroke="#333333" stroke-width="1.5" marker-end="url(#arr)"/><rect x="237" y="121.69999999999999" width="176.4" height="15" fill="#ffffff" rx="2"/><text x="325.2" y="129.2" text-anchor="middle" dominant-baseline="central" font-size="11" fill="#333333">Render <stocklevelscard/></text><rect x="244.89999999999998" y="123" width="8" height="30" rx="2" fill="none" stroke="#555555" stroke-width="1"/><rect x="397.5" y="163" width="8" height="30" rx="2" fill="#ffffff"/><line x1="407.5" y1="182.8" x2="548.0999999999999" y2="182.8" stroke="#333333" stroke-width="1.5" marker-end="url(#arr)"/><rect x="440.79999999999995" y="161.7" width="74" height="15" fill="#ffffff" rx="2"/><text x="477.79999999999995" y="169.2" text-anchor="middle" dominant-baseline="central" font-size="11" fill="#333333">getItems()</text><rect x="397.5" y="163" width="8" height="30" rx="2" fill="none" stroke="#555555" stroke-width="1"/><rect x="550.0999999999999" y="203" width="8" height="30" rx="2" fill="#ffffff"/><line x1="560.0999999999999" y1="222.8" x2="853.3" y2="222.8" stroke="#333333" stroke-width="1.5" marker-end="url(#arr)"/><rect x="608.8999999999999" y="201.7" width="195.60000000000002" height="15" fill="#ffffff" rx="2"/><text x="706.6999999999999" y="209.2" text-anchor="middle" dominant-baseline="central" font-size="11" fill="#333333">GET /api/items + Bearer token</text><rect x="550.0999999999999" y="203" width="8" height="30" rx="2" fill="none" stroke="#555555" stroke-width="1"/><rect x="855.3" y="243" width="8" height="30" rx="2" fill="#ffffff"/><line x1="865.3" y1="262.8" x2="1005.8999999999999" y2="262.8" stroke="#333333" stroke-width="1.5" marker-end="url(#arr)"/><rect x="888.9999999999999" y="241.7" width="93.2" height="15" fill="#ffffff" rx="2"/><text x="935.5999999999999" y="249.2" text-anchor="middle" dominant-baseline="central" font-size="11" fill="#333333">authorizeUser</text><rect x="855.3" y="243" width="8" height="30" rx="2" fill="none" stroke="#555555" stroke-width="1"/><rect x="1007.8999999999999" y="283" width="8" height="44" rx="2" fill="#ffffff"/><path d="M1011.8999999999999 288.8 L1039.8999999999999 288.8 L1039.8999999999999 321.2 L1011.8999999999999 321.2" fill="none" stroke="#333333" stroke-width="1.5" marker-end="url(#arr)"/><text font-size="11" fill="#333333">
          <tspan x="1045.8999999999999" y="296.9" dominant-baseline="central">jwt.verify(token</tspan>
          <tspan x="1045.8999999999999" y="313.1" dominant-baseline="central">)</tspan>
        </text><rect x="1007.8999999999999" y="283" width="8" height="44" rx="2" fill="none" stroke="#555555" stroke-width="1"/><rect x="1007.8999999999999" y="337" width="8" height="30" rx="2" fill="#ffffff"/><line x1="1017.8999999999999" y1="356.8" x2="1158.5" y2="356.8" stroke="#333333" stroke-width="1.5" marker-end="url(#arr)"/><rect x="1015.9999999999998" y="335.7" width="144.4" height="15" fill="#ffffff" rx="2"/><text x="1088.1999999999998" y="343.2" text-anchor="middle" dominant-baseline="central" font-size="11" fill="#333333">next() — req.user set</text><rect x="1007.8999999999999" y="337" width="8" height="30" rx="2" fill="none" stroke="#555555" stroke-width="1"/><rect x="1160.5" y="377" width="8" height="30" rx="2" fill="#ffffff"/><line x1="1170.5" y1="396.8" x2="1463.6999999999998" y2="396.8" stroke="#333333" stroke-width="1.5" marker-end="url(#arr)"/><rect x="1238.5" y="375.7" width="157.20000000000002" height="15" fill="#ffffff" rx="2"/><text x="1317.1" y="383.2" text-anchor="middle" dominant-baseline="central" font-size="11" fill="#333333">inventory_item.select()</text><rect x="1160.5" y="377" width="8" height="30" rx="2" fill="none" stroke="#555555" stroke-width="1"/><rect x="1465.6999999999998" y="417" width="8" height="30" rx="2" fill="#ffffff"/><line x1="1463.6999999999998" y1="436.8" x2="1170.5" y2="436.8" stroke="#333333" stroke-width="1.5" stroke-dasharray="7 4" marker-end="url(#arr)"/><rect x="1276.8999999999999" y="415.7" width="80.4" height="15" fill="#ffffff" rx="2"/><text x="1317.1" y="423.2" text-anchor="middle" dominant-baseline="central" font-size="11" fill="#333333">item docs[]</text><rect x="1465.6999999999998" y="417" width="8" height="30" rx="2" fill="none" stroke="#555555" stroke-width="1"/><rect x="1160.5" y="457" width="8" height="30" rx="2" fill="#ffffff"/><line x1="1158.5" y1="476.8" x2="865.3" y2="476.8" stroke="#333333" stroke-width="1.5" stroke-dasharray="7 4" marker-end="url(#arr)"/><rect x="971.6999999999999" y="455.7" width="80.4" height="15" fill="#ffffff" rx="2"/><text x="1011.9" y="463.2" text-anchor="middle" dominant-baseline="central" font-size="11" fill="#333333">200 items[]</text><rect x="1160.5" y="457" width="8" height="30" rx="2" fill="none" stroke="#555555" stroke-width="1"/><rect x="855.3" y="497" width="8" height="30" rx="2" fill="#ffffff"/><line x1="853.3" y1="516.8" x2="560.0999999999999" y2="516.8" stroke="#333333" stroke-width="1.5" stroke-dasharray="7 4" marker-end="url(#arr)"/><rect x="666.4999999999999" y="495.7" width="80.4" height="15" fill="#ffffff" rx="2"/><text x="706.6999999999999" y="503.2" text-anchor="middle" dominant-baseline="central" font-size="11" fill="#333333">200 items[]</text><rect x="855.3" y="497" width="8" height="30" rx="2" fill="none" stroke="#555555" stroke-width="1"/><rect x="550.0999999999999" y="537" width="8" height="30" rx="2" fill="#ffffff"/><line x1="548.0999999999999" y1="556.8" x2="407.5" y2="556.8" stroke="#333333" stroke-width="1.5" stroke-dasharray="7 4" marker-end="url(#arr)"/><rect x="450.4" y="535.7" width="54.800000000000004" height="15" fill="#ffffff" rx="2"/><text x="477.79999999999995" y="543.2" text-anchor="middle" dominant-baseline="central" font-size="11" fill="#333333">items[]</text><rect x="550.0999999999999" y="537" width="8" height="30" rx="2" fill="none" stroke="#555555" stroke-width="1"/><rect x="397.5" y="577" width="8" height="30" rx="2" fill="#ffffff"/><line x1="407.5" y1="596.8" x2="700.6999999999999" y2="596.8" stroke="#333333" stroke-width="1.5" marker-end="url(#arr)"/><rect x="501.0999999999999" y="575.7" width="106" height="15" fill="#ffffff" rx="2"/><text x="554.0999999999999" y="583.2" text-anchor="middle" dominant-baseline="central" font-size="11" fill="#333333">getCategories()</text><rect x="397.5" y="577" width="8" height="30" rx="2" fill="none" stroke="#555555" stroke-width="1"/><rect x="702.6999999999999" y="617" width="8" height="30" rx="2" fill="#ffffff"/><line x1="712.6999999999999" y1="636.8" x2="853.3" y2="636.8" stroke="#333333" stroke-width="1.5" marker-end="url(#arr)"/><rect x="675.6" y="615.7" width="214.8" height="15" fill="#ffffff" rx="2"/><text x="783" y="623.2" text-anchor="middle" dominant-baseline="central" font-size="11" fill="#333333">GET /api/category + Bearer token</text><rect x="702.6999999999999" y="617" width="8" height="30" rx="2" fill="none" stroke="#555555" stroke-width="1"/><rect x="855.3" y="657" width="8" height="30" rx="2" fill="#ffffff"/><line x1="865.3" y1="676.8" x2="1005.8999999999999" y2="676.8" stroke="#333333" stroke-width="1.5" marker-end="url(#arr)"/><rect x="888.9999999999999" y="655.7" width="93.2" height="15" fill="#ffffff" rx="2"/><text x="935.5999999999999" y="663.2" text-anchor="middle" dominant-baseline="central" font-size="11" fill="#333333">authorizeUser</text><rect x="855.3" y="657" width="8" height="30" rx="2" fill="none" stroke="#555555" stroke-width="1"/><rect x="1007.8999999999999" y="697" width="8" height="30" rx="2" fill="#ffffff"/><line x1="1017.8999999999999" y1="716.8" x2="1311.1" y2="716.8" stroke="#333333" stroke-width="1.5" marker-end="url(#arr)"/><rect x="1140.3" y="695.7" width="48.400000000000006" height="15" fill="#ffffff" rx="2"/><text x="1164.5" y="703.2" text-anchor="middle" dominant-baseline="central" font-size="11" fill="#333333">next()</text><rect x="1007.8999999999999" y="697" width="8" height="30" rx="2" fill="none" stroke="#555555" stroke-width="1"/><rect x="1313.1" y="737" width="8" height="30" rx="2" fill="#ffffff"/><line x1="1323.1" y1="756.8" x2="1463.6999999999998" y2="756.8" stroke="#333333" stroke-width="1.5" marker-end="url(#arr)"/><rect x="1333.9999999999998" y="735.7" width="118.80000000000001" height="15" fill="#ffffff" rx="2"/><text x="1393.3999999999999" y="743.2" text-anchor="middle" dominant-baseline="central" font-size="11" fill="#333333">category.select()</text><rect x="1313.1" y="737" width="8" height="30" rx="2" fill="none" stroke="#555555" stroke-width="1"/><rect x="1465.6999999999998" y="777" width="8" height="30" rx="2" fill="#ffffff"/><line x1="1463.6999999999998" y1="796.8" x2="1323.1" y2="796.8" stroke="#333333" stroke-width="1.5" stroke-dasharray="7 4" marker-end="url(#arr)"/><rect x="1340.3999999999999" y="775.7" width="106" height="15" fill="#ffffff" rx="2"/><text x="1393.3999999999999" y="783.2" text-anchor="middle" dominant-baseline="central" font-size="11" fill="#333333">category docs[]</text><rect x="1465.6999999999998" y="777" width="8" height="30" rx="2" fill="none" stroke="#555555" stroke-width="1"/><rect x="1313.1" y="817" width="8" height="30" rx="2" fill="#ffffff"/><line x1="1311.1" y1="836.8" x2="865.3" y2="836.8" stroke="#333333" stroke-width="1.5" stroke-dasharray="7 4" marker-end="url(#arr)"/><rect x="1031.9999999999998" y="815.7" width="112.4" height="15" fill="#ffffff" rx="2"/><text x="1088.1999999999998" y="823.2" text-anchor="middle" dominant-baseline="central" font-size="11" fill="#333333">200 categories[]</text><rect x="1313.1" y="817" width="8" height="30" rx="2" fill="none" stroke="#555555" stroke-width="1"/><rect x="855.3" y="857" width="8" height="30" rx="2" fill="#ffffff"/><line x1="853.3" y1="876.8" x2="712.6999999999999" y2="876.8" stroke="#333333" stroke-width="1.5" stroke-dasharray="7 4" marker-end="url(#arr)"/><rect x="726.8" y="855.7" width="112.4" height="15" fill="#ffffff" rx="2"/><text x="783" y="863.2" text-anchor="middle" dominant-baseline="central" font-size="11" fill="#333333">200 categories[]</text><rect x="855.3" y="857" width="8" height="30" rx="2" fill="none" stroke="#555555" stroke-width="1"/><rect x="702.6999999999999" y="897" width="8" height="30" rx="2" fill="#ffffff"/><line x1="700.6999999999999" y1="916.8" x2="407.5" y2="916.8" stroke="#333333" stroke-width="1.5" stroke-dasharray="7 4" marker-end="url(#arr)"/><rect x="510.69999999999993" y="895.7" width="86.80000000000001" height="15" fill="#ffffff" rx="2"/><text x="554.0999999999999" y="903.2" text-anchor="middle" dominant-baseline="central" font-size="11" fill="#333333">categories[]</text><rect x="702.6999999999999" y="897" width="8" height="30" rx="2" fill="none" stroke="#555555" stroke-width="1"/><rect x="397.5" y="937" width="8" height="44" rx="2" fill="#ffffff"/><path d="M401.5 942.8 L429.5 942.8 L429.5 975.2 L401.5 975.2" fill="none" stroke="#333333" stroke-width="1.5" marker-end="url(#arr)"/><text font-size="11" fill="#333333">
          <tspan x="435.5" y="950.9" dominant-baseline="central">buildChartData() —</tspan>
          <tspan x="435.5" y="967.1" dominant-baseline="central">aggregate by category</tspan>
        </text><rect x="397.5" y="937" width="8" height="44" rx="2" fill="none" stroke="#555555" stroke-width="1"/><rect x="24" y="988" width="1518" height="24" rx="3" fill="#fafafa" stroke="#aaaaaa" stroke-width="1" stroke-dasharray="4 3"/><text x="783" y="999" text-anchor="middle" dominant-baseline="central" font-size="11" fill="#666666" font-style="italic">SSE stream active — re-renders chart on inventory_change events</text><rect x="397.5" y="1021" width="8" height="30" rx="2" fill="#ffffff"/><line x1="407.5" y1="1040.8" x2="853.3" y2="1040.8" stroke="#333333" stroke-width="1.5" marker-end="url(#arr)"/><rect x="545.4" y="1019.7" width="170" height="15" fill="#ffffff" rx="2"/><text x="630.4" y="1027.2" text-anchor="middle" dominant-baseline="central" font-size="11" fill="#333333">GET /api/events?token=...</text><rect x="397.5" y="1021" width="8" height="30" rx="2" fill="none" stroke="#555555" stroke-width="1"/><rect x="855.3" y="1061" width="8" height="30" rx="2" fill="#ffffff"/><line x1="853.3" y1="1080.8" x2="407.5" y2="1080.8" stroke="#333333" stroke-width="1.5" stroke-dasharray="7 4" marker-end="url(#arr)"/><rect x="535.8" y="1059.7" width="189.20000000000002" height="15" fill="#ffffff" rx="2"/><text x="630.4" y="1067.2" text-anchor="middle" dominant-baseline="central" font-size="11" fill="#333333">SSE stream: inventory_change</text><rect x="855.3" y="1061" width="8" height="30" rx="2" fill="none" stroke="#555555" stroke-width="1"/><rect x="397.5" y="1101" width="8" height="30" rx="2" fill="#ffffff"/><line x1="395.5" y1="1120.8" x2="102.3" y2="1120.8" stroke="#333333" stroke-width="1.5" marker-end="url(#arr)"/><rect x="138.3" y="1099.7" width="221.20000000000002" height="15" fill="#ffffff" rx="2"/><text x="248.9" y="1107.2" text-anchor="middle" dominant-baseline="central" font-size="11" fill="#333333">Render BarChart (qty by category)</text><rect x="397.5" y="1101" width="8" height="30" rx="2" fill="none" stroke="#555555" stroke-width="1"/><rect x="26.299999999999997" y="1164" width="140" height="38" rx="5" fill="#f0f0f0" stroke="#555555" stroke-width="1"/><text x="96.3" y="1183" text-anchor="middle" dominant-baseline="central" font-size="11" font-weight="600" fill="#1a1a1a">User</text><rect x="178.89999999999998" y="1164" width="140" height="38" rx="5" fill="#f0f0f0" stroke="#555555" stroke-width="1"/><text x="248.89999999999998" y="1183" text-anchor="middle" dominant-baseline="central" font-size="11" font-weight="600" fill="#1a1a1a">Dashboard.tsx</text><rect x="331.5" y="1164" width="140" height="38" rx="5" fill="#f0f0f0" stroke="#555555" stroke-width="1"/><text x="401.5" y="1183" text-anchor="middle" dominant-baseline="central" font-size="11" font-weight="600" fill="#1a1a1a">StockLevelsCard.tsx</text><rect x="484.0999999999999" y="1164" width="140" height="38" rx="5" fill="#f0f0f0" stroke="#555555" stroke-width="1"/><text x="554.0999999999999" y="1183" text-anchor="middle" dominant-baseline="central" font-size="11" font-weight="600" fill="#1a1a1a">item_service.ts</text><rect x="636.6999999999999" y="1164" width="140" height="38" rx="5" fill="#f0f0f0" stroke="#555555" stroke-width="1"/><text x="706.6999999999999" y="1183" text-anchor="middle" dominant-baseline="central" font-size="11" font-weight="600" fill="#1a1a1a">category.ts</text><rect x="789.3" y="1164" width="140" height="38" rx="5" fill="#f0f0f0" stroke="#555555" stroke-width="1"/><text x="859.3" y="1183" text-anchor="middle" dominant-baseline="central" font-size="11" font-weight="600" fill="#1a1a1a">server.ts</text><rect x="941.8999999999999" y="1164" width="140" height="38" rx="5" fill="#f0f0f0" stroke="#555555" stroke-width="1"/><text x="1011.8999999999999" y="1183" text-anchor="middle" dominant-baseline="central" font-size="11" font-weight="600" fill="#1a1a1a">auth middleware</text><rect x="1094.5" y="1164" width="140" height="38" rx="5" fill="#f0f0f0" stroke="#555555" stroke-width="1"/><text x="1164.5" y="1183" text-anchor="middle" dominant-baseline="central" font-size="11" font-weight="600" fill="#1a1a1a">itemRouter.ts</text><rect x="1247.1" y="1164" width="140" height="38" rx="5" fill="#f0f0f0" stroke="#555555" stroke-width="1"/><text x="1317.1" y="1183" text-anchor="middle" dominant-baseline="central" font-size="11" font-weight="600" fill="#1a1a1a">categoryRouter.ts</text><rect x="1399.6999999999998" y="1164" width="140" height="38" rx="5" fill="#f0f0f0" stroke="#555555" stroke-width="1"/><text x="1469.6999999999998" y="1183" text-anchor="middle" dominant-baseline="central" font-size="11" font-weight="600" fill="#1a1a1a">Supabase</text></svg>