<svg xmlns="http://www.w3.org/2000/svg" width="1258" height="882" style="display:block;font-family:-apple-system,BlinkMacSystemFont,'Segoe UI',Roboto,sans-serif"><defs>
    <marker id="arr" viewBox="0 0 12 12" refX="10" refY="6" markerWidth="8" markerHeight="8" orient="auto-start-reverse">
      <path d="M1 1L10 6L1 11" fill="none" stroke="#333333" stroke-width="1.8" stroke-linecap="round" stroke-linejoin="round"/>
    </marker>
  </defs><rect width="1258" height="882" fill="#ffffff"/><rect x="26.125" y="16" width="140" height="38" rx="5" fill="#f0f0f0" stroke="#555555" stroke-width="1"/><text x="96.125" y="35" text-anchor="middle" dominant-baseline="central" font-size="11" font-weight="600" fill="#1a1a1a">User</text><rect x="178.375" y="16" width="140" height="38" rx="5" fill="#f0f0f0" stroke="#555555" stroke-width="1"/><text x="248.375" y="35" text-anchor="middle" dominant-baseline="central" font-size="11" font-weight="600" fill="#1a1a1a">Dashboard.tsx</text><rect x="330.625" y="16" width="140" height="38" rx="5" fill="#f0f0f0" stroke="#555555" stroke-width="1"/><text x="400.625" y="35" text-anchor="middle" dominant-baseline="central" font-size="11" font-weight="600" fill="#1a1a1a">SelectItemCard.tsx</text><rect x="482.875" y="16" width="140" height="38" rx="5" fill="#f0f0f0" stroke="#555555" stroke-width="1"/><text x="552.875" y="35" text-anchor="middle" dominant-baseline="central" font-size="11" font-weight="600" fill="#1a1a1a">item_service.ts</text><rect x="635.125" y="16" width="140" height="38" rx="5" fill="#f0f0f0" stroke="#555555" stroke-width="1"/><text x="705.125" y="35" text-anchor="middle" dominant-baseline="central" font-size="11" font-weight="600" fill="#1a1a1a">server.ts</text><rect x="787.375" y="16" width="140" height="38" rx="5" fill="#f0f0f0" stroke="#555555" stroke-width="1"/><text x="857.375" y="35" text-anchor="middle" dominant-baseline="central" font-size="11" font-weight="600" fill="#1a1a1a">auth middleware</text><rect x="939.625" y="16" width="140" height="38" rx="5" fill="#f0f0f0" stroke="#555555" stroke-width="1"/><text x="1009.625" y="35" text-anchor="middle" dominant-baseline="central" font-size="11" font-weight="600" fill="#1a1a1a">itemRouter.ts</text><rect x="1091.875" y="16" width="140" height="38" rx="5" fill="#f0f0f0" stroke="#555555" stroke-width="1"/><text x="1161.875" y="35" text-anchor="middle" dominant-baseline="central" font-size="11" font-weight="600" fill="#1a1a1a">Supabase</text><line x1="96.125" y1="54" x2="96.125" y2="824" stroke="#aaaaaa" stroke-width="1" stroke-dasharray="5 4"/><line x1="248.375" y1="54" x2="248.375" y2="824" stroke="#aaaaaa" stroke-width="1" stroke-dasharray="5 4"/><line x1="400.625" y1="54" x2="400.625" y2="824" stroke="#aaaaaa" stroke-width="1" stroke-dasharray="5 4"/><line x1="552.875" y1="54" x2="552.875" y2="824" stroke="#aaaaaa" stroke-width="1" stroke-dasharray="5 4"/><line x1="705.125" y1="54" x2="705.125" y2="824" stroke="#aaaaaa" stroke-width="1" stroke-dasharray="5 4"/><line x1="857.375" y1="54" x2="857.375" y2="824" stroke="#aaaaaa" stroke-width="1" stroke-dasharray="5 4"/><line x1="1009.625" y1="54" x2="1009.625" y2="824" stroke="#aaaaaa" stroke-width="1" stroke-dasharray="5 4"/><line x1="1161.875" y1="54" x2="1161.875" y2="824" stroke="#aaaaaa" stroke-width="1" stroke-dasharray="5 4"/><rect x="92.125" y="83" width="8" height="30" rx="2" fill="#ffffff"/><line x1="102.125" y1="102.8" x2="242.375" y2="102.8" stroke="#333333" stroke-width="1.5" marker-end="url(#arr)"/><rect x="112.85" y="81.7" width="118.80000000000001" height="15" fill="#ffffff" rx="2"/><text x="172.25" y="89.2" text-anchor="middle" dominant-baseline="central" font-size="11" fill="#333333">Navigate to /home</text><rect x="92.125" y="83" width="8" height="30" rx="2" fill="none" stroke="#555555" stroke-width="1"/><rect x="244.375" y="123" width="8" height="30" rx="2" fill="#ffffff"/><line x1="254.375" y1="142.8" x2="394.625" y2="142.8" stroke="#333333" stroke-width="1.5" marker-end="url(#arr)"/><rect x="239.5" y="121.69999999999999" width="170" height="15" fill="#ffffff" rx="2"/><text x="324.5" y="129.2" text-anchor="middle" dominant-baseline="central" font-size="11" fill="#333333">Render <selectitemcard/></text><rect x="244.375" y="123" width="8" height="30" rx="2" fill="none" stroke="#555555" stroke-width="1"/><rect x="396.625" y="163" width="8" height="30" rx="2" fill="#ffffff"/><line x1="406.625" y1="182.8" x2="546.875" y2="182.8" stroke="#333333" stroke-width="1.5" marker-end="url(#arr)"/><rect x="439.75" y="161.7" width="74" height="15" fill="#ffffff" rx="2"/><text x="476.75" y="169.2" text-anchor="middle" dominant-baseline="central" font-size="11" fill="#333333">getItems()</text><rect x="396.625" y="163" width="8" height="30" rx="2" fill="none" stroke="#555555" stroke-width="1"/><rect x="548.875" y="203" width="8" height="30" rx="2" fill="#ffffff"/><line x1="558.875" y1="222.8" x2="699.125" y2="222.8" stroke="#333333" stroke-width="1.5" marker-end="url(#arr)"/><rect x="531.2" y="201.7" width="195.60000000000002" height="15" fill="#ffffff" rx="2"/><text x="629" y="209.2" text-anchor="middle" dominant-baseline="central" font-size="11" fill="#333333">GET /api/items + Bearer token</text><rect x="548.875" y="203" width="8" height="30" rx="2" fill="none" stroke="#555555" stroke-width="1"/><rect x="701.125" y="243" width="8" height="30" rx="2" fill="#ffffff"/><line x1="711.125" y1="262.8" x2="851.375" y2="262.8" stroke="#333333" stroke-width="1.5" marker-end="url(#arr)"/><rect x="734.65" y="241.7" width="93.2" height="15" fill="#ffffff" rx="2"/><text x="781.25" y="249.2" text-anchor="middle" dominant-baseline="central" font-size="11" fill="#333333">authorizeUser</text><rect x="701.125" y="243" width="8" height="30" rx="2" fill="none" stroke="#555555" stroke-width="1"/><rect x="853.375" y="283" width="8" height="44" rx="2" fill="#ffffff"/><path d="M857.375 288.8 L885.375 288.8 L885.375 321.2 L857.375 321.2" fill="none" stroke="#333333" stroke-width="1.5" marker-end="url(#arr)"/><text font-size="11" fill="#333333">
          <tspan x="891.375" y="296.9" dominant-baseline="central">jwt.verify(toke</tspan>
          <tspan x="891.375" y="313.1" dominant-baseline="central">n)</tspan>
        </text><rect x="853.375" y="283" width="8" height="44" rx="2" fill="none" stroke="#555555" stroke-width="1"/><rect x="853.375" y="337" width="8" height="30" rx="2" fill="#ffffff"/><line x1="863.375" y1="356.8" x2="1003.625" y2="356.8" stroke="#333333" stroke-width="1.5" marker-end="url(#arr)"/><rect x="861.3" y="335.7" width="144.4" height="15" fill="#ffffff" rx="2"/><text x="933.5" y="343.2" text-anchor="middle" dominant-baseline="central" font-size="11" fill="#333333">next() — req.user set</text><rect x="853.375" y="337" width="8" height="30" rx="2" fill="none" stroke="#555555" stroke-width="1"/><rect x="1005.625" y="377" width="8" height="30" rx="2" fill="#ffffff"/><line x1="1015.625" y1="396.8" x2="1155.875" y2="396.8" stroke="#333333" stroke-width="1.5" marker-end="url(#arr)"/><rect x="1007.15" y="375.7" width="157.20000000000002" height="15" fill="#ffffff" rx="2"/><text x="1085.75" y="383.2" text-anchor="middle" dominant-baseline="central" font-size="11" fill="#333333">inventory_item.select()</text><rect x="1005.625" y="377" width="8" height="30" rx="2" fill="none" stroke="#555555" stroke-width="1"/><rect x="1157.875" y="417" width="8" height="30" rx="2" fill="#ffffff"/><line x1="1155.875" y1="436.8" x2="1015.625" y2="436.8" stroke="#333333" stroke-width="1.5" stroke-dasharray="7 4" marker-end="url(#arr)"/><rect x="1045.55" y="415.7" width="80.4" height="15" fill="#ffffff" rx="2"/><text x="1085.75" y="423.2" text-anchor="middle" dominant-baseline="central" font-size="11" fill="#333333">item docs[]</text><rect x="1157.875" y="417" width="8" height="30" rx="2" fill="none" stroke="#555555" stroke-width="1"/><rect x="1005.625" y="457" width="8" height="30" rx="2" fill="#ffffff"/><line x1="1003.625" y1="476.8" x2="711.125" y2="476.8" stroke="#333333" stroke-width="1.5" stroke-dasharray="7 4" marker-end="url(#arr)"/><rect x="817.175" y="455.7" width="80.4" height="15" fill="#ffffff" rx="2"/><text x="857.375" y="463.2" text-anchor="middle" dominant-baseline="central" font-size="11" fill="#333333">200 items[]</text><rect x="1005.625" y="457" width="8" height="30" rx="2" fill="none" stroke="#555555" stroke-width="1"/><rect x="701.125" y="497" width="8" height="30" rx="2" fill="#ffffff"/><line x1="699.125" y1="516.8" x2="558.875" y2="516.8" stroke="#333333" stroke-width="1.5" stroke-dasharray="7 4" marker-end="url(#arr)"/><rect x="588.8" y="495.7" width="80.4" height="15" fill="#ffffff" rx="2"/><text x="629" y="503.2" text-anchor="middle" dominant-baseline="central" font-size="11" fill="#333333">200 items[]</text><rect x="701.125" y="497" width="8" height="30" rx="2" fill="none" stroke="#555555" stroke-width="1"/><rect x="548.875" y="537" width="8" height="30" rx="2" fill="#ffffff"/><line x1="546.875" y1="556.8" x2="406.625" y2="556.8" stroke="#333333" stroke-width="1.5" stroke-dasharray="7 4" marker-end="url(#arr)"/><rect x="449.35" y="535.7" width="54.800000000000004" height="15" fill="#ffffff" rx="2"/><text x="476.75" y="543.2" text-anchor="middle" dominant-baseline="central" font-size="11" fill="#333333">items[]</text><rect x="548.875" y="537" width="8" height="30" rx="2" fill="none" stroke="#555555" stroke-width="1"/><rect x="92.125" y="577" width="8" height="30" rx="2" fill="#ffffff"/><line x1="102.125" y1="596.8" x2="394.625" y2="596.8" stroke="#333333" stroke-width="1.5" marker-end="url(#arr)"/><rect x="147.375" y="575.7" width="202" height="15" fill="#ffffff" rx="2"/><text x="248.375" y="583.2" text-anchor="middle" dominant-baseline="central" font-size="11" fill="#333333">Type item name in search input</text><rect x="92.125" y="577" width="8" height="30" rx="2" fill="none" stroke="#555555" stroke-width="1"/><rect x="396.625" y="617" width="8" height="44" rx="2" fill="#ffffff"/><path d="M400.625 622.8 L428.625 622.8 L428.625 655.2 L400.625 655.2" fill="none" stroke="#333333" stroke-width="1.5" marker-end="url(#arr)"/><text font-size="11" fill="#333333">
          <tspan x="434.625" y="630.9" dominant-baseline="central">Filter datalist</tspan>
          <tspan x="434.625" y="647.1" dominant-baseline="central">suggestions</tspan>
        </text><rect x="396.625" y="617" width="8" height="44" rx="2" fill="none" stroke="#555555" stroke-width="1"/><rect x="92.125" y="671" width="8" height="30" rx="2" fill="#ffffff"/><line x1="102.125" y1="690.8" x2="394.625" y2="690.8" stroke="#333333" stroke-width="1.5" marker-end="url(#arr)"/><rect x="163.375" y="669.7" width="170" height="15" fill="#ffffff" rx="2"/><text x="248.375" y="677.2" text-anchor="middle" dominant-baseline="central" font-size="11" fill="#333333">Select item from datalist</text><rect x="92.125" y="671" width="8" height="30" rx="2" fill="none" stroke="#555555" stroke-width="1"/><rect x="396.625" y="711" width="8" height="44" rx="2" fill="#ffffff"/><path d="M400.625 716.8 L428.625 716.8 L428.625 749.2 L400.625 749.2" fill="none" stroke="#333333" stroke-width="1.5" marker-end="url(#arr)"/><text font-size="11" fill="#333333">
          <tspan x="434.625" y="724.9" dominant-baseline="central">setSelectedItem</tspan>
          <tspan x="434.625" y="741.1" dominant-baseline="central">(item)</tspan>
        </text><rect x="396.625" y="711" width="8" height="44" rx="2" fill="none" stroke="#555555" stroke-width="1"/><rect x="396.625" y="765" width="8" height="30" rx="2" fill="#ffffff"/><line x1="394.625" y1="784.8" x2="102.125" y2="784.8" stroke="#333333" stroke-width="1.5" marker-end="url(#arr)"/><rect x="96.17499999999998" y="763.7" width="304.40000000000003" height="15" fill="#ffffff" rx="2"/><text x="248.375" y="771.2" text-anchor="middle" dominant-baseline="central" font-size="11" fill="#333333">Render item details (qty, threshold, category)</text><rect x="396.625" y="765" width="8" height="30" rx="2" fill="none" stroke="#555555" stroke-width="1"/><rect x="26.125" y="828" width="140" height="38" rx="5" fill="#f0f0f0" stroke="#555555" stroke-width="1"/><text x="96.125" y="847" text-anchor="middle" dominant-baseline="central" font-size="11" font-weight="600" fill="#1a1a1a">User</text><rect x="178.375" y="828" width="140" height="38" rx="5" fill="#f0f0f0" stroke="#555555" stroke-width="1"/><text x="248.375" y="847" text-anchor="middle" dominant-baseline="central" font-size="11" font-weight="600" fill="#1a1a1a">Dashboard.tsx</text><rect x="330.625" y="828" width="140" height="38" rx="5" fill="#f0f0f0" stroke="#555555" stroke-width="1"/><text x="400.625" y="847" text-anchor="middle" dominant-baseline="central" font-size="11" font-weight="600" fill="#1a1a1a">SelectItemCard.tsx</text><rect x="482.875" y="828" width="140" height="38" rx="5" fill="#f0f0f0" stroke="#555555" stroke-width="1"/><text x="552.875" y="847" text-anchor="middle" dominant-baseline="central" font-size="11" font-weight="600" fill="#1a1a1a">item_service.ts</text><rect x="635.125" y="828" width="140" height="38" rx="5" fill="#f0f0f0" stroke="#555555" stroke-width="1"/><text x="705.125" y="847" text-anchor="middle" dominant-baseline="central" font-size="11" font-weight="600" fill="#1a1a1a">server.ts</text><rect x="787.375" y="828" width="140" height="38" rx="5" fill="#f0f0f0" stroke="#555555" stroke-width="1"/><text x="857.375" y="847" text-anchor="middle" dominant-baseline="central" font-size="11" font-weight="600" fill="#1a1a1a">auth middleware</text><rect x="939.625" y="828" width="140" height="38" rx="5" fill="#f0f0f0" stroke="#555555" stroke-width="1"/><text x="1009.625" y="847" text-anchor="middle" dominant-baseline="central" font-size="11" font-weight="600" fill="#1a1a1a">itemRouter.ts</text><rect x="1091.875" y="828" width="140" height="38" rx="5" fill="#f0f0f0" stroke="#555555" stroke-width="1"/><text x="1161.875" y="847" text-anchor="middle" dominant-baseline="central" font-size="11" font-weight="600" fill="#1a1a1a">Supabase</text></svg>