<svg xmlns="http://www.w3.org/2000/svg" width="1566" height="1172" style="display:block;font-family:-apple-system,BlinkMacSystemFont,'Segoe UI',Roboto,sans-serif"><defs>
    <marker id="arr" viewBox="0 0 12 12" refX="10" refY="6" markerWidth="8" markerHeight="8" orient="auto-start-reverse">
      <path d="M1 1L10 6L1 11" fill="none" stroke="#333333" stroke-width="1.8" stroke-linecap="round" stroke-linejoin="round"/>
    </marker>
  </defs><rect width="1566" height="1172" fill="#ffffff"/><rect x="26.299999999999997" y="16" width="140" height="38" rx="5" fill="#f0f0f0" stroke="#555555" stroke-width="1"/><text x="96.3" y="35" text-anchor="middle" dominant-baseline="central" font-size="11" font-weight="600" fill="#1a1a1a">User</text><rect x="178.89999999999998" y="16" width="140" height="38" rx="5" fill="#f0f0f0" stroke="#555555" stroke-width="1"/><text x="248.89999999999998" y="35" text-anchor="middle" dominant-baseline="central" font-size="11" font-weight="600" fill="#1a1a1a">TopNavbar.tsx</text><rect x="331.5" y="16" width="140" height="38" rx="5" fill="#f0f0f0" stroke="#555555" stroke-width="1"/><text x="401.5" y="35" text-anchor="middle" dominant-baseline="central" font-size="11" font-weight="600" fill="#1a1a1a">NotificationPage.tsx</text><rect x="484.0999999999999" y="16" width="140" height="38" rx="5" fill="#f0f0f0" stroke="#555555" stroke-width="1"/><text text-anchor="middle" font-size="11" font-weight="600" fill="#1a1a1a">
        <tspan x="554.0999999999999" y="28" dominant-baseline="central">NotificationListener</tspan>
        <tspan x="554.0999999999999" y="42" dominant-baseline="central">.tsx</tspan>
      </text><rect x="636.6999999999999" y="16" width="140" height="38" rx="5" fill="#f0f0f0" stroke="#555555" stroke-width="1"/><text x="706.6999999999999" y="35" text-anchor="middle" dominant-baseline="central" font-size="11" font-weight="600" fill="#1a1a1a">item_service.ts</text><rect x="789.3" y="16" width="140" height="38" rx="5" fill="#f0f0f0" stroke="#555555" stroke-width="1"/><text x="859.3" y="35" text-anchor="middle" dominant-baseline="central" font-size="11" font-weight="600" fill="#1a1a1a">server.ts</text><rect x="941.8999999999999" y="16" width="140" height="38" rx="5" fill="#f0f0f0" stroke="#555555" stroke-width="1"/><text x="1011.8999999999999" y="35" text-anchor="middle" dominant-baseline="central" font-size="11" font-weight="600" fill="#1a1a1a">auth middleware</text><rect x="1094.5" y="16" width="140" height="38" rx="5" fill="#f0f0f0" stroke="#555555" stroke-width="1"/><text x="1164.5" y="35" text-anchor="middle" dominant-baseline="central" font-size="11" font-weight="600" fill="#1a1a1a">itemRouter.ts</text><rect x="1247.1" y="16" width="140" height="38" rx="5" fill="#f0f0f0" stroke="#555555" stroke-width="1"/><text x="1317.1" y="35" text-anchor="middle" dominant-baseline="central" font-size="11" font-weight="600" fill="#1a1a1a">NotificationProvider</text><rect x="1399.6999999999998" y="16" width="140" height="38" rx="5" fill="#f0f0f0" stroke="#555555" stroke-width="1"/><text x="1469.6999999999998" y="35" text-anchor="middle" dominant-baseline="central" font-size="11" font-weight="600" fill="#1a1a1a">Supabase</text><line x1="96.3" y1="54" x2="96.3" y2="1114" stroke="#aaaaaa" stroke-width="1" stroke-dasharray="5 4"/><line x1="248.89999999999998" y1="54" x2="248.89999999999998" y2="1114" stroke="#aaaaaa" stroke-width="1" stroke-dasharray="5 4"/><line x1="401.5" y1="54" x2="401.5" y2="1114" stroke="#aaaaaa" stroke-width="1" stroke-dasharray="5 4"/><line x1="554.0999999999999" y1="54" x2="554.0999999999999" y2="1114" stroke="#aaaaaa" stroke-width="1" stroke-dasharray="5 4"/><line x1="706.6999999999999" y1="54" x2="706.6999999999999" y2="1114" stroke="#aaaaaa" stroke-width="1" stroke-dasharray="5 4"/><line x1="859.3" y1="54" x2="859.3" y2="1114" stroke="#aaaaaa" stroke-width="1" stroke-dasharray="5 4"/><line x1="1011.8999999999999" y1="54" x2="1011.8999999999999" y2="1114" stroke="#aaaaaa" stroke-width="1" stroke-dasharray="5 4"/><line x1="1164.5" y1="54" x2="1164.5" y2="1114" stroke="#aaaaaa" stroke-width="1" stroke-dasharray="5 4"/><line x1="1317.1" y1="54" x2="1317.1" y2="1114" stroke="#aaaaaa" stroke-width="1" stroke-dasharray="5 4"/><line x1="1469.6999999999998" y1="54" x2="1469.6999999999998" y2="1114" stroke="#aaaaaa" stroke-width="1" stroke-dasharray="5 4"/><rect x="24" y="80" width="1518" height="24" rx="3" fill="#fafafa" stroke="#aaaaaa" stroke-width="1" stroke-dasharray="4 3"/><text x="783" y="91" text-anchor="middle" dominant-baseline="central" font-size="11" fill="#666666" font-style="italic">Background: NotificationListener syncs on mount + SSE events</text><rect x="550.0999999999999" y="113" width="8" height="30" rx="2" fill="#ffffff"/><line x1="560.0999999999999" y1="132.8" x2="700.6999999999999" y2="132.8" stroke="#333333" stroke-width="1.5" marker-end="url(#arr)"/><rect x="593.3999999999999" y="111.7" width="74" height="15" fill="#ffffff" rx="2"/><text x="630.3999999999999" y="119.2" text-anchor="middle" dominant-baseline="central" font-size="11" fill="#333333">getItems()</text><rect x="550.0999999999999" y="113" width="8" height="30" rx="2" fill="none" stroke="#555555" stroke-width="1"/><rect x="702.6999999999999" y="153" width="8" height="30" rx="2" fill="#ffffff"/><line x1="712.6999999999999" y1="172.8" x2="853.3" y2="172.8" stroke="#333333" stroke-width="1.5" marker-end="url(#arr)"/><rect x="685.2" y="151.7" width="195.60000000000002" height="15" fill="#ffffff" rx="2"/><text x="783" y="159.2" text-anchor="middle" dominant-baseline="central" font-size="11" fill="#333333">GET /api/items + Bearer token</text><rect x="702.6999999999999" y="153" width="8" height="30" rx="2" fill="none" stroke="#555555" stroke-width="1"/><rect x="855.3" y="193" width="8" height="30" rx="2" fill="#ffffff"/><line x1="865.3" y1="212.8" x2="1005.8999999999999" y2="212.8" stroke="#333333" stroke-width="1.5" marker-end="url(#arr)"/><rect x="888.9999999999999" y="191.7" width="93.2" height="15" fill="#ffffff" rx="2"/><text x="935.5999999999999" y="199.2" text-anchor="middle" dominant-baseline="central" font-size="11" fill="#333333">authorizeUser</text><rect x="855.3" y="193" width="8" height="30" rx="2" fill="none" stroke="#555555" stroke-width="1"/><rect x="1007.8999999999999" y="233" width="8" height="44" rx="2" fill="#ffffff"/><path d="M1011.8999999999999 238.8 L1039.8999999999999 238.8 L1039.8999999999999 271.2 L1011.8999999999999 271.2" fill="none" stroke="#333333" stroke-width="1.5" marker-end="url(#arr)"/><text font-size="11" fill="#333333">
          <tspan x="1045.8999999999999" y="246.9" dominant-baseline="central">jwt.verify(token</tspan>
          <tspan x="1045.8999999999999" y="263.1" dominant-baseline="central">)</tspan>
        </text><rect x="1007.8999999999999" y="233" width="8" height="44" rx="2" fill="none" stroke="#555555" stroke-width="1"/><rect x="1007.8999999999999" y="287" width="8" height="30" rx="2" fill="#ffffff"/><line x1="1017.8999999999999" y1="306.8" x2="1158.5" y2="306.8" stroke="#333333" stroke-width="1.5" marker-end="url(#arr)"/><rect x="1063.9999999999998" y="285.7" width="48.400000000000006" height="15" fill="#ffffff" rx="2"/><text x="1088.1999999999998" y="293.2" text-anchor="middle" dominant-baseline="central" font-size="11" fill="#333333">next()</text><rect x="1007.8999999999999" y="287" width="8" height="30" rx="2" fill="none" stroke="#555555" stroke-width="1"/><rect x="1160.5" y="327" width="8" height="30" rx="2" fill="#ffffff"/><line x1="1170.5" y1="346.8" x2="1463.6999999999998" y2="346.8" stroke="#333333" stroke-width="1.5" marker-end="url(#arr)"/><rect x="1238.5" y="325.7" width="157.20000000000002" height="15" fill="#ffffff" rx="2"/><text x="1317.1" y="333.2" text-anchor="middle" dominant-baseline="central" font-size="11" fill="#333333">inventory_item.select()</text><rect x="1160.5" y="327" width="8" height="30" rx="2" fill="none" stroke="#555555" stroke-width="1"/><rect x="1465.6999999999998" y="367" width="8" height="30" rx="2" fill="#ffffff"/><line x1="1463.6999999999998" y1="386.8" x2="1170.5" y2="386.8" stroke="#333333" stroke-width="1.5" stroke-dasharray="7 4" marker-end="url(#arr)"/><rect x="1276.8999999999999" y="365.7" width="80.4" height="15" fill="#ffffff" rx="2"/><text x="1317.1" y="373.2" text-anchor="middle" dominant-baseline="central" font-size="11" fill="#333333">item docs[]</text><rect x="1465.6999999999998" y="367" width="8" height="30" rx="2" fill="none" stroke="#555555" stroke-width="1"/><rect x="1160.5" y="407" width="8" height="30" rx="2" fill="#ffffff"/><line x1="1158.5" y1="426.8" x2="865.3" y2="426.8" stroke="#333333" stroke-width="1.5" stroke-dasharray="7 4" marker-end="url(#arr)"/><rect x="971.6999999999999" y="405.7" width="80.4" height="15" fill="#ffffff" rx="2"/><text x="1011.9" y="413.2" text-anchor="middle" dominant-baseline="central" font-size="11" fill="#333333">200 items[]</text><rect x="1160.5" y="407" width="8" height="30" rx="2" fill="none" stroke="#555555" stroke-width="1"/><rect x="855.3" y="447" width="8" height="30" rx="2" fill="#ffffff"/><line x1="853.3" y1="466.8" x2="712.6999999999999" y2="466.8" stroke="#333333" stroke-width="1.5" stroke-dasharray="7 4" marker-end="url(#arr)"/><rect x="742.8" y="445.7" width="80.4" height="15" fill="#ffffff" rx="2"/><text x="783" y="453.2" text-anchor="middle" dominant-baseline="central" font-size="11" fill="#333333">200 items[]</text><rect x="855.3" y="447" width="8" height="30" rx="2" fill="none" stroke="#555555" stroke-width="1"/><rect x="702.6999999999999" y="487" width="8" height="30" rx="2" fill="#ffffff"/><line x1="700.6999999999999" y1="506.8" x2="560.0999999999999" y2="506.8" stroke="#333333" stroke-width="1.5" stroke-dasharray="7 4" marker-end="url(#arr)"/><rect x="602.9999999999999" y="485.7" width="54.800000000000004" height="15" fill="#ffffff" rx="2"/><text x="630.3999999999999" y="493.2" text-anchor="middle" dominant-baseline="central" font-size="11" fill="#333333">items[]</text><rect x="702.6999999999999" y="487" width="8" height="30" rx="2" fill="none" stroke="#555555" stroke-width="1"/><rect x="550.0999999999999" y="527" width="8" height="30" rx="2" fill="#ffffff"/><line x1="560.0999999999999" y1="546.8" x2="1311.1" y2="546.8" stroke="#333333" stroke-width="1.5" marker-end="url(#arr)"/><rect x="853.8" y="525.7" width="163.60000000000002" height="15" fill="#ffffff" rx="2"/><text x="935.5999999999999" y="533.2" text-anchor="middle" dominant-baseline="central" font-size="11" fill="#333333">syncNotifications(items)</text><rect x="550.0999999999999" y="527" width="8" height="30" rx="2" fill="none" stroke="#555555" stroke-width="1"/><rect x="24" y="564" width="1518" height="24" rx="3" fill="#fafafa" stroke="#aaaaaa" stroke-width="1" stroke-dasharray="4 3"/><text x="783" y="575" text-anchor="middle" dominant-baseline="central" font-size="11" fill="#666666" font-style="italic">quantity &lt;= lowThreshold → create AppNotification</text><rect x="1313.1" y="597" width="8" height="44" rx="2" fill="#ffffff"/><path d="M1317.1 602.8 L1345.1 602.8 L1345.1 635.2 L1317.1 635.2" fill="none" stroke="#333333" stroke-width="1.5" marker-end="url(#arr)"/><text font-size="11" fill="#333333">
          <tspan x="1351.1" y="610.9" dominant-baseline="central">Persist notifications</tspan>
          <tspan x="1351.1" y="627.1" dominant-baseline="central">to localStorage</tspan>
        </text><rect x="1313.1" y="597" width="8" height="44" rx="2" fill="none" stroke="#555555" stroke-width="1"/><rect x="1313.1" y="651" width="8" height="30" rx="2" fill="#ffffff"/><line x1="1311.1" y1="670.8" x2="560.0999999999999" y2="670.8" stroke="#333333" stroke-width="1.5" stroke-dasharray="7 4" marker-end="url(#arr)"/><rect x="863.3999999999999" y="649.7" width="144.4" height="15" fill="#ffffff" rx="2"/><text x="935.5999999999999" y="657.2" text-anchor="middle" dominant-baseline="central" font-size="11" fill="#333333">items below threshold</text><rect x="1313.1" y="651" width="8" height="30" rx="2" fill="none" stroke="#555555" stroke-width="1"/><rect x="550.0999999999999" y="691" width="8" height="30" rx="2" fill="#ffffff"/><line x1="548.0999999999999" y1="710.8" x2="102.3" y2="710.8" stroke="#333333" stroke-width="1.5" marker-end="url(#arr)"/><rect x="208.19999999999993" y="689.7" width="234" height="15" fill="#ffffff" rx="2"/><text x="325.19999999999993" y="697.2" text-anchor="middle" dominant-baseline="central" font-size="11" fill="#333333">Show toast: "Low stock: {itemName}"</text><rect x="550.0999999999999" y="691" width="8" height="30" rx="2" fill="none" stroke="#555555" stroke-width="1"/><rect x="24" y="728" width="1518" height="24" rx="3" fill="#fafafa" stroke="#aaaaaa" stroke-width="1" stroke-dasharray="4 3"/><text x="783" y="739" text-anchor="middle" dominant-baseline="central" font-size="11" fill="#666666" font-style="italic">Foreground: User opens Notifications page</text><rect x="92.3" y="761" width="8" height="30" rx="2" fill="#ffffff"/><line x1="102.3" y1="780.8" x2="242.89999999999998" y2="780.8" stroke="#333333" stroke-width="1.5" marker-end="url(#arr)"/><rect x="87.6" y="759.7" width="170" height="15" fill="#ffffff" rx="2"/><text x="172.6" y="767.2" text-anchor="middle" dominant-baseline="central" font-size="11" fill="#333333">Click Notifications badge</text><rect x="92.3" y="761" width="8" height="30" rx="2" fill="none" stroke="#555555" stroke-width="1"/><rect x="244.89999999999998" y="801" width="8" height="30" rx="2" fill="#ffffff"/><line x1="242.89999999999998" y1="820.8" x2="102.3" y2="820.8" stroke="#333333" stroke-width="1.5" marker-end="url(#arr)"/><rect x="97.19999999999999" y="799.7" width="150.8" height="15" fill="#ffffff" rx="2"/><text x="172.6" y="807.2" text-anchor="middle" dominant-baseline="central" font-size="11" fill="#333333">Link to /notifications</text><rect x="244.89999999999998" y="801" width="8" height="30" rx="2" fill="none" stroke="#555555" stroke-width="1"/><rect x="92.3" y="841" width="8" height="30" rx="2" fill="#ffffff"/><line x1="102.3" y1="860.8" x2="395.5" y2="860.8" stroke="#333333" stroke-width="1.5" marker-end="url(#arr)"/><rect x="160.7" y="839.7" width="176.4" height="15" fill="#ffffff" rx="2"/><text x="248.9" y="847.2" text-anchor="middle" dominant-baseline="central" font-size="11" fill="#333333">Navigate to /notifications</text><rect x="92.3" y="841" width="8" height="30" rx="2" fill="none" stroke="#555555" stroke-width="1"/><rect x="397.5" y="881" width="8" height="30" rx="2" fill="#ffffff"/><line x1="407.5" y1="900.8" x2="1311.1" y2="900.8" stroke="#333333" stroke-width="1.5" marker-end="url(#arr)"/><rect x="796.6999999999999" y="879.7" width="125.2" height="15" fill="#ffffff" rx="2"/><text x="859.3" y="887.2" text-anchor="middle" dominant-baseline="central" font-size="11" fill="#333333">useNotifications()</text><rect x="397.5" y="881" width="8" height="30" rx="2" fill="none" stroke="#555555" stroke-width="1"/><rect x="1313.1" y="921" width="8" height="30" rx="2" fill="#ffffff"/><line x1="1311.1" y1="940.8" x2="407.5" y2="940.8" stroke="#333333" stroke-width="1.5" stroke-dasharray="7 4" marker-end="url(#arr)"/><rect x="748.6999999999999" y="919.7" width="221.20000000000002" height="15" fill="#ffffff" rx="2"/><text x="859.3" y="927.2" text-anchor="middle" dominant-baseline="central" font-size="11" fill="#333333">notifications[] from localStorage</text><rect x="1313.1" y="921" width="8" height="30" rx="2" fill="none" stroke="#555555" stroke-width="1"/><rect x="397.5" y="961" width="8" height="30" rx="2" fill="#ffffff"/><line x1="407.5" y1="980.8" x2="1311.1" y2="980.8" stroke="#333333" stroke-width="1.5" marker-end="url(#arr)"/><rect x="812.6999999999999" y="959.7" width="93.2" height="15" fill="#ffffff" rx="2"/><text x="859.3" y="967.2" text-anchor="middle" dominant-baseline="central" font-size="11" fill="#333333">markAllRead()</text><rect x="397.5" y="961" width="8" height="30" rx="2" fill="none" stroke="#555555" stroke-width="1"/><rect x="1313.1" y="1001" width="8" height="44" rx="2" fill="#ffffff"/><path d="M1317.1 1006.8 L1345.1 1006.8 L1345.1 1039.2 L1317.1 1039.2" fill="none" stroke="#333333" stroke-width="1.5" marker-end="url(#arr)"/><text font-size="11" fill="#333333">
          <tspan x="1351.1" y="1014.9" dominant-baseline="central">Update viewedAt</tspan>
          <tspan x="1351.1" y="1031.1" dominant-baseline="central">timestamp</tspan>
        </text><rect x="1313.1" y="1001" width="8" height="44" rx="2" fill="none" stroke="#555555" stroke-width="1"/><rect x="397.5" y="1055" width="8" height="30" rx="2" fill="#ffffff"/><line x1="395.5" y1="1074.8" x2="102.3" y2="1074.8" stroke="#333333" stroke-width="1.5" marker-end="url(#arr)"/><rect x="131.9" y="1053.7" width="234" height="15" fill="#ffffff" rx="2"/><text x="248.9" y="1061.2" text-anchor="middle" dominant-baseline="central" font-size="11" fill="#333333">Render low-stock notification cards</text><rect x="397.5" y="1055" width="8" height="30" rx="2" fill="none" stroke="#555555" stroke-width="1"/><rect x="26.299999999999997" y="1118" width="140" height="38" rx="5" fill="#f0f0f0" stroke="#555555" stroke-width="1"/><text x="96.3" y="1137" text-anchor="middle" dominant-baseline="central" font-size="11" font-weight="600" fill="#1a1a1a">User</text><rect x="178.89999999999998" y="1118" width="140" height="38" rx="5" fill="#f0f0f0" stroke="#555555" stroke-width="1"/><text x="248.89999999999998" y="1137" text-anchor="middle" dominant-baseline="central" font-size="11" font-weight="600" fill="#1a1a1a">TopNavbar.tsx</text><rect x="331.5" y="1118" width="140" height="38" rx="5" fill="#f0f0f0" stroke="#555555" stroke-width="1"/><text x="401.5" y="1137" text-anchor="middle" dominant-baseline="central" font-size="11" font-weight="600" fill="#1a1a1a">NotificationPage.tsx</text><rect x="484.0999999999999" y="1118" width="140" height="38" rx="5" fill="#f0f0f0" stroke="#555555" stroke-width="1"/><text text-anchor="middle" font-size="11" font-weight="600" fill="#1a1a1a">
        <tspan x="554.0999999999999" y="1130" dominant-baseline="central">NotificationListener</tspan>
        <tspan x="554.0999999999999" y="1144" dominant-baseline="central">.tsx</tspan>
      </text><rect x="636.6999999999999" y="1118" width="140" height="38" rx="5" fill="#f0f0f0" stroke="#555555" stroke-width="1"/><text x="706.6999999999999" y="1137" text-anchor="middle" dominant-baseline="central" font-size="11" font-weight="600" fill="#1a1a1a">item_service.ts</text><rect x="789.3" y="1118" width="140" height="38" rx="5" fill="#f0f0f0" stroke="#555555" stroke-width="1"/><text x="859.3" y="1137" text-anchor="middle" dominant-baseline="central" font-size="11" font-weight="600" fill="#1a1a1a">server.ts</text><rect x="941.8999999999999" y="1118" width="140" height="38" rx="5" fill="#f0f0f0" stroke="#555555" stroke-width="1"/><text x="1011.8999999999999" y="1137" text-anchor="middle" dominant-baseline="central" font-size="11" font-weight="600" fill="#1a1a1a">auth middleware</text><rect x="1094.5" y="1118" width="140" height="38" rx="5" fill="#f0f0f0" stroke="#555555" stroke-width="1"/><text x="1164.5" y="1137" text-anchor="middle" dominant-baseline="central" font-size="11" font-weight="600" fill="#1a1a1a">itemRouter.ts</text><rect x="1247.1" y="1118" width="140" height="38" rx="5" fill="#f0f0f0" stroke="#555555" stroke-width="1"/><text x="1317.1" y="1137" text-anchor="middle" dominant-baseline="central" font-size="11" font-weight="600" fill="#1a1a1a">NotificationProvider</text><rect x="1399.6999999999998" y="1118" width="140" height="38" rx="5" fill="#f0f0f0" stroke="#555555" stroke-width="1"/><text x="1469.6999999999998" y="1137" text-anchor="middle" dominant-baseline="central" font-size="11" font-weight="600" fill="#1a1a1a">Supabase</text></svg>