<?xml version="1.0" encoding="UTF-8" standalone="no"?>
<svg
   version="1.1"
   id="Layer_1"
   x="0px"
   y="0px"
   width="768"
   viewBox="0 0 768 512"
   enable-background="new 0 0 1024 1024"
   xml:space="preserve"
   sodipodi:docname="Logo.svg"
   height="512"
   inkscape:version="1.4.2 (f4327f4, 2025-05-13)"
   xmlns:inkscape="http://www.inkscape.org/namespaces/inkscape"
   xmlns:sodipodi="http://sodipodi.sourceforge.net/DTD/sodipodi-0.dtd"
   xmlns="http://www.w3.org/2000/svg"
   xmlns:svg="http://www.w3.org/2000/svg"><defs
   id="defs9" /><sodipodi:namedview
   id="namedview9"
   pagecolor="#ffffff"
   bordercolor="#000000"
   borderopacity="0.25"
   inkscape:showpageshadow="2"
   inkscape:pageopacity="0.0"
   inkscape:pagecheckerboard="0"
   inkscape:deskcolor="#d1d1d1"
   inkscape:zoom="0.78808594"
   inkscape:cx="513.2689"
   inkscape:cy="513.2689"
   inkscape:window-width="2560"
   inkscape:window-height="1009"
   inkscape:window-x="-8"
   inkscape:window-y="-8"
   inkscape:window-maximized="1"
   inkscape:current-layer="Layer_1" />
<path
   fill="#ffb81c"
   opacity="1"
   stroke="none"
   d="m 248.06668,54.966651 c 29.07321,6.2742 48.88675,24.206818 63.64114,48.418399 13.68464,22.45603 19.99009,47.32364 22.79764,73.2728 3.11121,28.75537 1.37952,57.10309 -5.89261,85.13391 -9.12243,35.16278 -29.05649,62.81372 -58.00628,84.29401 -4.3953,3.26123 -8.81256,6.4928 -14.21781,10.47302 36.07617,-4.93164 67.13156,9.87701 99.15497,19.64697 19.60465,5.98114 39.14307,12.2768 59.58917,14.28583 16.0586,1.57794 32.30622,2.2522 47.8963,-3.64636 2.92957,-1.10834 5.70887,-2.61127 8.57941,-3.88288 0.20691,-0.0916 0.59326,0.22168 1.02142,0.39838 1.27057,2.36578 -0.73889,3.62921 -1.99157,4.95264 -14.44538,15.26135 -32.36689,22.9989 -53.19696,24.18756 -21.99555,1.25519 -42.88904,-4.39221 -63.71842,-10.39911 -25.90429,-7.4704 -51.0318,-17.49738 -77.32858,-23.65411 -21.67148,-5.07392 -42.9339,-5.2157 -63.01358,6.25433 -1.55331,0.88739 -3.25784,1.91717 -5.12225,-0.0537 0.15039,-2.52686 2.44058,-3.2536 4.11007,-4.37793 13.68314,-9.21521 27.25107,-18.55505 39.77826,-29.3631 24.82727,-21.42023 39.94849,-48.2821 45.53964,-80.4978 5.69599,-32.81949 5.95719,-65.8935 4.34327,-99.05661 -1.02219,-21.00482 -3.12424,-41.83624 -9.34589,-62.01779 -4.9389,-16.020674 -12.15381,-30.854411 -26.23083,-40.917247 -29.35941,-20.987274 -70.948,-9.916473 -87.11658,22.904853 -8.96424,18.196804 -12.9401,37.685184 -14.96659,57.670074 -2.42449,23.90997 -2.7048,47.91113 -1.90148,71.88202 0.89343,26.66031 3.50415,53.14236 13.2022,78.37735 8.65009,22.50806 22.98807,39.58594 45.9823,48.49939 1.58631,0.61487 3.67801,0.82202 4.06415,3.11456 -1.37826,2.41736 -3.29953,1.0492 -4.8807,0.62409 -39.07691,-10.50446 -65.69211,-34.67896 -79.41138,-72.80951 -11.43518,-31.78217 -13.27193,-64.65332 -10.91684,-98.00659 1.86569,-26.42176 8.20132,-51.57023 21.09973,-74.82181 13.8403,-24.949533 33.44009,-43.000863 61.81006,-50.022104 11.29871,-2.796325 22.75568,-2.651001 34.64862,-0.863525 z"
   id="path1" />
<path
   fill="#ffb81c"
   opacity="1"
   stroke="none"
   d="m 632.08096,107.26359 c 0.0132,-5.3313 0.11267,-10.164644 0.01,-14.993714 -0.0743,-3.49237 1.18585,-5.181761 4.93793,-5.149901 14.49359,0.12307 28.99036,0.20392 43.48218,0.0114 5.30102,-0.0704 4.80462,3.224881 4.80389,6.639521 -0.0126,58.478424 -0.006,116.956824 -0.005,175.435244 4.9e-4,24.65753 -0.11877,49.3161 0.0942,73.9718 0.0427,4.94202 -1.26599,6.69275 -6.44049,6.56464 -13.65314,-0.33795 -27.3241,-0.2851 -40.97998,-0.002 -4.71723,0.0977 -5.95551,-1.58648 -5.95026,-6.06439 0.0922,-78.63751 0.0557,-157.27518 0.0473,-236.41256 z"
   id="path2" />
<path
   fill="#ffb81c"
   opacity="1"
   stroke="none"
   d="m 408.92032,209.18147 c 14.77435,-38.07443 0.53283,-79.46768 -34.23273,-99.99121 -3.65018,-2.15485 -6.67248,-4.71896 -9.27594,-8.10758 -8.70215,-11.326414 -19.4548,-20.504518 -31.07574,-28.710969 -1.08249,-0.764435 -2.1417,-1.566193 -3.16199,-2.410675 -0.20154,-0.166809 -0.1745,-0.609711 -0.34631,-1.301544 5.72518,-0.977173 6.19717,-6.104157 7.66207,-10.302674 4.43628,-12.714538 4.35852,-12.81781 17.64658,-10.384826 8.84351,1.619232 17.50842,3.985595 26.14178,6.508148 3.51697,1.027618 4.42103,2.959686 3.92487,6.239319 -0.67108,4.435974 -1.16821,8.898132 -1.82184,13.336975 -0.45856,3.113708 0.25043,5.324402 3.36072,6.916961 5.63855,2.887116 10.9256,6.45071 15.73822,10.557621 3.26697,2.78787 6.01044,2.67294 9.33997,0.32968 3.2619,-2.29559 6.86193,-4.106201 10.17004,-6.342101 2.5022,-1.691196 4.42883,-1.636203 6.4989,0.7095 8.065,9.138791 15.38385,18.814455 21.71155,29.242315 1.75452,2.89151 1.56665,5.13056 -1.20575,7.34573 -3.89862,3.11506 -7.578,6.50474 -11.34699,9.78177 -1.77105,1.53992 -2.6026,3.13752 -1.55255,5.66751 2.81153,6.77427 4.84003,13.8267 6.02191,21.06196 0.50428,3.087 2.15204,4.18386 4.92365,4.59628 4.60663,0.68545 9.17871,1.60763 13.78992,2.25564 3.30475,0.46439 5.1192,2.05845 5.12848,5.50031 0.0334,12.33685 -1.03724,24.5874 -2.89698,36.77277 -0.37024,2.42633 -2.07727,3.08941 -4.35205,3.14935 -4.99078,0.13141 -9.97644,0.57638 -14.96563,0.59955 -3.4632,0.0161 -5.48249,1.25787 -6.63965,4.67297 -2.13965,6.31458 -4.97675,12.37402 -8.45539,18.06375 -1.61236,2.63715 -1.23797,4.51846 0.70264,6.65421 3.35858,3.69632 6.4776,7.61136 9.86078,11.28384 2.07989,2.25769 2.10052,4.1557 0.17169,6.53778 -8.00372,9.88458 -16.96545,18.75055 -27.07092,26.49524 -2.36243,1.81061 -4.04804,1.5509 -6.10773,-0.2594 -3.12567,-2.74725 -6.60992,-5.11468 -9.54901,-8.03833 -3.13013,-3.11365 -6.06006,-4.4223 -9.85315,-1.24383 -0.70972,0.59466 -1.74133,1.01825 -2.91705,0.49328 -1.00025,-1.95379 0.58075,-3.40552 1.27307,-4.94629 6.09497,-13.56488 11.16852,-27.42267 12.63006,-42.36355 0.21955,-2.24399 1.39179,-4.05744 2.56092,-5.88999 2.86993,-4.49817 5.56469,-9.09176 7.56958,-14.47949 z"
   id="path3"
   style="stroke:none;stroke-opacity:1;stroke-width:0;stroke-dasharray:none" />
<path
   fill="#ffc763"
   opacity="1"
   stroke="none"
   d="m 592.99112,160.95317 c 10.07629,0.0524 9.38623,-0.94226 9.3855,8.83765 -0.004,57.44067 0.007,114.88131 0.0106,172.32199 4.8e-4,7.49627 -0.006,7.4953 -7.73084,7.49585 -13.31958,9.7e-4 -26.64087,-0.11487 -39.95776,0.075 -4.15308,0.0592 -5.26581,-1.23737 -5.22504,-5.4751 0.17139,-17.80408 -0.38025,-35.61603 -0.15332,-53.41846 0.17395,-13.64929 0.14282,-27.2923 0.15381,-40.93994 0.0218,-27.12271 0.23413,-54.2442 -0.29041,-81.36548 -0.14514,-7.50555 -9.1e-4,-7.5195 7.35029,-7.52579 11.98773,-0.0103 23.9754,-0.004 36.45715,-0.006 z"
   id="path4" />
<path
   fill="#ffb81c"
   opacity="1"
   stroke="none"
   d="m 132.8627,95.069956 c -16.33379,22.115664 -25.00879,46.881994 -28.60167,73.518654 -4.22217,31.30194 -3.55344,62.4411 5.13888,93.01644 8.9433,31.45813 25.12914,58.24396 51.81002,77.9961 1.24774,0.9237 3.09579,1.54907 2.4202,4.97131 C 131.91849,330.56074 105.63444,310.45942 89.58879,279.8882 60.96837,225.35866 61.76285,170.81312 95.0632,118.23851 c 15.71473,-24.810374 37.64041,-43.039651 64.33798,-55.04844 0.61115,0.63858 1.22226,1.27713 1.83341,1.91568 -10.51325,8.888184 -20.25345,18.464996 -28.37189,29.964206 z"
   id="path5" />
<path
   fill="#ffb81c"
   opacity="1"
   stroke="none"
   d="m 375.8287,126.55653 c 27.37073,53.24237 26.37665,105.85333 -3.55456,157.05359 -15.87036,27.14789 -40.00372,45.91846 -68.43848,59.56751 -1.40314,-3.31464 0.51508,-4.09333 1.668,-5.04816 31.06766,-25.73047 49.06781,-58.90924 54.83411,-98.52176 5.38968,-37.02527 4.07,-73.73425 -9.04108,-109.33038 -9.04593,-24.55933 -23.26877,-45.597483 -43.04925,-62.824565 -1.37061,-1.193695 -3.74479,-1.910797 -2.5235,-5.870605 29.68728,15.094452 53.39325,35.894256 70.10476,64.97437 z"
   id="path6" />
<path
   fill="#ffd690"
   opacity="1"
   stroke="none"
   d="m 466.02847,311.26271 c -0.01,-20.82593 0.12793,-41.15375 -0.13098,-61.4765 -0.0654,-5.13477 1.7392,-6.63944 6.65497,-6.56147 13.82452,0.21936 27.65607,0.12348 41.48303,-0.0228 3.69458,-0.0391 5.40662,0.94268 5.39148,5.04574 -0.11829,32.15467 -0.10248,64.31006 0.004,96.46485 0.0123,3.68347 -1.2431,4.96997 -4.91241,4.93695 -14.49353,-0.13037 -28.99048,-0.15229 -43.48291,0.035 -4.13367,0.0534 -5.10608,-1.79394 -5.06555,-5.43408 0.12036,-10.82813 0.0527,-21.65833 0.058,-32.98767 z"
   id="path7" />
<path
   fill="#ffb81c"
   opacity="1"
   stroke="none"
   d="m 284.44894,399.77254 c 24.69736,8.19213 48.6774,17.30395 73.58179,23.57934 23.11011,5.8233 46.04675,6.36548 68.86511,-1.336 5.41376,-1.82721 10.31568,-4.62414 15.10205,-7.67846 1.48249,-0.94605 2.74018,-2.56403 4.89563,-1.98896 1.63629,1.8537 -0.006,3.11103 -0.92956,4.30017 -14.47211,18.63672 -33.33747,29.6991 -56.77625,32.93573 -21.56387,2.97773 -42.00226,-2.38116 -62.32223,-8.38263 -24.75873,-7.3125 -48.60395,-17.31103 -73.15952,-25.21545 -15.19211,-4.89032 -30.40942,-9.79437 -46.72549,-9.59369 -8.2208,0.1012 -15.80539,1.89417 -22.90888,5.94745 -1.41241,0.80603 -2.78662,1.79077 -4.63913,1.79327 -1.53698,-2.57129 0.56513,-3.81164 1.79828,-5.06884 17.1196,-17.45301 37.40961,-25.42774 61.99375,-20.76776 13.94458,2.64318 27.43637,6.83404 41.22445,11.47583 z"
   id="path8" />
<path
   fill="#ffe4b6"
   opacity="1"
   stroke="none"
   d="m 382.77792,334.25978 c -0.003,-4.65375 0.0617,-8.80994 -0.0269,-12.96283 -0.0595,-2.78876 0.80243,-4.35742 3.93957,-4.34424 15.12317,0.0633 30.24689,0.0518 45.37012,-0.0122 2.78387,-0.0118 3.94342,1.2815 3.95209,3.89588 0.0274,8.30859 0.0477,16.61725 0.0664,24.92584 0.006,2.65564 -1.22705,3.86029 -3.98114,3.85059 -15.12329,-0.0535 -30.24695,-0.0331 -45.37036,0.009 -2.70953,0.007 -3.95123,-1.17413 -3.91437,-3.89453 0.0496,-3.65521 -0.0167,-7.31207 -0.0354,-11.4671 z"
   id="path9" />
</svg>
