<svg version="1.1" id="Layer_1" xmlns="http://www.w3.org/2000/svg" xmlns:xlink="http://www.w3.org/1999/xlink" x="0px" y="0px"
	 width="100%" viewBox="0 0 1024 1024" enable-background="new 0 0 1024 1024" xml:space="preserve">
<path fill="#000000" opacity="1.000000" stroke="none" 
	d="
M380.031982,322.703949 
	C409.105194,328.978149 428.918732,346.910767 443.673126,371.122345 
	C457.357758,393.578369 463.663208,418.445984 466.470764,444.395142 
	C469.581970,473.150513 467.850281,501.498230 460.578156,529.529053 
	C451.455719,564.691833 431.521667,592.342773 402.571869,613.823059 
	C398.176575,617.084290 393.759308,620.315857 388.354065,624.296082 
	C424.430237,619.364441 455.485626,634.173096 487.509033,643.943054 
	C507.113678,649.924194 526.652100,656.219849 547.098206,658.228882 
	C563.156799,659.806824 579.404419,660.481079 594.994507,654.582520 
	C597.924072,653.474182 600.703369,651.971252 603.573914,650.699646 
	C603.780823,650.608032 604.167175,650.921326 604.595337,651.098022 
	C605.865906,653.463806 603.856445,654.727234 602.603760,656.050659 
	C588.158386,671.312012 570.236877,679.049561 549.406799,680.238220 
	C527.411255,681.493408 506.517761,675.846008 485.688385,669.839111 
	C459.784088,662.368713 434.656586,652.341736 408.359802,646.184998 
	C386.688324,641.111084 365.425903,640.969299 345.346222,652.439331 
	C343.792908,653.326721 342.088379,654.356506 340.223969,652.385620 
	C340.374359,649.858765 342.664551,649.132019 344.334045,648.007690 
	C358.017181,638.792480 371.585114,629.452637 384.112305,618.644592 
	C408.939575,597.224365 424.060791,570.362488 429.651947,538.146790 
	C435.347931,505.327301 435.609131,472.253296 433.995209,439.090179 
	C432.973022,418.085358 430.870972,397.253937 424.649323,377.072388 
	C419.710419,361.051727 412.495514,346.217987 398.418488,336.155151 
	C369.059082,315.167877 327.470490,326.238678 311.301910,359.059998 
	C302.337677,377.256805 298.361816,396.745178 296.335327,416.730072 
	C293.910828,440.640045 293.630524,464.641205 294.433838,488.612091 
	C295.327271,515.272400 297.937988,541.754456 307.636047,566.989441 
	C316.286133,589.497498 330.624115,606.575378 353.618347,615.488831 
	C355.204651,616.103699 357.296356,616.310852 357.682495,618.603394 
	C356.304230,621.020752 354.382965,619.652588 352.801788,619.227478 
	C313.724884,608.723022 287.109680,584.548523 273.390411,546.417969 
	C261.955231,514.635803 260.118469,481.764648 262.473572,448.411377 
	C264.339264,421.989624 270.674896,396.841156 283.573303,373.589569 
	C297.413605,348.640045 317.013397,330.588715 345.383362,323.567474 
	C356.682068,320.771149 368.139038,320.916473 380.031982,322.703949 
z"/>
<path fill="#000000" opacity="1.000000" stroke="none" 
	d="
M764.046265,375.000885 
	C764.059448,369.669586 764.158936,364.836243 764.056274,360.007172 
	C763.981995,356.514801 765.242126,354.825409 768.994202,354.857269 
	C783.487793,354.980347 797.984558,355.061188 812.476379,354.868713 
	C817.777405,354.798309 817.281006,358.093597 817.280273,361.508240 
	C817.267700,419.986664 817.274414,478.465057 817.275513,536.943481 
	C817.276001,561.601013 817.156738,586.259583 817.369690,610.915283 
	C817.412354,615.857300 816.103699,617.608032 810.929199,617.479919 
	C797.276062,617.141968 783.605103,617.194824 769.949219,617.477844 
	C765.231995,617.575562 763.993713,615.891357 763.998962,611.413452 
	C764.091187,532.775940 764.054626,454.138275 764.046265,375.000885 
z"/>
<path fill="#000000" opacity="1.000000" stroke="none" 
	d="
M540.885620,476.918762 
	C555.659973,438.844330 541.418457,397.451080 506.652893,376.927551 
	C503.002716,374.772705 499.980408,372.208588 497.376953,368.819977 
	C488.674805,357.493561 477.922150,348.315460 466.301208,340.109009 
	C465.218719,339.344574 464.159515,338.542816 463.139221,337.698334 
	C462.937683,337.531525 462.964722,337.088623 462.792908,336.396790 
	C468.518097,335.419617 468.990082,330.292633 470.454987,326.094116 
	C474.891266,313.379578 474.813507,313.276306 488.101562,315.709290 
	C496.945068,317.328522 505.609985,319.694885 514.243347,322.217438 
	C517.760315,323.245056 518.664368,325.177124 518.168213,328.456757 
	C517.497131,332.892731 517.000000,337.354889 516.346375,341.793732 
	C515.887817,344.907440 516.596802,347.118134 519.707092,348.710693 
	C525.345642,351.597809 530.632690,355.161407 535.445312,359.268311 
	C538.712280,362.056183 541.455750,361.941254 544.785278,359.597992 
	C548.047180,357.302399 551.647217,355.491791 554.955322,353.255890 
	C557.457520,351.564697 559.384155,351.619690 561.454224,353.965393 
	C569.519226,363.104187 576.838074,372.779846 583.165771,383.207703 
	C584.920288,386.099213 584.732422,388.338257 581.960022,390.553436 
	C578.061401,393.668488 574.382019,397.058167 570.613037,400.335205 
	C568.841980,401.875122 568.010437,403.472717 569.060486,406.002716 
	C571.872009,412.776978 573.900513,419.829407 575.082397,427.064667 
	C575.586670,430.151672 577.234436,431.248535 580.006042,431.660950 
	C584.612671,432.346405 589.184753,433.268585 593.795959,433.916595 
	C597.100708,434.380981 598.915161,435.975037 598.924438,439.416901 
	C598.957825,451.753754 597.887207,464.004303 596.027466,476.189667 
	C595.657227,478.615997 593.950195,479.279083 591.675415,479.339020 
	C586.684631,479.470428 581.698975,479.915405 576.709778,479.938568 
	C573.246582,479.954620 571.227295,481.196442 570.070129,484.611542 
	C567.930481,490.926117 565.093384,496.985565 561.614746,502.675293 
	C560.002380,505.312439 560.376770,507.193756 562.317383,509.329498 
	C565.675964,513.025818 568.794983,516.940857 572.178162,520.613342 
	C574.258057,522.871033 574.278687,524.769043 572.349854,527.151123 
	C564.346130,537.035706 555.384399,545.901672 545.278931,553.646362 
	C542.916504,555.456970 541.230896,555.197266 539.171204,553.386963 
	C536.045532,550.639709 532.561279,548.272278 529.622192,545.348633 
	C526.492065,542.234985 523.562134,540.926331 519.769043,544.104797 
	C519.059326,544.699463 518.027710,545.123047 516.851990,544.598083 
	C515.851746,542.644287 517.432739,541.192566 518.125061,539.651794 
	C524.220032,526.086914 529.293579,512.229126 530.755127,497.288239 
	C530.974670,495.044250 532.146912,493.230804 533.316040,491.398254 
	C536.185974,486.900085 538.880737,482.306488 540.885620,476.918762 
z"/>
<path fill="#000000" opacity="1.000000" stroke="none" 
	d="
M724.956421,428.690460 
	C735.032715,428.742828 734.342651,427.748199 734.341919,437.528107 
	C734.337463,494.968781 734.348938,552.409424 734.352539,609.850098 
	C734.353027,617.346375 734.346191,617.345398 726.621704,617.345947 
	C713.302124,617.346924 699.980835,617.231079 686.663940,617.420898 
	C682.510864,617.480103 681.398132,616.183533 681.438904,611.945801 
	C681.610291,594.141724 681.058655,576.329773 681.285583,558.527344 
	C681.459534,544.878052 681.428406,531.235046 681.439392,517.587402 
	C681.461243,490.464691 681.673523,463.343201 681.148987,436.221924 
	C681.003845,428.716370 681.148071,428.702423 688.499268,428.696136 
	C700.487000,428.685852 712.474670,428.691833 724.956421,428.690460 
z"/>
<path fill="#000000" opacity="1.000000" stroke="none" 
	d="
M264.828003,362.807251 
	C248.494202,384.922913 239.819199,409.689240 236.226318,436.325897 
	C232.004166,467.627838 232.672897,498.766998 241.365204,529.342346 
	C250.308502,560.800476 266.494354,587.586304 293.175232,607.338440 
	C294.422974,608.262146 296.271027,608.887512 295.595428,612.309753 
	C263.883789,598.298035 237.599731,578.196716 221.554092,547.625488 
	C192.933670,493.095947 193.728149,438.550415 227.028503,385.975800 
	C242.743225,361.165436 264.668915,342.936157 291.366486,330.927368 
	C291.977631,331.565948 292.588745,332.204498 293.199890,332.843048 
	C282.686646,341.731232 272.946442,351.308044 264.828003,362.807251 
z"/>
<path fill="#000000" opacity="1.000000" stroke="none" 
	d="
M507.794006,394.293823 
	C535.164734,447.536194 534.170654,500.147156 504.239441,551.347412 
	C488.369080,578.495300 464.235718,597.265869 435.800964,610.914917 
	C434.397827,607.600281 436.316040,606.821594 437.468964,605.866760 
	C468.536621,580.136292 486.536774,546.957520 492.303070,507.345001 
	C497.692749,470.319733 496.373077,433.610748 483.261993,398.014618 
	C474.216064,373.455292 459.993225,352.417145 440.212738,335.190063 
	C438.842133,333.996368 436.467957,333.279266 437.689240,329.319458 
	C467.376526,344.413910 491.082489,365.213715 507.794006,394.293823 
z"/>
<path fill="#000000" opacity="1.000000" stroke="none" 
	d="
M597.993774,579.000000 
	C597.984009,558.174072 598.121704,537.846252 597.862793,517.523499 
	C597.797424,512.388733 599.601990,510.884064 604.517761,510.962036 
	C618.342285,511.181396 632.173828,511.085510 646.000793,510.939178 
	C649.695374,510.900055 651.407410,511.881866 651.392273,515.984924 
	C651.273987,548.139587 651.289795,580.294983 651.396606,612.449768 
	C651.408875,616.133240 650.153503,617.419739 646.484192,617.386719 
	C631.990662,617.256348 617.493713,617.234436 603.001282,617.421753 
	C598.867615,617.475159 597.895203,615.627808 597.935730,611.987671 
	C598.056091,601.159546 597.988403,590.329346 597.993774,579.000000 
z"/>
<path fill="#000000" opacity="1.000000" stroke="none" 
	d="
M416.414246,667.509827 
	C441.111603,675.701965 465.091644,684.813782 489.996033,691.089172 
	C513.106140,696.912476 536.042786,697.454651 558.861145,689.753174 
	C564.274902,687.925964 569.176819,685.129028 573.963196,682.074707 
	C575.445679,681.128662 576.703369,679.510681 578.858826,680.085754 
	C580.495117,681.939453 578.852783,683.196777 577.929260,684.385925 
	C563.457153,703.022644 544.591797,714.085022 521.153015,717.321655 
	C499.589142,720.299377 479.150757,714.940491 458.830780,708.939026 
	C434.072052,701.626526 410.226837,691.627991 385.671265,683.723572 
	C370.479156,678.833252 355.261841,673.929199 338.945770,674.129883 
	C330.724976,674.231079 323.140381,676.024048 316.036896,680.077332 
	C314.624481,680.883362 313.250275,681.868103 311.397766,681.870605 
	C309.860779,679.299316 311.962891,678.058960 313.196045,676.801758 
	C330.315643,659.348755 350.605652,651.374023 375.189789,656.033997 
	C389.134369,658.677185 402.626160,662.868042 416.414246,667.509827 
z"/>
<path fill="#000000" opacity="1.000000" stroke="none" 
	d="
M514.743225,601.997070 
	C514.740356,597.343323 514.804932,593.187134 514.716309,589.034241 
	C514.656799,586.245483 515.518738,584.676819 518.655884,584.690002 
	C533.779053,584.753296 548.902771,584.741821 564.026001,584.677795 
	C566.809875,584.666016 567.969421,585.959290 567.978088,588.573669 
	C568.005493,596.882263 568.025757,605.190918 568.044495,613.499512 
	C568.050476,616.155151 566.817444,617.359802 564.063354,617.350098 
	C548.940063,617.296570 533.816406,617.317017 518.692993,617.358704 
	C515.983459,617.366150 514.741760,616.184570 514.778625,613.464172 
	C514.828186,609.808960 514.761963,606.152100 514.743225,601.997070 
z"/>
</svg>